G04 #@! TF.FileFunction,Legend,Bot*
%FSLAX46Y46*%
G04 Gerber Fmt 4.6, Leading zero omitted, Abs format (unit mm)*
G04 Created by KiCad (PCBNEW 4.0.2+dfsg1-stable) date gio 28 lug 2016 18:48:22 CEST*
%MOMM*%
G01*
G04 APERTURE LIST*
%ADD10C,0.100000*%
%ADD11C,0.300000*%
%ADD12C,0.500000*%
%ADD13C,0.150000*%
%ADD14C,0.010000*%
%ADD15R,3.900120X3.900120*%
%ADD16C,4.210000*%
%ADD17R,4.210000X4.210000*%
%ADD18R,2.940000X2.940000*%
%ADD19C,2.940000*%
%ADD20R,2.432000X2.432000*%
%ADD21O,2.432000X2.432000*%
%ADD22C,6.800000*%
G04 APERTURE END LIST*
D10*
D11*
X132900000Y-114478571D02*
X132900000Y-112978571D01*
X132900000Y-114407143D02*
X133042857Y-114478571D01*
X133328571Y-114478571D01*
X133471429Y-114407143D01*
X133542857Y-114335714D01*
X133614286Y-114192857D01*
X133614286Y-113764286D01*
X133542857Y-113621429D01*
X133471429Y-113550000D01*
X133328571Y-113478571D01*
X133042857Y-113478571D01*
X132900000Y-113550000D01*
X131614286Y-114407143D02*
X131757143Y-114478571D01*
X132042857Y-114478571D01*
X132185714Y-114407143D01*
X132257143Y-114264286D01*
X132257143Y-113692857D01*
X132185714Y-113550000D01*
X132042857Y-113478571D01*
X131757143Y-113478571D01*
X131614286Y-113550000D01*
X131542857Y-113692857D01*
X131542857Y-113835714D01*
X132257143Y-113978571D01*
X130971429Y-114407143D02*
X130828572Y-114478571D01*
X130542857Y-114478571D01*
X130400000Y-114407143D01*
X130328572Y-114264286D01*
X130328572Y-114192857D01*
X130400000Y-114050000D01*
X130542857Y-113978571D01*
X130757143Y-113978571D01*
X130900000Y-113907143D01*
X130971429Y-113764286D01*
X130971429Y-113692857D01*
X130900000Y-113550000D01*
X130757143Y-113478571D01*
X130542857Y-113478571D01*
X130400000Y-113550000D01*
X129685714Y-114478571D02*
X129685714Y-113478571D01*
X129685714Y-112978571D02*
X129757143Y-113050000D01*
X129685714Y-113121429D01*
X129614286Y-113050000D01*
X129685714Y-112978571D01*
X129685714Y-113121429D01*
X128328571Y-113478571D02*
X128328571Y-114692857D01*
X128400000Y-114835714D01*
X128471428Y-114907143D01*
X128614285Y-114978571D01*
X128828571Y-114978571D01*
X128971428Y-114907143D01*
X128328571Y-114407143D02*
X128471428Y-114478571D01*
X128757142Y-114478571D01*
X128900000Y-114407143D01*
X128971428Y-114335714D01*
X129042857Y-114192857D01*
X129042857Y-113764286D01*
X128971428Y-113621429D01*
X128900000Y-113550000D01*
X128757142Y-113478571D01*
X128471428Y-113478571D01*
X128328571Y-113550000D01*
X127614285Y-113478571D02*
X127614285Y-114478571D01*
X127614285Y-113621429D02*
X127542857Y-113550000D01*
X127399999Y-113478571D01*
X127185714Y-113478571D01*
X127042857Y-113550000D01*
X126971428Y-113692857D01*
X126971428Y-114478571D01*
X125685714Y-114407143D02*
X125828571Y-114478571D01*
X126114285Y-114478571D01*
X126257142Y-114407143D01*
X126328571Y-114264286D01*
X126328571Y-113692857D01*
X126257142Y-113550000D01*
X126114285Y-113478571D01*
X125828571Y-113478571D01*
X125685714Y-113550000D01*
X125614285Y-113692857D01*
X125614285Y-113835714D01*
X126328571Y-113978571D01*
X124328571Y-114478571D02*
X124328571Y-112978571D01*
X124328571Y-114407143D02*
X124471428Y-114478571D01*
X124757142Y-114478571D01*
X124900000Y-114407143D01*
X124971428Y-114335714D01*
X125042857Y-114192857D01*
X125042857Y-113764286D01*
X124971428Y-113621429D01*
X124900000Y-113550000D01*
X124757142Y-113478571D01*
X124471428Y-113478571D01*
X124328571Y-113550000D01*
X122471428Y-114478571D02*
X122471428Y-113478571D01*
X122471428Y-112978571D02*
X122542857Y-113050000D01*
X122471428Y-113121429D01*
X122400000Y-113050000D01*
X122471428Y-112978571D01*
X122471428Y-113121429D01*
X121757142Y-113478571D02*
X121757142Y-114478571D01*
X121757142Y-113621429D02*
X121685714Y-113550000D01*
X121542856Y-113478571D01*
X121328571Y-113478571D01*
X121185714Y-113550000D01*
X121114285Y-113692857D01*
X121114285Y-114478571D01*
X133542857Y-116092857D02*
X133042857Y-116092857D01*
X132828571Y-116878571D02*
X133542857Y-116878571D01*
X133542857Y-115378571D01*
X132828571Y-115378571D01*
X132185714Y-116878571D02*
X132185714Y-115878571D01*
X132185714Y-116021429D02*
X132114286Y-115950000D01*
X131971428Y-115878571D01*
X131757143Y-115878571D01*
X131614286Y-115950000D01*
X131542857Y-116092857D01*
X131542857Y-116878571D01*
X131542857Y-116092857D02*
X131471428Y-115950000D01*
X131328571Y-115878571D01*
X131114286Y-115878571D01*
X130971428Y-115950000D01*
X130900000Y-116092857D01*
X130900000Y-116878571D01*
X130185714Y-116878571D02*
X130185714Y-115878571D01*
X130185714Y-115378571D02*
X130257143Y-115450000D01*
X130185714Y-115521429D01*
X130114286Y-115450000D01*
X130185714Y-115378571D01*
X130185714Y-115521429D01*
X129257142Y-116878571D02*
X129400000Y-116807143D01*
X129471428Y-116664286D01*
X129471428Y-115378571D01*
X128685714Y-116878571D02*
X128685714Y-115878571D01*
X128685714Y-115378571D02*
X128757143Y-115450000D01*
X128685714Y-115521429D01*
X128614286Y-115450000D01*
X128685714Y-115378571D01*
X128685714Y-115521429D01*
X127328571Y-116878571D02*
X127328571Y-116092857D01*
X127400000Y-115950000D01*
X127542857Y-115878571D01*
X127828571Y-115878571D01*
X127971428Y-115950000D01*
X127328571Y-116807143D02*
X127471428Y-116878571D01*
X127828571Y-116878571D01*
X127971428Y-116807143D01*
X128042857Y-116664286D01*
X128042857Y-116521429D01*
X127971428Y-116378571D01*
X127828571Y-116307143D01*
X127471428Y-116307143D01*
X127328571Y-116235714D01*
X126614285Y-116307143D02*
X125471428Y-116307143D01*
X123899999Y-116878571D02*
X124399999Y-116164286D01*
X124757142Y-116878571D02*
X124757142Y-115378571D01*
X124185714Y-115378571D01*
X124042856Y-115450000D01*
X123971428Y-115521429D01*
X123899999Y-115664286D01*
X123899999Y-115878571D01*
X123971428Y-116021429D01*
X124042856Y-116092857D01*
X124185714Y-116164286D01*
X124757142Y-116164286D01*
X123042856Y-116878571D02*
X123185714Y-116807143D01*
X123257142Y-116735714D01*
X123328571Y-116592857D01*
X123328571Y-116164286D01*
X123257142Y-116021429D01*
X123185714Y-115950000D01*
X123042856Y-115878571D01*
X122828571Y-115878571D01*
X122685714Y-115950000D01*
X122614285Y-116021429D01*
X122542856Y-116164286D01*
X122542856Y-116592857D01*
X122614285Y-116735714D01*
X122685714Y-116807143D01*
X122828571Y-116878571D01*
X123042856Y-116878571D01*
X121899999Y-116878571D02*
X121899999Y-115878571D01*
X121899999Y-116021429D02*
X121828571Y-115950000D01*
X121685713Y-115878571D01*
X121471428Y-115878571D01*
X121328571Y-115950000D01*
X121257142Y-116092857D01*
X121257142Y-116878571D01*
X121257142Y-116092857D02*
X121185713Y-115950000D01*
X121042856Y-115878571D01*
X120828571Y-115878571D01*
X120685713Y-115950000D01*
X120614285Y-116092857D01*
X120614285Y-116878571D01*
X119257142Y-116878571D02*
X119257142Y-116092857D01*
X119328571Y-115950000D01*
X119471428Y-115878571D01*
X119757142Y-115878571D01*
X119899999Y-115950000D01*
X119257142Y-116807143D02*
X119399999Y-116878571D01*
X119757142Y-116878571D01*
X119899999Y-116807143D01*
X119971428Y-116664286D01*
X119971428Y-116521429D01*
X119899999Y-116378571D01*
X119757142Y-116307143D01*
X119399999Y-116307143D01*
X119257142Y-116235714D01*
X117899999Y-115878571D02*
X117899999Y-117092857D01*
X117971428Y-117235714D01*
X118042856Y-117307143D01*
X118185713Y-117378571D01*
X118399999Y-117378571D01*
X118542856Y-117307143D01*
X117899999Y-116807143D02*
X118042856Y-116878571D01*
X118328570Y-116878571D01*
X118471428Y-116807143D01*
X118542856Y-116735714D01*
X118614285Y-116592857D01*
X118614285Y-116164286D01*
X118542856Y-116021429D01*
X118471428Y-115950000D01*
X118328570Y-115878571D01*
X118042856Y-115878571D01*
X117899999Y-115950000D01*
X117185713Y-115878571D02*
X117185713Y-116878571D01*
X117185713Y-116021429D02*
X117114285Y-115950000D01*
X116971427Y-115878571D01*
X116757142Y-115878571D01*
X116614285Y-115950000D01*
X116542856Y-116092857D01*
X116542856Y-116878571D01*
X115185713Y-116878571D02*
X115185713Y-116092857D01*
X115257142Y-115950000D01*
X115399999Y-115878571D01*
X115685713Y-115878571D01*
X115828570Y-115950000D01*
X115185713Y-116807143D02*
X115328570Y-116878571D01*
X115685713Y-116878571D01*
X115828570Y-116807143D01*
X115899999Y-116664286D01*
X115899999Y-116521429D01*
X115828570Y-116378571D01*
X115685713Y-116307143D01*
X115328570Y-116307143D01*
X115185713Y-116235714D01*
X133114286Y-119850000D02*
X133185714Y-119778571D01*
X133328571Y-119564286D01*
X133400000Y-119421429D01*
X133471429Y-119207143D01*
X133542857Y-118850000D01*
X133542857Y-118564286D01*
X133471429Y-118207143D01*
X133400000Y-117992857D01*
X133328571Y-117850000D01*
X133185714Y-117635714D01*
X133114286Y-117564286D01*
X132542857Y-119278571D02*
X132542857Y-117778571D01*
X132042857Y-118278571D02*
X131471428Y-118278571D01*
X131828571Y-117778571D02*
X131828571Y-119064286D01*
X131757143Y-119207143D01*
X131614285Y-119278571D01*
X131471428Y-119278571D01*
X130328571Y-119278571D02*
X130328571Y-118492857D01*
X130400000Y-118350000D01*
X130542857Y-118278571D01*
X130828571Y-118278571D01*
X130971428Y-118350000D01*
X130328571Y-119207143D02*
X130471428Y-119278571D01*
X130828571Y-119278571D01*
X130971428Y-119207143D01*
X131042857Y-119064286D01*
X131042857Y-118921429D01*
X130971428Y-118778571D01*
X130828571Y-118707143D01*
X130471428Y-118707143D01*
X130328571Y-118635714D01*
X129399999Y-119278571D02*
X129542857Y-119207143D01*
X129614285Y-119064286D01*
X129614285Y-117778571D01*
X128971428Y-118278571D02*
X128614285Y-119278571D01*
X128257143Y-118278571D02*
X128614285Y-119278571D01*
X128757143Y-119635714D01*
X128828571Y-119707143D01*
X128971428Y-119778571D01*
X127828571Y-119850000D02*
X127757143Y-119778571D01*
X127614286Y-119564286D01*
X127542857Y-119421429D01*
X127471428Y-119207143D01*
X127400000Y-118850000D01*
X127400000Y-118564286D01*
X127471428Y-118207143D01*
X127542857Y-117992857D01*
X127614286Y-117850000D01*
X127757143Y-117635714D01*
X127828571Y-117564286D01*
D12*
X139904763Y-102821429D02*
X140571430Y-102821429D01*
X140571430Y-104130952D02*
X140571430Y-101630952D01*
X139619049Y-101630952D01*
X138857144Y-104130952D02*
X138857144Y-102464286D01*
X138857144Y-102940476D02*
X138761905Y-102702381D01*
X138666667Y-102583333D01*
X138476191Y-102464286D01*
X138285715Y-102464286D01*
X136761906Y-104130952D02*
X136761906Y-102821429D01*
X136857144Y-102583333D01*
X137047620Y-102464286D01*
X137428572Y-102464286D01*
X137619049Y-102583333D01*
X136761906Y-104011905D02*
X136952382Y-104130952D01*
X137428572Y-104130952D01*
X137619049Y-104011905D01*
X137714287Y-103773810D01*
X137714287Y-103535714D01*
X137619049Y-103297619D01*
X137428572Y-103178571D01*
X136952382Y-103178571D01*
X136761906Y-103059524D01*
X135809525Y-102464286D02*
X135809525Y-104130952D01*
X135809525Y-102702381D02*
X135714286Y-102583333D01*
X135523810Y-102464286D01*
X135238096Y-102464286D01*
X135047620Y-102583333D01*
X134952382Y-102821429D01*
X134952382Y-104130952D01*
X133142858Y-104011905D02*
X133333334Y-104130952D01*
X133714286Y-104130952D01*
X133904762Y-104011905D01*
X134000001Y-103892857D01*
X134095239Y-103654762D01*
X134095239Y-102940476D01*
X134000001Y-102702381D01*
X133904762Y-102583333D01*
X133714286Y-102464286D01*
X133333334Y-102464286D01*
X133142858Y-102583333D01*
X131523810Y-104011905D02*
X131714286Y-104130952D01*
X132095238Y-104130952D01*
X132285715Y-104011905D01*
X132380953Y-103773810D01*
X132380953Y-102821429D01*
X132285715Y-102583333D01*
X132095238Y-102464286D01*
X131714286Y-102464286D01*
X131523810Y-102583333D01*
X131428572Y-102821429D01*
X131428572Y-103059524D01*
X132380953Y-103297619D01*
X130666667Y-104011905D02*
X130476190Y-104130952D01*
X130095238Y-104130952D01*
X129904762Y-104011905D01*
X129809524Y-103773810D01*
X129809524Y-103654762D01*
X129904762Y-103416667D01*
X130095238Y-103297619D01*
X130380952Y-103297619D01*
X130571429Y-103178571D01*
X130666667Y-102940476D01*
X130666667Y-102821429D01*
X130571429Y-102583333D01*
X130380952Y-102464286D01*
X130095238Y-102464286D01*
X129904762Y-102583333D01*
X128095238Y-104011905D02*
X128285714Y-104130952D01*
X128666666Y-104130952D01*
X128857142Y-104011905D01*
X128952381Y-103892857D01*
X129047619Y-103654762D01*
X129047619Y-102940476D01*
X128952381Y-102702381D01*
X128857142Y-102583333D01*
X128666666Y-102464286D01*
X128285714Y-102464286D01*
X128095238Y-102583333D01*
X126952380Y-104130952D02*
X127142856Y-104011905D01*
X127238095Y-103892857D01*
X127333333Y-103654762D01*
X127333333Y-102940476D01*
X127238095Y-102702381D01*
X127142856Y-102583333D01*
X126952380Y-102464286D01*
X126666666Y-102464286D01*
X126476190Y-102583333D01*
X126380952Y-102702381D01*
X126285714Y-102940476D01*
X126285714Y-103654762D01*
X126380952Y-103892857D01*
X126476190Y-104011905D01*
X126666666Y-104130952D01*
X126952380Y-104130952D01*
X124190475Y-101630952D02*
X123523808Y-104130952D01*
X122857141Y-101630952D01*
X121333332Y-104130952D02*
X121333332Y-102821429D01*
X121428570Y-102583333D01*
X121619046Y-102464286D01*
X121999998Y-102464286D01*
X122190475Y-102583333D01*
X121333332Y-104011905D02*
X121523808Y-104130952D01*
X121999998Y-104130952D01*
X122190475Y-104011905D01*
X122285713Y-103773810D01*
X122285713Y-103535714D01*
X122190475Y-103297619D01*
X121999998Y-103178571D01*
X121523808Y-103178571D01*
X121333332Y-103059524D01*
X120095236Y-104130952D02*
X120285712Y-104011905D01*
X120380951Y-103773810D01*
X120380951Y-101630952D01*
X119047617Y-104130952D02*
X119238093Y-104011905D01*
X119333332Y-103773810D01*
X119333332Y-101630952D01*
X117428570Y-104130952D02*
X117428570Y-102821429D01*
X117523808Y-102583333D01*
X117714284Y-102464286D01*
X118095236Y-102464286D01*
X118285713Y-102583333D01*
X117428570Y-104011905D02*
X117619046Y-104130952D01*
X118095236Y-104130952D01*
X118285713Y-104011905D01*
X118380951Y-103773810D01*
X118380951Y-103535714D01*
X118285713Y-103297619D01*
X118095236Y-103178571D01*
X117619046Y-103178571D01*
X117428570Y-103059524D01*
X132428572Y-105869048D02*
X132333334Y-105750000D01*
X132142857Y-105630952D01*
X131666667Y-105630952D01*
X131476191Y-105750000D01*
X131380953Y-105869048D01*
X131285714Y-106107143D01*
X131285714Y-106345238D01*
X131380953Y-106702381D01*
X132523810Y-108130952D01*
X131285714Y-108130952D01*
X130047619Y-105630952D02*
X129857143Y-105630952D01*
X129666667Y-105750000D01*
X129571429Y-105869048D01*
X129476191Y-106107143D01*
X129380952Y-106583333D01*
X129380952Y-107178571D01*
X129476191Y-107654762D01*
X129571429Y-107892857D01*
X129666667Y-108011905D01*
X129857143Y-108130952D01*
X130047619Y-108130952D01*
X130238095Y-108011905D01*
X130333333Y-107892857D01*
X130428572Y-107654762D01*
X130523810Y-107178571D01*
X130523810Y-106583333D01*
X130428572Y-106107143D01*
X130333333Y-105869048D01*
X130238095Y-105750000D01*
X130047619Y-105630952D01*
X127476190Y-108130952D02*
X128619048Y-108130952D01*
X128047619Y-108130952D02*
X128047619Y-105630952D01*
X128238095Y-105988095D01*
X128428571Y-106226190D01*
X128619048Y-106345238D01*
X125761905Y-105630952D02*
X126142857Y-105630952D01*
X126333333Y-105750000D01*
X126428571Y-105869048D01*
X126619048Y-106226190D01*
X126714286Y-106702381D01*
X126714286Y-107654762D01*
X126619048Y-107892857D01*
X126523809Y-108011905D01*
X126333333Y-108130952D01*
X125952381Y-108130952D01*
X125761905Y-108011905D01*
X125666667Y-107892857D01*
X125571428Y-107654762D01*
X125571428Y-107059524D01*
X125666667Y-106821429D01*
X125761905Y-106702381D01*
X125952381Y-106583333D01*
X126333333Y-106583333D01*
X126523809Y-106702381D01*
X126619048Y-106821429D01*
X126714286Y-107059524D01*
D13*
X119531220Y-93289860D02*
X119170540Y-94760520D01*
X119170540Y-94760520D02*
X118891140Y-93698800D01*
X118891140Y-93698800D02*
X118581260Y-94770680D01*
X118581260Y-94770680D02*
X118240900Y-93320340D01*
X120951080Y-93980740D02*
X120161140Y-93970580D01*
X120161140Y-93970580D02*
X120150980Y-93980740D01*
X120150980Y-93980740D02*
X120150980Y-93970580D01*
X120110340Y-93259380D02*
X120110340Y-94801160D01*
X120999340Y-93249220D02*
X120999340Y-94818940D01*
X120999340Y-94818940D02*
X120989180Y-94808780D01*
X121550520Y-93350820D02*
X121901040Y-93269540D01*
X121901040Y-93269540D02*
X122221080Y-93259380D01*
X122221080Y-93259380D02*
X122459840Y-93460040D01*
X122459840Y-93460040D02*
X122490320Y-93729280D01*
X122490320Y-93729280D02*
X122249020Y-93970580D01*
X122249020Y-93970580D02*
X121860400Y-94100120D01*
X121860400Y-94100120D02*
X121680060Y-94260140D01*
X121680060Y-94260140D02*
X121639420Y-94559860D01*
X121639420Y-94559860D02*
X121870560Y-94780840D01*
X121870560Y-94780840D02*
X122190600Y-94808780D01*
X122190600Y-94808780D02*
X122541120Y-94699560D01*
X123579980Y-93249220D02*
X123828900Y-93269540D01*
X123828900Y-93269540D02*
X124070200Y-93510840D01*
X124070200Y-93510840D02*
X124159100Y-94001060D01*
X124159100Y-94001060D02*
X124131160Y-94349040D01*
X124131160Y-94349040D02*
X123930500Y-94669080D01*
X123930500Y-94669080D02*
X123679040Y-94791000D01*
X123679040Y-94791000D02*
X123369160Y-94719880D01*
X123369160Y-94719880D02*
X123150720Y-94539540D01*
X123150720Y-94539540D02*
X123079600Y-94079800D01*
X123079600Y-94079800D02*
X123130400Y-93670860D01*
X123130400Y-93670860D02*
X123239620Y-93388920D01*
X123239620Y-93388920D02*
X123600300Y-93259380D01*
X122980540Y-91529640D02*
X123239620Y-92090980D01*
X123239620Y-92090980D02*
X122701140Y-92609140D01*
X122701140Y-92609140D02*
X122180440Y-92339900D01*
X122180440Y-92339900D02*
X121901040Y-92499920D01*
X120460860Y-92479600D02*
X120130660Y-92289100D01*
X120130660Y-92289100D02*
X119691240Y-92619300D01*
X119691240Y-92619300D02*
X119218800Y-92129080D01*
X119218800Y-92129080D02*
X119500740Y-91649020D01*
X119500740Y-91649020D02*
X119310240Y-91179120D01*
X119310240Y-91179120D02*
X118700640Y-90991160D01*
X118700640Y-90991160D02*
X118700640Y-90310440D01*
X118700640Y-90310440D02*
X119259440Y-90170740D01*
X119259440Y-90170740D02*
X119460100Y-89599240D01*
X119460100Y-89599240D02*
X119190860Y-89129340D01*
X119190860Y-89129340D02*
X119660760Y-88618800D01*
X119660760Y-88618800D02*
X120178920Y-88880420D01*
X120178920Y-88880420D02*
X120648820Y-88679760D01*
X120648820Y-88679760D02*
X120819000Y-88138740D01*
X120819000Y-88138740D02*
X121509880Y-88120960D01*
X121509880Y-88120960D02*
X121720700Y-88669600D01*
X121720700Y-88669600D02*
X122139800Y-88839780D01*
X122139800Y-88839780D02*
X122690980Y-88570540D01*
X122690980Y-88570540D02*
X123209140Y-89098860D01*
X123209140Y-89098860D02*
X122960220Y-89639880D01*
X122960220Y-89639880D02*
X123130400Y-90119940D01*
X123130400Y-90119940D02*
X123679040Y-90219000D01*
X123679040Y-90219000D02*
X123689200Y-90920040D01*
X123689200Y-90920040D02*
X123130400Y-91120700D01*
X123130400Y-91120700D02*
X122990700Y-91519480D01*
X120849480Y-91499160D02*
X120549760Y-91349300D01*
X120549760Y-91349300D02*
X120349100Y-91151180D01*
X120349100Y-91151180D02*
X120199240Y-90749860D01*
X120199240Y-90749860D02*
X120199240Y-90351080D01*
X120199240Y-90351080D02*
X120349100Y-90000560D01*
X120349100Y-90000560D02*
X120801220Y-89650040D01*
X120801220Y-89650040D02*
X121250800Y-89599240D01*
X121250800Y-89599240D02*
X121649580Y-89700840D01*
X121649580Y-89700840D02*
X122050900Y-90048820D01*
X122050900Y-90048820D02*
X122200760Y-90500940D01*
X122200760Y-90500940D02*
X122149960Y-90998780D01*
X122149960Y-90998780D02*
X121901040Y-91301040D01*
X121901040Y-91301040D02*
X121550520Y-91499160D01*
X121550520Y-91499160D02*
X121901040Y-92499920D01*
X120849480Y-91499160D02*
X120450700Y-92499920D01*
D14*
G36*
X121191228Y-108620350D02*
X121164610Y-108624015D01*
X121124940Y-108629788D01*
X121074051Y-108637393D01*
X121013780Y-108646553D01*
X120945961Y-108656994D01*
X120872429Y-108668439D01*
X120833877Y-108674487D01*
X120481501Y-108729907D01*
X120316401Y-108796447D01*
X120264468Y-108816904D01*
X120215427Y-108835350D01*
X120172307Y-108850710D01*
X120138140Y-108861914D01*
X120115957Y-108867887D01*
X120113200Y-108868363D01*
X120095701Y-108868877D01*
X120063272Y-108867854D01*
X120017832Y-108865420D01*
X119961304Y-108861699D01*
X119895608Y-108856818D01*
X119822665Y-108850902D01*
X119750512Y-108844628D01*
X119425923Y-108815518D01*
X119226787Y-108869189D01*
X119171524Y-108884165D01*
X119121989Y-108897746D01*
X119080433Y-108909301D01*
X119049103Y-108918202D01*
X119030250Y-108923818D01*
X119025659Y-108925480D01*
X119023545Y-108934411D01*
X119019458Y-108956356D01*
X119014067Y-108987602D01*
X119010235Y-109010809D01*
X119003445Y-109049930D01*
X118996742Y-109077638D01*
X118987921Y-109099296D01*
X118974778Y-109120269D01*
X118955107Y-109145921D01*
X118954242Y-109147009D01*
X118911679Y-109200498D01*
X118602885Y-109317367D01*
X118294092Y-109434236D01*
X118038478Y-109609656D01*
X117946188Y-109673681D01*
X117866672Y-109730389D01*
X117798148Y-109781115D01*
X117738834Y-109827192D01*
X117686945Y-109869955D01*
X117663821Y-109889988D01*
X117623816Y-109925010D01*
X117585940Y-109957739D01*
X117552896Y-109985873D01*
X117527390Y-110007105D01*
X117513219Y-110018330D01*
X117495203Y-110028597D01*
X117463783Y-110043186D01*
X117421297Y-110061239D01*
X117370083Y-110081901D01*
X117312479Y-110104315D01*
X117250824Y-110127623D01*
X117187457Y-110150970D01*
X117124715Y-110173498D01*
X117064938Y-110194351D01*
X117010462Y-110212673D01*
X116963628Y-110227606D01*
X116926773Y-110238294D01*
X116902235Y-110243880D01*
X116895867Y-110244501D01*
X116873507Y-110243068D01*
X116838793Y-110239140D01*
X116796028Y-110233272D01*
X116749515Y-110226023D01*
X116737233Y-110223963D01*
X116676137Y-110212757D01*
X116628222Y-110201127D01*
X116589947Y-110186841D01*
X116557768Y-110167669D01*
X116528143Y-110141378D01*
X116497528Y-110105739D01*
X116462380Y-110058521D01*
X116452476Y-110044654D01*
X116422619Y-110003300D01*
X116400608Y-109974536D01*
X116385016Y-109956780D01*
X116374420Y-109948452D01*
X116367395Y-109947971D01*
X116366098Y-109948833D01*
X116357249Y-109957744D01*
X116338952Y-109977312D01*
X116313024Y-110005554D01*
X116281282Y-110040486D01*
X116245544Y-110080124D01*
X116231248Y-110096057D01*
X116190400Y-110141477D01*
X116158683Y-110176045D01*
X116134021Y-110201605D01*
X116114336Y-110219998D01*
X116097552Y-110233068D01*
X116081593Y-110242656D01*
X116064383Y-110250606D01*
X116051021Y-110255971D01*
X115994167Y-110278184D01*
X115816367Y-110264958D01*
X115627601Y-110255802D01*
X115443834Y-110255588D01*
X115249101Y-110259443D01*
X115109401Y-110294715D01*
X115063524Y-110306491D01*
X115005092Y-110321788D01*
X114937865Y-110339605D01*
X114865606Y-110358940D01*
X114792076Y-110378791D01*
X114721037Y-110398155D01*
X114720252Y-110398370D01*
X114648032Y-110417797D01*
X114582835Y-110434603D01*
X114526540Y-110448343D01*
X114481028Y-110458575D01*
X114448177Y-110464852D01*
X114430956Y-110466754D01*
X114345516Y-110464286D01*
X114244432Y-110456918D01*
X114128252Y-110444702D01*
X113997525Y-110427688D01*
X113958391Y-110422072D01*
X113734481Y-110389333D01*
X113615491Y-110419128D01*
X113496500Y-110448924D01*
X113357888Y-110562035D01*
X113310912Y-110600168D01*
X113274538Y-110628984D01*
X113246383Y-110650036D01*
X113224065Y-110664873D01*
X113205200Y-110675048D01*
X113187404Y-110682112D01*
X113168295Y-110687616D01*
X113162897Y-110688963D01*
X113106518Y-110702779D01*
X112830853Y-110652425D01*
X112555187Y-110602070D01*
X112272310Y-110647424D01*
X112187334Y-110660556D01*
X112091850Y-110674479D01*
X111991307Y-110688452D01*
X111891152Y-110701736D01*
X111796833Y-110713589D01*
X111714472Y-110723198D01*
X111439510Y-110753619D01*
X111205027Y-110985976D01*
X111152839Y-111037406D01*
X111104120Y-111084872D01*
X111060232Y-111127087D01*
X111022536Y-111162766D01*
X110992395Y-111190622D01*
X110971171Y-111209369D01*
X110960225Y-111217721D01*
X110959289Y-111218036D01*
X110945622Y-111216149D01*
X110920976Y-111211514D01*
X110893000Y-111205633D01*
X110858135Y-111197824D01*
X110835031Y-111194191D01*
X110821647Y-111197086D01*
X110815947Y-111208864D01*
X110815889Y-111231877D01*
X110819436Y-111268480D01*
X110821481Y-111288183D01*
X110831089Y-111383433D01*
X110938730Y-111588552D01*
X111046370Y-111793670D01*
X111084820Y-112033052D01*
X111123269Y-112272433D01*
X111114792Y-112543366D01*
X111106315Y-112814300D01*
X111173225Y-113236290D01*
X111186373Y-113319864D01*
X111198666Y-113399250D01*
X111209846Y-113472704D01*
X111219658Y-113538482D01*
X111227844Y-113594840D01*
X111234149Y-113640032D01*
X111238316Y-113672316D01*
X111240089Y-113689946D01*
X111240134Y-113691451D01*
X111238091Y-113705040D01*
X111232204Y-113733565D01*
X111222840Y-113775559D01*
X111210363Y-113829556D01*
X111195137Y-113894088D01*
X111177529Y-113967689D01*
X111157903Y-114048893D01*
X111136624Y-114136233D01*
X111114057Y-114228242D01*
X111090568Y-114323454D01*
X111066520Y-114420402D01*
X111042281Y-114517620D01*
X111018213Y-114613641D01*
X110994683Y-114706998D01*
X110972056Y-114796226D01*
X110950696Y-114879856D01*
X110930968Y-114956424D01*
X110913238Y-115024461D01*
X110897871Y-115082502D01*
X110885232Y-115129080D01*
X110875685Y-115162728D01*
X110869596Y-115181980D01*
X110868388Y-115184966D01*
X110860578Y-115196985D01*
X110843063Y-115221117D01*
X110816705Y-115256245D01*
X110782370Y-115301253D01*
X110740920Y-115355025D01*
X110693221Y-115416444D01*
X110640135Y-115484395D01*
X110582527Y-115557759D01*
X110521261Y-115635422D01*
X110457465Y-115715935D01*
X110381125Y-115811968D01*
X110314428Y-115895628D01*
X110256575Y-115967870D01*
X110206764Y-116029650D01*
X110164197Y-116081923D01*
X110128073Y-116125645D01*
X110097592Y-116161773D01*
X110071954Y-116191261D01*
X110050359Y-116215065D01*
X110032008Y-116234142D01*
X110016099Y-116249446D01*
X110001833Y-116261935D01*
X109997371Y-116265583D01*
X109968930Y-116288479D01*
X109945361Y-116307496D01*
X109929846Y-116320062D01*
X109925680Y-116323476D01*
X109927008Y-116332499D01*
X109934617Y-116354237D01*
X109947480Y-116386125D01*
X109964570Y-116425604D01*
X109981953Y-116463860D01*
X110044580Y-116598900D01*
X110102057Y-116639116D01*
X110129284Y-116657645D01*
X110151301Y-116671663D01*
X110164418Y-116678853D01*
X110166120Y-116679333D01*
X110172568Y-116672367D01*
X110185201Y-116653416D01*
X110202172Y-116625406D01*
X110220945Y-116592504D01*
X110246589Y-116548256D01*
X110270201Y-116513576D01*
X110294707Y-116486336D01*
X110323033Y-116464408D01*
X110358104Y-116445663D01*
X110402847Y-116427972D01*
X110460186Y-116409207D01*
X110482141Y-116402486D01*
X110531555Y-116387397D01*
X110567497Y-116375841D01*
X110592714Y-116366493D01*
X110609955Y-116358024D01*
X110621967Y-116349108D01*
X110631499Y-116338418D01*
X110640273Y-116326117D01*
X110648930Y-116312898D01*
X110655529Y-116300049D01*
X110660582Y-116284806D01*
X110664599Y-116264408D01*
X110668089Y-116236093D01*
X110671562Y-116197097D01*
X110675530Y-116144660D01*
X110676660Y-116129112D01*
X110688328Y-115968034D01*
X110795634Y-115839136D01*
X110964967Y-115797234D01*
X111025043Y-115782609D01*
X111071482Y-115771982D01*
X111106987Y-115764897D01*
X111134258Y-115760900D01*
X111155998Y-115759537D01*
X111174907Y-115760351D01*
X111180454Y-115760955D01*
X111198436Y-115764524D01*
X111221616Y-115771838D01*
X111251701Y-115783640D01*
X111290400Y-115800672D01*
X111339422Y-115823675D01*
X111400474Y-115853393D01*
X111451388Y-115878638D01*
X111676167Y-115990699D01*
X111793864Y-116010642D01*
X111841020Y-116018832D01*
X111875200Y-116025650D01*
X111900149Y-116032378D01*
X111919616Y-116040295D01*
X111937347Y-116050682D01*
X111957090Y-116064818D01*
X111960975Y-116067731D01*
X111986155Y-116087329D01*
X112006003Y-116104012D01*
X112016496Y-116114385D01*
X112016798Y-116114822D01*
X112021829Y-116124940D01*
X112032757Y-116148416D01*
X112048620Y-116183129D01*
X112068453Y-116226959D01*
X112091292Y-116277782D01*
X112116172Y-116333477D01*
X112116386Y-116333959D01*
X112209567Y-116543152D01*
X112332334Y-116632212D01*
X112372919Y-116660958D01*
X112409785Y-116685771D01*
X112440391Y-116705042D01*
X112462199Y-116717164D01*
X112472034Y-116720643D01*
X112485518Y-116719148D01*
X112512745Y-116715371D01*
X112550746Y-116709751D01*
X112596551Y-116702729D01*
X112645600Y-116694996D01*
X112802234Y-116669977D01*
X112920767Y-116589344D01*
X113002422Y-116533816D01*
X113071528Y-116486768D01*
X113129496Y-116447096D01*
X113177738Y-116413697D01*
X113217666Y-116385469D01*
X113250691Y-116361308D01*
X113278225Y-116340112D01*
X113301679Y-116320776D01*
X113322466Y-116302197D01*
X113341997Y-116283274D01*
X113361683Y-116262902D01*
X113382936Y-116239979D01*
X113407169Y-116213401D01*
X113420300Y-116198991D01*
X113458341Y-116157216D01*
X113494622Y-116117195D01*
X113526800Y-116081527D01*
X113552530Y-116052812D01*
X113569468Y-116033650D01*
X113570883Y-116032017D01*
X113602933Y-115994911D01*
X113588966Y-115911672D01*
X113579218Y-115862423D01*
X113567806Y-115824445D01*
X113552902Y-115792079D01*
X113547026Y-115781866D01*
X113514565Y-115722162D01*
X113493653Y-115669096D01*
X113482870Y-115618418D01*
X113480598Y-115582900D01*
X113486507Y-115523348D01*
X113505670Y-115474293D01*
X113538198Y-115435553D01*
X113584200Y-115406947D01*
X113589749Y-115404552D01*
X113617325Y-115390807D01*
X113631631Y-115376718D01*
X113636046Y-115358856D01*
X113636071Y-115357555D01*
X113630470Y-115348360D01*
X113614502Y-115328454D01*
X113589509Y-115299355D01*
X113556837Y-115262579D01*
X113517830Y-115219646D01*
X113473832Y-115172073D01*
X113437355Y-115133189D01*
X113378443Y-115070249D01*
X113329257Y-115016605D01*
X113290257Y-114972782D01*
X113261902Y-114939309D01*
X113244652Y-114916712D01*
X113238965Y-114905567D01*
X113241838Y-114891356D01*
X113249343Y-114864903D01*
X113260366Y-114829893D01*
X113273791Y-114790012D01*
X113274827Y-114787033D01*
X113310234Y-114685433D01*
X113457788Y-114661312D01*
X113512300Y-114652581D01*
X113553340Y-114646615D01*
X113584109Y-114643197D01*
X113607802Y-114642111D01*
X113627618Y-114643139D01*
X113646755Y-114646064D01*
X113655696Y-114647877D01*
X113698674Y-114661503D01*
X113739671Y-114681971D01*
X113747121Y-114686815D01*
X113770426Y-114702025D01*
X113788426Y-114712281D01*
X113795729Y-114715067D01*
X113802465Y-114707879D01*
X113813622Y-114688802D01*
X113827079Y-114661566D01*
X113830659Y-114653683D01*
X113845260Y-114625651D01*
X113867554Y-114588649D01*
X113895570Y-114545436D01*
X113927338Y-114498770D01*
X113960887Y-114451406D01*
X113994248Y-114406103D01*
X114025449Y-114365618D01*
X114052521Y-114332708D01*
X114073493Y-114310131D01*
X114080549Y-114303975D01*
X114100185Y-114291943D01*
X114131133Y-114276310D01*
X114168803Y-114259285D01*
X114200803Y-114246105D01*
X114243983Y-114227249D01*
X114298260Y-114200515D01*
X114360666Y-114167454D01*
X114428234Y-114129616D01*
X114467094Y-114106993D01*
X114641822Y-114003867D01*
X114705081Y-114003867D01*
X114723325Y-114004056D01*
X114739852Y-114005085D01*
X114756722Y-114007649D01*
X114775998Y-114012440D01*
X114799741Y-114020151D01*
X114830013Y-114031476D01*
X114868873Y-114047108D01*
X114918385Y-114067740D01*
X114980609Y-114094066D01*
X115008515Y-114105919D01*
X115069498Y-114132115D01*
X115126465Y-114157125D01*
X115177249Y-114179955D01*
X115219687Y-114199614D01*
X115251612Y-114215108D01*
X115270859Y-114225446D01*
X115274295Y-114227735D01*
X115288570Y-114239406D01*
X115313106Y-114260160D01*
X115345449Y-114287893D01*
X115383147Y-114320501D01*
X115423747Y-114355882D01*
X115426758Y-114358516D01*
X115470102Y-114396681D01*
X115503489Y-114425438D01*
X115530210Y-114445926D01*
X115553558Y-114459284D01*
X115576823Y-114466649D01*
X115603296Y-114469160D01*
X115636270Y-114467957D01*
X115679035Y-114464176D01*
X115720771Y-114460221D01*
X115822822Y-114450908D01*
X115925428Y-114377248D01*
X115962061Y-114351025D01*
X115994091Y-114328240D01*
X116018868Y-114310765D01*
X116033745Y-114300474D01*
X116036500Y-114298688D01*
X116048050Y-114297276D01*
X116072475Y-114297362D01*
X116105794Y-114298863D01*
X116131976Y-114300687D01*
X116218986Y-114307586D01*
X116321736Y-114405493D01*
X116356167Y-114437948D01*
X116386481Y-114465857D01*
X116410523Y-114487289D01*
X116426139Y-114500312D01*
X116431000Y-114503400D01*
X116439489Y-114497056D01*
X116452518Y-114481283D01*
X116456339Y-114475883D01*
X116484178Y-114439859D01*
X116517636Y-114406108D01*
X116559446Y-114372358D01*
X116612340Y-114336339D01*
X116658466Y-114307938D01*
X116773100Y-114239515D01*
X116874700Y-114099606D01*
X116909346Y-114052103D01*
X116936134Y-114016240D01*
X116957060Y-113989885D01*
X116974117Y-113970907D01*
X116989301Y-113957173D01*
X117004607Y-113946553D01*
X117022030Y-113936913D01*
X117031334Y-113932206D01*
X117049095Y-113923492D01*
X117064781Y-113916732D01*
X117080964Y-113911546D01*
X117100215Y-113907552D01*
X117125107Y-113904369D01*
X117158210Y-113901615D01*
X117202096Y-113898909D01*
X117259338Y-113895869D01*
X117285334Y-113894537D01*
X117484300Y-113884359D01*
X117535100Y-113906675D01*
X117566912Y-113922884D01*
X117596477Y-113941650D01*
X117612701Y-113954695D01*
X117639501Y-113980400D01*
X117659887Y-113947683D01*
X117671526Y-113928598D01*
X117689568Y-113898525D01*
X117711854Y-113861085D01*
X117736224Y-113819898D01*
X117745063Y-113804900D01*
X117771082Y-113761291D01*
X117791250Y-113729536D01*
X117807943Y-113706687D01*
X117823536Y-113689799D01*
X117840407Y-113675925D01*
X117859420Y-113663083D01*
X117887535Y-113646898D01*
X117912909Y-113635415D01*
X117929478Y-113631204D01*
X117949134Y-113628688D01*
X117958945Y-113624854D01*
X117966342Y-113617147D01*
X117983361Y-113598014D01*
X118008698Y-113568964D01*
X118041047Y-113531509D01*
X118079104Y-113487156D01*
X118121565Y-113437418D01*
X118161841Y-113390033D01*
X118207536Y-113336327D01*
X118250369Y-113286288D01*
X118288967Y-113241500D01*
X118321952Y-113203549D01*
X118347950Y-113174017D01*
X118365584Y-113154488D01*
X118372997Y-113146915D01*
X118385385Y-113139652D01*
X118411043Y-113126954D01*
X118447611Y-113109905D01*
X118492732Y-113089589D01*
X118544047Y-113067090D01*
X118583824Y-113050012D01*
X118643121Y-113025002D01*
X118689495Y-113005269D01*
X118725308Y-112988801D01*
X118752920Y-112973587D01*
X118774694Y-112957617D01*
X118792991Y-112938877D01*
X118810172Y-112915357D01*
X118828599Y-112885046D01*
X118850633Y-112845931D01*
X118875466Y-112801600D01*
X118898738Y-112760947D01*
X118919168Y-112727818D01*
X118938900Y-112700672D01*
X118960076Y-112677971D01*
X118984838Y-112658173D01*
X119015330Y-112639740D01*
X119053694Y-112621131D01*
X119102072Y-112600807D01*
X119162607Y-112577227D01*
X119215734Y-112557063D01*
X119271881Y-112535512D01*
X119322979Y-112515299D01*
X119366821Y-112497348D01*
X119401197Y-112482578D01*
X119423901Y-112471914D01*
X119432548Y-112466560D01*
X119438522Y-112452598D01*
X119445428Y-112427172D01*
X119451842Y-112395585D01*
X119452264Y-112393109D01*
X119455977Y-112368153D01*
X119457795Y-112345362D01*
X119457505Y-112321045D01*
X119454895Y-112291508D01*
X119449751Y-112253058D01*
X119441862Y-112202002D01*
X119440910Y-112196039D01*
X119432271Y-112139818D01*
X119426896Y-112094022D01*
X119425649Y-112055612D01*
X119429394Y-112021552D01*
X119438994Y-111988804D01*
X119455313Y-111954331D01*
X119479216Y-111915096D01*
X119511565Y-111868061D01*
X119548981Y-111816045D01*
X119649396Y-111677445D01*
X119733811Y-111654760D01*
X119818226Y-111632076D01*
X120052497Y-111735234D01*
X120113442Y-111762197D01*
X120171231Y-111788000D01*
X120223514Y-111811577D01*
X120267941Y-111831859D01*
X120302162Y-111847780D01*
X120323827Y-111858272D01*
X120327123Y-111859984D01*
X120346613Y-111872783D01*
X120369845Y-111892836D01*
X120398429Y-111921761D01*
X120433971Y-111961179D01*
X120474660Y-112008653D01*
X120526309Y-112071553D01*
X120566127Y-112123898D01*
X120594721Y-112166623D01*
X120612697Y-112200661D01*
X120620664Y-112226948D01*
X120621201Y-112234292D01*
X120624067Y-112245450D01*
X120635638Y-112250343D01*
X120654638Y-112251266D01*
X120666521Y-112250863D01*
X120676967Y-112248496D01*
X120687842Y-112242425D01*
X120701011Y-112230913D01*
X120718339Y-112212223D01*
X120741692Y-112184615D01*
X120772933Y-112146351D01*
X120790495Y-112124658D01*
X120837134Y-112069580D01*
X120887729Y-112014311D01*
X120939952Y-111961056D01*
X120991472Y-111912021D01*
X121039957Y-111869412D01*
X121083078Y-111835436D01*
X121118503Y-111812297D01*
X121123068Y-111809868D01*
X121144398Y-111801079D01*
X121177333Y-111789985D01*
X121216993Y-111778149D01*
X121250068Y-111769249D01*
X121290502Y-111758646D01*
X121327096Y-111748538D01*
X121355408Y-111740181D01*
X121369501Y-111735450D01*
X121385879Y-111728072D01*
X121388278Y-111720714D01*
X121378553Y-111707389D01*
X121378286Y-111707068D01*
X121364737Y-111691592D01*
X121343856Y-111668683D01*
X121320022Y-111643143D01*
X121318626Y-111641667D01*
X121291785Y-111610581D01*
X121273930Y-111581507D01*
X121260416Y-111546413D01*
X121256989Y-111535137D01*
X121239396Y-111475173D01*
X121262615Y-111360327D01*
X121272302Y-111313623D01*
X121280333Y-111279729D01*
X121288152Y-111254806D01*
X121297202Y-111235018D01*
X121308924Y-111216525D01*
X121324426Y-111195923D01*
X121363018Y-111146367D01*
X121565726Y-111054328D01*
X121647878Y-111016571D01*
X121728560Y-110978626D01*
X121806286Y-110941256D01*
X121879572Y-110905225D01*
X121946932Y-110871294D01*
X122006880Y-110840227D01*
X122057932Y-110812786D01*
X122098601Y-110789734D01*
X122127402Y-110771834D01*
X122142851Y-110759848D01*
X122144952Y-110756900D01*
X122148041Y-110741793D01*
X122151487Y-110714032D01*
X122154824Y-110677879D01*
X122157091Y-110645938D01*
X122162889Y-110551909D01*
X122140359Y-110537147D01*
X122129147Y-110530573D01*
X122118047Y-110527518D01*
X122103141Y-110528260D01*
X122080508Y-110533078D01*
X122046230Y-110542251D01*
X122038499Y-110544392D01*
X122003051Y-110553889D01*
X121972981Y-110561327D01*
X121952536Y-110565685D01*
X121946849Y-110566400D01*
X121933432Y-110561801D01*
X121910354Y-110549579D01*
X121881189Y-110532090D01*
X121849513Y-110511694D01*
X121818899Y-110490750D01*
X121792923Y-110471617D01*
X121775159Y-110456652D01*
X121769245Y-110449207D01*
X121766356Y-110435504D01*
X121761626Y-110409055D01*
X121755748Y-110373855D01*
X121750282Y-110339516D01*
X121743860Y-110295562D01*
X121740592Y-110264497D01*
X121740353Y-110242598D01*
X121743018Y-110226141D01*
X121746190Y-110216749D01*
X121756445Y-110190754D01*
X121768159Y-110160730D01*
X121770584Y-110154470D01*
X121784178Y-110119307D01*
X121744715Y-110075415D01*
X121697007Y-110016234D01*
X121647956Y-109943907D01*
X121599833Y-109861829D01*
X121591057Y-109845553D01*
X121573240Y-109810014D01*
X121560591Y-109778178D01*
X121553139Y-109747213D01*
X121550909Y-109714283D01*
X121553930Y-109676557D01*
X121562226Y-109631201D01*
X121575826Y-109575380D01*
X121594247Y-109508066D01*
X121609366Y-109456351D01*
X121624597Y-109407828D01*
X121638813Y-109365830D01*
X121650888Y-109333693D01*
X121659359Y-109315321D01*
X121680399Y-109279208D01*
X121631896Y-109224304D01*
X121609225Y-109199528D01*
X121590381Y-109180564D01*
X121578360Y-109170365D01*
X121576157Y-109169400D01*
X121557800Y-109165443D01*
X121529105Y-109154901D01*
X121494333Y-109139767D01*
X121457746Y-109122035D01*
X121423607Y-109103698D01*
X121396176Y-109086748D01*
X121390068Y-109082365D01*
X121350662Y-109050198D01*
X121319149Y-109017813D01*
X121294286Y-108982500D01*
X121274829Y-108941546D01*
X121259532Y-108892242D01*
X121247152Y-108831877D01*
X121236445Y-108757739D01*
X121234748Y-108743950D01*
X121228716Y-108695511D01*
X121223838Y-108661431D01*
X121219482Y-108639227D01*
X121215016Y-108626419D01*
X121209809Y-108620527D01*
X121203229Y-108619068D01*
X121202957Y-108619066D01*
X121191228Y-108620350D01*
X121191228Y-108620350D01*
G37*
X121191228Y-108620350D02*
X121164610Y-108624015D01*
X121124940Y-108629788D01*
X121074051Y-108637393D01*
X121013780Y-108646553D01*
X120945961Y-108656994D01*
X120872429Y-108668439D01*
X120833877Y-108674487D01*
X120481501Y-108729907D01*
X120316401Y-108796447D01*
X120264468Y-108816904D01*
X120215427Y-108835350D01*
X120172307Y-108850710D01*
X120138140Y-108861914D01*
X120115957Y-108867887D01*
X120113200Y-108868363D01*
X120095701Y-108868877D01*
X120063272Y-108867854D01*
X120017832Y-108865420D01*
X119961304Y-108861699D01*
X119895608Y-108856818D01*
X119822665Y-108850902D01*
X119750512Y-108844628D01*
X119425923Y-108815518D01*
X119226787Y-108869189D01*
X119171524Y-108884165D01*
X119121989Y-108897746D01*
X119080433Y-108909301D01*
X119049103Y-108918202D01*
X119030250Y-108923818D01*
X119025659Y-108925480D01*
X119023545Y-108934411D01*
X119019458Y-108956356D01*
X119014067Y-108987602D01*
X119010235Y-109010809D01*
X119003445Y-109049930D01*
X118996742Y-109077638D01*
X118987921Y-109099296D01*
X118974778Y-109120269D01*
X118955107Y-109145921D01*
X118954242Y-109147009D01*
X118911679Y-109200498D01*
X118602885Y-109317367D01*
X118294092Y-109434236D01*
X118038478Y-109609656D01*
X117946188Y-109673681D01*
X117866672Y-109730389D01*
X117798148Y-109781115D01*
X117738834Y-109827192D01*
X117686945Y-109869955D01*
X117663821Y-109889988D01*
X117623816Y-109925010D01*
X117585940Y-109957739D01*
X117552896Y-109985873D01*
X117527390Y-110007105D01*
X117513219Y-110018330D01*
X117495203Y-110028597D01*
X117463783Y-110043186D01*
X117421297Y-110061239D01*
X117370083Y-110081901D01*
X117312479Y-110104315D01*
X117250824Y-110127623D01*
X117187457Y-110150970D01*
X117124715Y-110173498D01*
X117064938Y-110194351D01*
X117010462Y-110212673D01*
X116963628Y-110227606D01*
X116926773Y-110238294D01*
X116902235Y-110243880D01*
X116895867Y-110244501D01*
X116873507Y-110243068D01*
X116838793Y-110239140D01*
X116796028Y-110233272D01*
X116749515Y-110226023D01*
X116737233Y-110223963D01*
X116676137Y-110212757D01*
X116628222Y-110201127D01*
X116589947Y-110186841D01*
X116557768Y-110167669D01*
X116528143Y-110141378D01*
X116497528Y-110105739D01*
X116462380Y-110058521D01*
X116452476Y-110044654D01*
X116422619Y-110003300D01*
X116400608Y-109974536D01*
X116385016Y-109956780D01*
X116374420Y-109948452D01*
X116367395Y-109947971D01*
X116366098Y-109948833D01*
X116357249Y-109957744D01*
X116338952Y-109977312D01*
X116313024Y-110005554D01*
X116281282Y-110040486D01*
X116245544Y-110080124D01*
X116231248Y-110096057D01*
X116190400Y-110141477D01*
X116158683Y-110176045D01*
X116134021Y-110201605D01*
X116114336Y-110219998D01*
X116097552Y-110233068D01*
X116081593Y-110242656D01*
X116064383Y-110250606D01*
X116051021Y-110255971D01*
X115994167Y-110278184D01*
X115816367Y-110264958D01*
X115627601Y-110255802D01*
X115443834Y-110255588D01*
X115249101Y-110259443D01*
X115109401Y-110294715D01*
X115063524Y-110306491D01*
X115005092Y-110321788D01*
X114937865Y-110339605D01*
X114865606Y-110358940D01*
X114792076Y-110378791D01*
X114721037Y-110398155D01*
X114720252Y-110398370D01*
X114648032Y-110417797D01*
X114582835Y-110434603D01*
X114526540Y-110448343D01*
X114481028Y-110458575D01*
X114448177Y-110464852D01*
X114430956Y-110466754D01*
X114345516Y-110464286D01*
X114244432Y-110456918D01*
X114128252Y-110444702D01*
X113997525Y-110427688D01*
X113958391Y-110422072D01*
X113734481Y-110389333D01*
X113615491Y-110419128D01*
X113496500Y-110448924D01*
X113357888Y-110562035D01*
X113310912Y-110600168D01*
X113274538Y-110628984D01*
X113246383Y-110650036D01*
X113224065Y-110664873D01*
X113205200Y-110675048D01*
X113187404Y-110682112D01*
X113168295Y-110687616D01*
X113162897Y-110688963D01*
X113106518Y-110702779D01*
X112830853Y-110652425D01*
X112555187Y-110602070D01*
X112272310Y-110647424D01*
X112187334Y-110660556D01*
X112091850Y-110674479D01*
X111991307Y-110688452D01*
X111891152Y-110701736D01*
X111796833Y-110713589D01*
X111714472Y-110723198D01*
X111439510Y-110753619D01*
X111205027Y-110985976D01*
X111152839Y-111037406D01*
X111104120Y-111084872D01*
X111060232Y-111127087D01*
X111022536Y-111162766D01*
X110992395Y-111190622D01*
X110971171Y-111209369D01*
X110960225Y-111217721D01*
X110959289Y-111218036D01*
X110945622Y-111216149D01*
X110920976Y-111211514D01*
X110893000Y-111205633D01*
X110858135Y-111197824D01*
X110835031Y-111194191D01*
X110821647Y-111197086D01*
X110815947Y-111208864D01*
X110815889Y-111231877D01*
X110819436Y-111268480D01*
X110821481Y-111288183D01*
X110831089Y-111383433D01*
X110938730Y-111588552D01*
X111046370Y-111793670D01*
X111084820Y-112033052D01*
X111123269Y-112272433D01*
X111114792Y-112543366D01*
X111106315Y-112814300D01*
X111173225Y-113236290D01*
X111186373Y-113319864D01*
X111198666Y-113399250D01*
X111209846Y-113472704D01*
X111219658Y-113538482D01*
X111227844Y-113594840D01*
X111234149Y-113640032D01*
X111238316Y-113672316D01*
X111240089Y-113689946D01*
X111240134Y-113691451D01*
X111238091Y-113705040D01*
X111232204Y-113733565D01*
X111222840Y-113775559D01*
X111210363Y-113829556D01*
X111195137Y-113894088D01*
X111177529Y-113967689D01*
X111157903Y-114048893D01*
X111136624Y-114136233D01*
X111114057Y-114228242D01*
X111090568Y-114323454D01*
X111066520Y-114420402D01*
X111042281Y-114517620D01*
X111018213Y-114613641D01*
X110994683Y-114706998D01*
X110972056Y-114796226D01*
X110950696Y-114879856D01*
X110930968Y-114956424D01*
X110913238Y-115024461D01*
X110897871Y-115082502D01*
X110885232Y-115129080D01*
X110875685Y-115162728D01*
X110869596Y-115181980D01*
X110868388Y-115184966D01*
X110860578Y-115196985D01*
X110843063Y-115221117D01*
X110816705Y-115256245D01*
X110782370Y-115301253D01*
X110740920Y-115355025D01*
X110693221Y-115416444D01*
X110640135Y-115484395D01*
X110582527Y-115557759D01*
X110521261Y-115635422D01*
X110457465Y-115715935D01*
X110381125Y-115811968D01*
X110314428Y-115895628D01*
X110256575Y-115967870D01*
X110206764Y-116029650D01*
X110164197Y-116081923D01*
X110128073Y-116125645D01*
X110097592Y-116161773D01*
X110071954Y-116191261D01*
X110050359Y-116215065D01*
X110032008Y-116234142D01*
X110016099Y-116249446D01*
X110001833Y-116261935D01*
X109997371Y-116265583D01*
X109968930Y-116288479D01*
X109945361Y-116307496D01*
X109929846Y-116320062D01*
X109925680Y-116323476D01*
X109927008Y-116332499D01*
X109934617Y-116354237D01*
X109947480Y-116386125D01*
X109964570Y-116425604D01*
X109981953Y-116463860D01*
X110044580Y-116598900D01*
X110102057Y-116639116D01*
X110129284Y-116657645D01*
X110151301Y-116671663D01*
X110164418Y-116678853D01*
X110166120Y-116679333D01*
X110172568Y-116672367D01*
X110185201Y-116653416D01*
X110202172Y-116625406D01*
X110220945Y-116592504D01*
X110246589Y-116548256D01*
X110270201Y-116513576D01*
X110294707Y-116486336D01*
X110323033Y-116464408D01*
X110358104Y-116445663D01*
X110402847Y-116427972D01*
X110460186Y-116409207D01*
X110482141Y-116402486D01*
X110531555Y-116387397D01*
X110567497Y-116375841D01*
X110592714Y-116366493D01*
X110609955Y-116358024D01*
X110621967Y-116349108D01*
X110631499Y-116338418D01*
X110640273Y-116326117D01*
X110648930Y-116312898D01*
X110655529Y-116300049D01*
X110660582Y-116284806D01*
X110664599Y-116264408D01*
X110668089Y-116236093D01*
X110671562Y-116197097D01*
X110675530Y-116144660D01*
X110676660Y-116129112D01*
X110688328Y-115968034D01*
X110795634Y-115839136D01*
X110964967Y-115797234D01*
X111025043Y-115782609D01*
X111071482Y-115771982D01*
X111106987Y-115764897D01*
X111134258Y-115760900D01*
X111155998Y-115759537D01*
X111174907Y-115760351D01*
X111180454Y-115760955D01*
X111198436Y-115764524D01*
X111221616Y-115771838D01*
X111251701Y-115783640D01*
X111290400Y-115800672D01*
X111339422Y-115823675D01*
X111400474Y-115853393D01*
X111451388Y-115878638D01*
X111676167Y-115990699D01*
X111793864Y-116010642D01*
X111841020Y-116018832D01*
X111875200Y-116025650D01*
X111900149Y-116032378D01*
X111919616Y-116040295D01*
X111937347Y-116050682D01*
X111957090Y-116064818D01*
X111960975Y-116067731D01*
X111986155Y-116087329D01*
X112006003Y-116104012D01*
X112016496Y-116114385D01*
X112016798Y-116114822D01*
X112021829Y-116124940D01*
X112032757Y-116148416D01*
X112048620Y-116183129D01*
X112068453Y-116226959D01*
X112091292Y-116277782D01*
X112116172Y-116333477D01*
X112116386Y-116333959D01*
X112209567Y-116543152D01*
X112332334Y-116632212D01*
X112372919Y-116660958D01*
X112409785Y-116685771D01*
X112440391Y-116705042D01*
X112462199Y-116717164D01*
X112472034Y-116720643D01*
X112485518Y-116719148D01*
X112512745Y-116715371D01*
X112550746Y-116709751D01*
X112596551Y-116702729D01*
X112645600Y-116694996D01*
X112802234Y-116669977D01*
X112920767Y-116589344D01*
X113002422Y-116533816D01*
X113071528Y-116486768D01*
X113129496Y-116447096D01*
X113177738Y-116413697D01*
X113217666Y-116385469D01*
X113250691Y-116361308D01*
X113278225Y-116340112D01*
X113301679Y-116320776D01*
X113322466Y-116302197D01*
X113341997Y-116283274D01*
X113361683Y-116262902D01*
X113382936Y-116239979D01*
X113407169Y-116213401D01*
X113420300Y-116198991D01*
X113458341Y-116157216D01*
X113494622Y-116117195D01*
X113526800Y-116081527D01*
X113552530Y-116052812D01*
X113569468Y-116033650D01*
X113570883Y-116032017D01*
X113602933Y-115994911D01*
X113588966Y-115911672D01*
X113579218Y-115862423D01*
X113567806Y-115824445D01*
X113552902Y-115792079D01*
X113547026Y-115781866D01*
X113514565Y-115722162D01*
X113493653Y-115669096D01*
X113482870Y-115618418D01*
X113480598Y-115582900D01*
X113486507Y-115523348D01*
X113505670Y-115474293D01*
X113538198Y-115435553D01*
X113584200Y-115406947D01*
X113589749Y-115404552D01*
X113617325Y-115390807D01*
X113631631Y-115376718D01*
X113636046Y-115358856D01*
X113636071Y-115357555D01*
X113630470Y-115348360D01*
X113614502Y-115328454D01*
X113589509Y-115299355D01*
X113556837Y-115262579D01*
X113517830Y-115219646D01*
X113473832Y-115172073D01*
X113437355Y-115133189D01*
X113378443Y-115070249D01*
X113329257Y-115016605D01*
X113290257Y-114972782D01*
X113261902Y-114939309D01*
X113244652Y-114916712D01*
X113238965Y-114905567D01*
X113241838Y-114891356D01*
X113249343Y-114864903D01*
X113260366Y-114829893D01*
X113273791Y-114790012D01*
X113274827Y-114787033D01*
X113310234Y-114685433D01*
X113457788Y-114661312D01*
X113512300Y-114652581D01*
X113553340Y-114646615D01*
X113584109Y-114643197D01*
X113607802Y-114642111D01*
X113627618Y-114643139D01*
X113646755Y-114646064D01*
X113655696Y-114647877D01*
X113698674Y-114661503D01*
X113739671Y-114681971D01*
X113747121Y-114686815D01*
X113770426Y-114702025D01*
X113788426Y-114712281D01*
X113795729Y-114715067D01*
X113802465Y-114707879D01*
X113813622Y-114688802D01*
X113827079Y-114661566D01*
X113830659Y-114653683D01*
X113845260Y-114625651D01*
X113867554Y-114588649D01*
X113895570Y-114545436D01*
X113927338Y-114498770D01*
X113960887Y-114451406D01*
X113994248Y-114406103D01*
X114025449Y-114365618D01*
X114052521Y-114332708D01*
X114073493Y-114310131D01*
X114080549Y-114303975D01*
X114100185Y-114291943D01*
X114131133Y-114276310D01*
X114168803Y-114259285D01*
X114200803Y-114246105D01*
X114243983Y-114227249D01*
X114298260Y-114200515D01*
X114360666Y-114167454D01*
X114428234Y-114129616D01*
X114467094Y-114106993D01*
X114641822Y-114003867D01*
X114705081Y-114003867D01*
X114723325Y-114004056D01*
X114739852Y-114005085D01*
X114756722Y-114007649D01*
X114775998Y-114012440D01*
X114799741Y-114020151D01*
X114830013Y-114031476D01*
X114868873Y-114047108D01*
X114918385Y-114067740D01*
X114980609Y-114094066D01*
X115008515Y-114105919D01*
X115069498Y-114132115D01*
X115126465Y-114157125D01*
X115177249Y-114179955D01*
X115219687Y-114199614D01*
X115251612Y-114215108D01*
X115270859Y-114225446D01*
X115274295Y-114227735D01*
X115288570Y-114239406D01*
X115313106Y-114260160D01*
X115345449Y-114287893D01*
X115383147Y-114320501D01*
X115423747Y-114355882D01*
X115426758Y-114358516D01*
X115470102Y-114396681D01*
X115503489Y-114425438D01*
X115530210Y-114445926D01*
X115553558Y-114459284D01*
X115576823Y-114466649D01*
X115603296Y-114469160D01*
X115636270Y-114467957D01*
X115679035Y-114464176D01*
X115720771Y-114460221D01*
X115822822Y-114450908D01*
X115925428Y-114377248D01*
X115962061Y-114351025D01*
X115994091Y-114328240D01*
X116018868Y-114310765D01*
X116033745Y-114300474D01*
X116036500Y-114298688D01*
X116048050Y-114297276D01*
X116072475Y-114297362D01*
X116105794Y-114298863D01*
X116131976Y-114300687D01*
X116218986Y-114307586D01*
X116321736Y-114405493D01*
X116356167Y-114437948D01*
X116386481Y-114465857D01*
X116410523Y-114487289D01*
X116426139Y-114500312D01*
X116431000Y-114503400D01*
X116439489Y-114497056D01*
X116452518Y-114481283D01*
X116456339Y-114475883D01*
X116484178Y-114439859D01*
X116517636Y-114406108D01*
X116559446Y-114372358D01*
X116612340Y-114336339D01*
X116658466Y-114307938D01*
X116773100Y-114239515D01*
X116874700Y-114099606D01*
X116909346Y-114052103D01*
X116936134Y-114016240D01*
X116957060Y-113989885D01*
X116974117Y-113970907D01*
X116989301Y-113957173D01*
X117004607Y-113946553D01*
X117022030Y-113936913D01*
X117031334Y-113932206D01*
X117049095Y-113923492D01*
X117064781Y-113916732D01*
X117080964Y-113911546D01*
X117100215Y-113907552D01*
X117125107Y-113904369D01*
X117158210Y-113901615D01*
X117202096Y-113898909D01*
X117259338Y-113895869D01*
X117285334Y-113894537D01*
X117484300Y-113884359D01*
X117535100Y-113906675D01*
X117566912Y-113922884D01*
X117596477Y-113941650D01*
X117612701Y-113954695D01*
X117639501Y-113980400D01*
X117659887Y-113947683D01*
X117671526Y-113928598D01*
X117689568Y-113898525D01*
X117711854Y-113861085D01*
X117736224Y-113819898D01*
X117745063Y-113804900D01*
X117771082Y-113761291D01*
X117791250Y-113729536D01*
X117807943Y-113706687D01*
X117823536Y-113689799D01*
X117840407Y-113675925D01*
X117859420Y-113663083D01*
X117887535Y-113646898D01*
X117912909Y-113635415D01*
X117929478Y-113631204D01*
X117949134Y-113628688D01*
X117958945Y-113624854D01*
X117966342Y-113617147D01*
X117983361Y-113598014D01*
X118008698Y-113568964D01*
X118041047Y-113531509D01*
X118079104Y-113487156D01*
X118121565Y-113437418D01*
X118161841Y-113390033D01*
X118207536Y-113336327D01*
X118250369Y-113286288D01*
X118288967Y-113241500D01*
X118321952Y-113203549D01*
X118347950Y-113174017D01*
X118365584Y-113154488D01*
X118372997Y-113146915D01*
X118385385Y-113139652D01*
X118411043Y-113126954D01*
X118447611Y-113109905D01*
X118492732Y-113089589D01*
X118544047Y-113067090D01*
X118583824Y-113050012D01*
X118643121Y-113025002D01*
X118689495Y-113005269D01*
X118725308Y-112988801D01*
X118752920Y-112973587D01*
X118774694Y-112957617D01*
X118792991Y-112938877D01*
X118810172Y-112915357D01*
X118828599Y-112885046D01*
X118850633Y-112845931D01*
X118875466Y-112801600D01*
X118898738Y-112760947D01*
X118919168Y-112727818D01*
X118938900Y-112700672D01*
X118960076Y-112677971D01*
X118984838Y-112658173D01*
X119015330Y-112639740D01*
X119053694Y-112621131D01*
X119102072Y-112600807D01*
X119162607Y-112577227D01*
X119215734Y-112557063D01*
X119271881Y-112535512D01*
X119322979Y-112515299D01*
X119366821Y-112497348D01*
X119401197Y-112482578D01*
X119423901Y-112471914D01*
X119432548Y-112466560D01*
X119438522Y-112452598D01*
X119445428Y-112427172D01*
X119451842Y-112395585D01*
X119452264Y-112393109D01*
X119455977Y-112368153D01*
X119457795Y-112345362D01*
X119457505Y-112321045D01*
X119454895Y-112291508D01*
X119449751Y-112253058D01*
X119441862Y-112202002D01*
X119440910Y-112196039D01*
X119432271Y-112139818D01*
X119426896Y-112094022D01*
X119425649Y-112055612D01*
X119429394Y-112021552D01*
X119438994Y-111988804D01*
X119455313Y-111954331D01*
X119479216Y-111915096D01*
X119511565Y-111868061D01*
X119548981Y-111816045D01*
X119649396Y-111677445D01*
X119733811Y-111654760D01*
X119818226Y-111632076D01*
X120052497Y-111735234D01*
X120113442Y-111762197D01*
X120171231Y-111788000D01*
X120223514Y-111811577D01*
X120267941Y-111831859D01*
X120302162Y-111847780D01*
X120323827Y-111858272D01*
X120327123Y-111859984D01*
X120346613Y-111872783D01*
X120369845Y-111892836D01*
X120398429Y-111921761D01*
X120433971Y-111961179D01*
X120474660Y-112008653D01*
X120526309Y-112071553D01*
X120566127Y-112123898D01*
X120594721Y-112166623D01*
X120612697Y-112200661D01*
X120620664Y-112226948D01*
X120621201Y-112234292D01*
X120624067Y-112245450D01*
X120635638Y-112250343D01*
X120654638Y-112251266D01*
X120666521Y-112250863D01*
X120676967Y-112248496D01*
X120687842Y-112242425D01*
X120701011Y-112230913D01*
X120718339Y-112212223D01*
X120741692Y-112184615D01*
X120772933Y-112146351D01*
X120790495Y-112124658D01*
X120837134Y-112069580D01*
X120887729Y-112014311D01*
X120939952Y-111961056D01*
X120991472Y-111912021D01*
X121039957Y-111869412D01*
X121083078Y-111835436D01*
X121118503Y-111812297D01*
X121123068Y-111809868D01*
X121144398Y-111801079D01*
X121177333Y-111789985D01*
X121216993Y-111778149D01*
X121250068Y-111769249D01*
X121290502Y-111758646D01*
X121327096Y-111748538D01*
X121355408Y-111740181D01*
X121369501Y-111735450D01*
X121385879Y-111728072D01*
X121388278Y-111720714D01*
X121378553Y-111707389D01*
X121378286Y-111707068D01*
X121364737Y-111691592D01*
X121343856Y-111668683D01*
X121320022Y-111643143D01*
X121318626Y-111641667D01*
X121291785Y-111610581D01*
X121273930Y-111581507D01*
X121260416Y-111546413D01*
X121256989Y-111535137D01*
X121239396Y-111475173D01*
X121262615Y-111360327D01*
X121272302Y-111313623D01*
X121280333Y-111279729D01*
X121288152Y-111254806D01*
X121297202Y-111235018D01*
X121308924Y-111216525D01*
X121324426Y-111195923D01*
X121363018Y-111146367D01*
X121565726Y-111054328D01*
X121647878Y-111016571D01*
X121728560Y-110978626D01*
X121806286Y-110941256D01*
X121879572Y-110905225D01*
X121946932Y-110871294D01*
X122006880Y-110840227D01*
X122057932Y-110812786D01*
X122098601Y-110789734D01*
X122127402Y-110771834D01*
X122142851Y-110759848D01*
X122144952Y-110756900D01*
X122148041Y-110741793D01*
X122151487Y-110714032D01*
X122154824Y-110677879D01*
X122157091Y-110645938D01*
X122162889Y-110551909D01*
X122140359Y-110537147D01*
X122129147Y-110530573D01*
X122118047Y-110527518D01*
X122103141Y-110528260D01*
X122080508Y-110533078D01*
X122046230Y-110542251D01*
X122038499Y-110544392D01*
X122003051Y-110553889D01*
X121972981Y-110561327D01*
X121952536Y-110565685D01*
X121946849Y-110566400D01*
X121933432Y-110561801D01*
X121910354Y-110549579D01*
X121881189Y-110532090D01*
X121849513Y-110511694D01*
X121818899Y-110490750D01*
X121792923Y-110471617D01*
X121775159Y-110456652D01*
X121769245Y-110449207D01*
X121766356Y-110435504D01*
X121761626Y-110409055D01*
X121755748Y-110373855D01*
X121750282Y-110339516D01*
X121743860Y-110295562D01*
X121740592Y-110264497D01*
X121740353Y-110242598D01*
X121743018Y-110226141D01*
X121746190Y-110216749D01*
X121756445Y-110190754D01*
X121768159Y-110160730D01*
X121770584Y-110154470D01*
X121784178Y-110119307D01*
X121744715Y-110075415D01*
X121697007Y-110016234D01*
X121647956Y-109943907D01*
X121599833Y-109861829D01*
X121591057Y-109845553D01*
X121573240Y-109810014D01*
X121560591Y-109778178D01*
X121553139Y-109747213D01*
X121550909Y-109714283D01*
X121553930Y-109676557D01*
X121562226Y-109631201D01*
X121575826Y-109575380D01*
X121594247Y-109508066D01*
X121609366Y-109456351D01*
X121624597Y-109407828D01*
X121638813Y-109365830D01*
X121650888Y-109333693D01*
X121659359Y-109315321D01*
X121680399Y-109279208D01*
X121631896Y-109224304D01*
X121609225Y-109199528D01*
X121590381Y-109180564D01*
X121578360Y-109170365D01*
X121576157Y-109169400D01*
X121557800Y-109165443D01*
X121529105Y-109154901D01*
X121494333Y-109139767D01*
X121457746Y-109122035D01*
X121423607Y-109103698D01*
X121396176Y-109086748D01*
X121390068Y-109082365D01*
X121350662Y-109050198D01*
X121319149Y-109017813D01*
X121294286Y-108982500D01*
X121274829Y-108941546D01*
X121259532Y-108892242D01*
X121247152Y-108831877D01*
X121236445Y-108757739D01*
X121234748Y-108743950D01*
X121228716Y-108695511D01*
X121223838Y-108661431D01*
X121219482Y-108639227D01*
X121215016Y-108626419D01*
X121209809Y-108620527D01*
X121203229Y-108619068D01*
X121202957Y-108619066D01*
X121191228Y-108620350D01*
%LPC*%
D15*
X114200140Y-100500000D03*
X108200660Y-100500000D03*
X111200400Y-105199000D03*
D16*
X123920000Y-126200000D03*
X129000000Y-126200000D03*
D17*
X118840000Y-126200000D03*
D16*
X134080000Y-126200000D03*
X139160000Y-126200000D03*
D18*
X107800000Y-111260000D03*
D19*
X107800000Y-116340000D03*
D20*
X150000000Y-105250000D03*
D21*
X150000000Y-107790000D03*
D20*
X150000000Y-113750000D03*
D21*
X150000000Y-116290000D03*
D20*
X150000000Y-96800000D03*
D21*
X150000000Y-99340000D03*
D22*
X109000000Y-85000000D03*
X109000000Y-125000000D03*
X149000000Y-125000000D03*
X149000000Y-85000000D03*
M02*
