M48
;DRILL file {KiCad 4.0.2+dfsg1-stable} date gio 28 lug 2016 19:17:52 CEST
;FORMAT={2:4/ absolute / inch / keep zeros}
FMAT,2
INCH,TZ
T1C0.014
T2C0.016
T3C0.020
T4C0.028
T5C0.040
T6C0.060
T7C0.098
T8C0.126
%
G90
G05
M72
T1
X050354Y-036260
X050354Y-036969
X050472Y-036614
X050787Y-036299
X050787Y-036614
X050787Y-036929
X051102Y-036614
X051220Y-036260
X051220Y-036969
T2
X050236Y-034685
X050354Y-034291
X050827Y-034291
X051969Y-032776
X054469Y-034724
X054469Y-036772
X054469Y-038150
X057047Y-035728
X057047Y-037067
X057047Y-038465
T3
X057185Y-045768
X057657Y-042441
T4
X047736Y-038583
X052854Y-038583
T5
X059055Y-038110
X059055Y-039110
X059055Y-041437
X059055Y-042437
X059055Y-044783
X059055Y-045783
T6
X042441Y-043803
X042441Y-045803
X046787Y-049685
X048787Y-049685
X050787Y-049685
X052787Y-049685
X054787Y-049685
T7
X042599Y-039567
X043780Y-041417
X044961Y-039567
T8
X042913Y-033465
X042913Y-049213
X058661Y-033465
X058661Y-049213
T0
M30
