G04 #@! TF.FileFunction,Soldermask,Top*
%FSLAX46Y46*%
G04 Gerber Fmt 4.6, Leading zero omitted, Abs format (unit mm)*
G04 Created by KiCad (PCBNEW 4.0.2+dfsg1-stable) date gio 28 lug 2016 18:48:22 CEST*
%MOMM*%
G01*
G04 APERTURE LIST*
%ADD10C,0.100000*%
%ADD11R,1.650000X1.400000*%
%ADD12R,3.900120X3.900120*%
%ADD13R,3.000000X3.600000*%
%ADD14C,4.210000*%
%ADD15R,4.210000X4.210000*%
%ADD16R,1.400000X1.650000*%
%ADD17R,1.598880X1.598880*%
%ADD18R,2.400000X3.600000*%
%ADD19R,6.400000X3.400000*%
%ADD20R,2.940000X2.940000*%
%ADD21C,2.940000*%
%ADD22R,2.432000X2.432000*%
%ADD23O,2.432000X2.432000*%
%ADD24R,1.700000X1.100000*%
%ADD25R,1.100000X1.700000*%
%ADD26R,3.150000X1.400000*%
%ADD27C,6.800000*%
%ADD28R,3.600000X3.000000*%
%ADD29R,0.800000X1.500000*%
%ADD30R,3.650000X3.140000*%
G04 APERTURE END LIST*
D10*
D11*
X143100000Y-116300000D03*
X143100000Y-114300000D03*
D12*
X114200140Y-100500000D03*
X108200660Y-100500000D03*
X111200400Y-105199000D03*
D13*
X113400000Y-92000000D03*
X120600000Y-92000000D03*
D14*
X123920000Y-126200000D03*
X129000000Y-126200000D03*
D15*
X118840000Y-126200000D03*
D14*
X134080000Y-126200000D03*
X139160000Y-126200000D03*
D11*
X123500000Y-90000000D03*
X123500000Y-88000000D03*
X134450000Y-93700000D03*
X134450000Y-95700000D03*
X123500000Y-93800000D03*
X123500000Y-95800000D03*
X134450000Y-91050000D03*
X134450000Y-89050000D03*
D16*
X145350000Y-92550000D03*
X143350000Y-92550000D03*
D11*
X124500000Y-118000000D03*
X124500000Y-120000000D03*
X124500000Y-116000000D03*
X124500000Y-114000000D03*
D16*
X145350000Y-96000000D03*
X143350000Y-96000000D03*
D11*
X115000000Y-118000000D03*
X115000000Y-120000000D03*
X115000000Y-116000000D03*
X115000000Y-114000000D03*
D16*
X145350000Y-89100000D03*
X143350000Y-89100000D03*
D11*
X134000000Y-118000000D03*
X134000000Y-120000000D03*
X134000000Y-116000000D03*
X134000000Y-114000000D03*
D17*
X116950980Y-82600000D03*
X119049020Y-82600000D03*
X149999020Y-110200000D03*
X147900980Y-110200000D03*
X150049020Y-118700000D03*
X147950980Y-118700000D03*
X150049020Y-101750000D03*
X147950980Y-101750000D03*
D18*
X121900000Y-84950000D03*
X124900000Y-84950000D03*
D19*
X129000000Y-114600000D03*
X129000000Y-119400000D03*
X119500000Y-114600000D03*
X119500000Y-119400000D03*
X138500000Y-114600000D03*
X138500000Y-119400000D03*
D20*
X107800000Y-111260000D03*
D21*
X107800000Y-116340000D03*
D22*
X150000000Y-105250000D03*
D23*
X150000000Y-107790000D03*
D22*
X150000000Y-113750000D03*
D23*
X150000000Y-116290000D03*
D22*
X150000000Y-96800000D03*
D23*
X150000000Y-99340000D03*
D24*
X132100000Y-84900000D03*
X132100000Y-86800000D03*
X143700000Y-85800000D03*
X143700000Y-83900000D03*
D25*
X108550000Y-92000000D03*
X110450000Y-92000000D03*
X129950000Y-83200000D03*
X128050000Y-83200000D03*
X129950000Y-85300000D03*
X128050000Y-85300000D03*
D24*
X141550000Y-94450000D03*
X141550000Y-92550000D03*
X137250000Y-92550000D03*
X137250000Y-94450000D03*
X139400000Y-94450000D03*
X139400000Y-92550000D03*
X146000000Y-112100000D03*
X146000000Y-110200000D03*
X141550000Y-97900000D03*
X141550000Y-96000000D03*
X137250000Y-97900000D03*
X137250000Y-96000000D03*
X139450000Y-97900000D03*
X139450000Y-96000000D03*
X146000000Y-120600000D03*
X146000000Y-118700000D03*
X141550000Y-91000000D03*
X141550000Y-89100000D03*
X137250000Y-89100000D03*
X137250000Y-91000000D03*
X139400000Y-91000000D03*
X139400000Y-89100000D03*
X146000000Y-103650000D03*
X146000000Y-101750000D03*
D26*
X135525000Y-86800000D03*
X141275000Y-86800000D03*
X141275000Y-82800000D03*
X135525000Y-82800000D03*
D27*
X109000000Y-85000000D03*
X109000000Y-125000000D03*
X149000000Y-125000000D03*
X149000000Y-85000000D03*
D28*
X129000000Y-103900000D03*
X129000000Y-111100000D03*
X119500000Y-103900000D03*
X119500000Y-111100000D03*
X138500000Y-103900000D03*
X138500000Y-111100000D03*
D29*
X125425000Y-95850000D03*
X126075000Y-95850000D03*
X126725000Y-95850000D03*
X127375000Y-95850000D03*
X128025000Y-95850000D03*
X128675000Y-95850000D03*
X129325000Y-95850000D03*
X129975000Y-95850000D03*
X130625000Y-95850000D03*
X131275000Y-95850000D03*
X131925000Y-95850000D03*
X132575000Y-95850000D03*
X132575000Y-90150000D03*
X131925000Y-90150000D03*
X131275000Y-90150000D03*
X130625000Y-90150000D03*
X129975000Y-90150000D03*
X129325000Y-90150000D03*
X128675000Y-90150000D03*
X128025000Y-90150000D03*
X127375000Y-90150000D03*
X126725000Y-90150000D03*
X126075000Y-90150000D03*
X125425000Y-90150000D03*
D30*
X129000000Y-93000000D03*
D25*
X117160000Y-85090000D03*
X119060000Y-85090000D03*
D24*
X143100000Y-117850000D03*
X143100000Y-119750000D03*
M02*
