G04 #@! TF.FileFunction,Copper,L1,Top,Signal*
%FSLAX46Y46*%
G04 Gerber Fmt 4.6, Leading zero omitted, Abs format (unit mm)*
G04 Created by KiCad (PCBNEW 4.0.2+dfsg1-stable) date gio 28 lug 2016 18:48:22 CEST*
%MOMM*%
G01*
G04 APERTURE LIST*
%ADD10C,0.100000*%
%ADD11R,1.250000X1.000000*%
%ADD12R,3.500120X3.500120*%
%ADD13R,2.600000X3.200000*%
%ADD14C,3.810000*%
%ADD15R,3.810000X3.810000*%
%ADD16R,1.000000X1.250000*%
%ADD17R,1.198880X1.198880*%
%ADD18R,2.000000X3.200000*%
%ADD19R,6.000000X3.000000*%
%ADD20R,2.540000X2.540000*%
%ADD21C,2.540000*%
%ADD22R,2.032000X2.032000*%
%ADD23O,2.032000X2.032000*%
%ADD24R,1.300000X0.700000*%
%ADD25R,0.700000X1.300000*%
%ADD26R,2.750000X1.000000*%
%ADD27C,6.400000*%
%ADD28R,3.200000X2.600000*%
%ADD29R,0.400000X1.100000*%
%ADD30R,3.250000X2.740000*%
%ADD31C,1.400000*%
%ADD32C,0.700000*%
%ADD33C,0.800000*%
%ADD34C,1.000000*%
%ADD35C,0.500000*%
%ADD36C,0.400000*%
%ADD37C,0.800000*%
%ADD38C,0.420000*%
%ADD39C,1.000000*%
%ADD40C,0.600000*%
%ADD41C,0.450000*%
%ADD42C,0.350000*%
%ADD43C,0.250000*%
%ADD44C,3.500000*%
%ADD45C,2.500000*%
%ADD46C,1.500000*%
%ADD47C,0.254000*%
G04 APERTURE END LIST*
D10*
D11*
X143100000Y-116300000D03*
X143100000Y-114300000D03*
D12*
X114200140Y-100500000D03*
X108200660Y-100500000D03*
X111200400Y-105199000D03*
D13*
X113400000Y-92000000D03*
X120600000Y-92000000D03*
D14*
X123920000Y-126200000D03*
X129000000Y-126200000D03*
D15*
X118840000Y-126200000D03*
D14*
X134080000Y-126200000D03*
X139160000Y-126200000D03*
D11*
X123500000Y-90000000D03*
X123500000Y-88000000D03*
X134450000Y-93700000D03*
X134450000Y-95700000D03*
X123500000Y-93800000D03*
X123500000Y-95800000D03*
X134450000Y-91050000D03*
X134450000Y-89050000D03*
D16*
X145350000Y-92550000D03*
X143350000Y-92550000D03*
D11*
X124500000Y-118000000D03*
X124500000Y-120000000D03*
X124500000Y-116000000D03*
X124500000Y-114000000D03*
D16*
X145350000Y-96000000D03*
X143350000Y-96000000D03*
D11*
X115000000Y-118000000D03*
X115000000Y-120000000D03*
X115000000Y-116000000D03*
X115000000Y-114000000D03*
D16*
X145350000Y-89100000D03*
X143350000Y-89100000D03*
D11*
X134000000Y-118000000D03*
X134000000Y-120000000D03*
X134000000Y-116000000D03*
X134000000Y-114000000D03*
D17*
X116950980Y-82600000D03*
X119049020Y-82600000D03*
X149999020Y-110200000D03*
X147900980Y-110200000D03*
X150049020Y-118700000D03*
X147950980Y-118700000D03*
X150049020Y-101750000D03*
X147950980Y-101750000D03*
D18*
X121900000Y-84950000D03*
X124900000Y-84950000D03*
D19*
X129000000Y-114600000D03*
X129000000Y-119400000D03*
X119500000Y-114600000D03*
X119500000Y-119400000D03*
X138500000Y-114600000D03*
X138500000Y-119400000D03*
D20*
X107800000Y-111260000D03*
D21*
X107800000Y-116340000D03*
D22*
X150000000Y-105250000D03*
D23*
X150000000Y-107790000D03*
D22*
X150000000Y-113750000D03*
D23*
X150000000Y-116290000D03*
D22*
X150000000Y-96800000D03*
D23*
X150000000Y-99340000D03*
D24*
X132100000Y-84900000D03*
X132100000Y-86800000D03*
X143700000Y-85800000D03*
X143700000Y-83900000D03*
D25*
X108550000Y-92000000D03*
X110450000Y-92000000D03*
X129950000Y-83200000D03*
X128050000Y-83200000D03*
X129950000Y-85300000D03*
X128050000Y-85300000D03*
D24*
X141550000Y-94450000D03*
X141550000Y-92550000D03*
X137250000Y-92550000D03*
X137250000Y-94450000D03*
X139400000Y-94450000D03*
X139400000Y-92550000D03*
X146000000Y-112100000D03*
X146000000Y-110200000D03*
X141550000Y-97900000D03*
X141550000Y-96000000D03*
X137250000Y-97900000D03*
X137250000Y-96000000D03*
X139450000Y-97900000D03*
X139450000Y-96000000D03*
X146000000Y-120600000D03*
X146000000Y-118700000D03*
X141550000Y-91000000D03*
X141550000Y-89100000D03*
X137250000Y-89100000D03*
X137250000Y-91000000D03*
X139400000Y-91000000D03*
X139400000Y-89100000D03*
X146000000Y-103650000D03*
X146000000Y-101750000D03*
D26*
X135525000Y-86800000D03*
X141275000Y-86800000D03*
X141275000Y-82800000D03*
X135525000Y-82800000D03*
D27*
X109000000Y-85000000D03*
X109000000Y-125000000D03*
X149000000Y-125000000D03*
X149000000Y-85000000D03*
D28*
X129000000Y-103900000D03*
X129000000Y-111100000D03*
X119500000Y-103900000D03*
X119500000Y-111100000D03*
X138500000Y-103900000D03*
X138500000Y-111100000D03*
D29*
X125425000Y-95850000D03*
X126075000Y-95850000D03*
X126725000Y-95850000D03*
X127375000Y-95850000D03*
X128025000Y-95850000D03*
X128675000Y-95850000D03*
X129325000Y-95850000D03*
X129975000Y-95850000D03*
X130625000Y-95850000D03*
X131275000Y-95850000D03*
X131925000Y-95850000D03*
X132575000Y-95850000D03*
X132575000Y-90150000D03*
X131925000Y-90150000D03*
X131275000Y-90150000D03*
X130625000Y-90150000D03*
X129975000Y-90150000D03*
X129325000Y-90150000D03*
X128675000Y-90150000D03*
X128025000Y-90150000D03*
X127375000Y-90150000D03*
X126725000Y-90150000D03*
X126075000Y-90150000D03*
X125425000Y-90150000D03*
D30*
X129000000Y-93000000D03*
D25*
X117160000Y-85090000D03*
X119060000Y-85090000D03*
D24*
X143100000Y-117850000D03*
X143100000Y-119750000D03*
D31*
X134250000Y-98000000D03*
X121250000Y-98000000D03*
D32*
X130100000Y-93900000D03*
X129000000Y-92200000D03*
X129000000Y-93800000D03*
X128200000Y-93000000D03*
X129800000Y-93000000D03*
X127900000Y-92100000D03*
X127900000Y-93900000D03*
X129000000Y-93000000D03*
X130100000Y-92100000D03*
D33*
X144900000Y-94150000D03*
D34*
X146450000Y-107800000D03*
D33*
X127900000Y-87100000D03*
X138350000Y-93400000D03*
X144900000Y-97700000D03*
D34*
X145250000Y-116250000D03*
D33*
X138350000Y-96900000D03*
X127600000Y-88100000D03*
X144900000Y-90750000D03*
X138350000Y-88200000D03*
X129100000Y-87100000D03*
X132000000Y-83250000D03*
D35*
X119060000Y-85090000D02*
X121760000Y-85090000D01*
X121760000Y-85090000D02*
X121900000Y-84950000D01*
D36*
X132575000Y-95850000D02*
X134150000Y-95850000D01*
X134150000Y-95850000D02*
X134450000Y-95550000D01*
D37*
X121900000Y-84950000D02*
X121350000Y-85500000D01*
X121350000Y-85500000D02*
X121350000Y-91250000D01*
X121350000Y-91250000D02*
X120600000Y-92000000D01*
D38*
X123500000Y-95800000D02*
X125375000Y-95800000D01*
D37*
X123400000Y-95900000D02*
X123500000Y-95800000D01*
X120600000Y-95900000D02*
X123400000Y-95900000D01*
D39*
X120600000Y-95900000D02*
X120600000Y-92000000D01*
D37*
X120600000Y-92000000D02*
X122750000Y-92000000D01*
X123500000Y-91250000D02*
X123500000Y-90000000D01*
X122750000Y-92000000D02*
X123500000Y-91250000D01*
D40*
X122250000Y-84400000D02*
X121750000Y-84900000D01*
D41*
X131925000Y-95850000D02*
X131925000Y-96425000D01*
D42*
X133500000Y-98000000D02*
X134250000Y-98000000D01*
D41*
X131925000Y-96425000D02*
X133500000Y-98000000D01*
D35*
X132575000Y-95850000D02*
X132575000Y-96825000D01*
D42*
X132575000Y-96825000D02*
X133750000Y-98000000D01*
X133750000Y-98000000D02*
X134250000Y-98000000D01*
D39*
X120600000Y-97350000D02*
X121250000Y-98000000D01*
X120600000Y-97350000D02*
X120600000Y-95900000D01*
D43*
X121500000Y-92000000D02*
X120600000Y-92000000D01*
X122250000Y-84400000D02*
X121500000Y-85150000D01*
X121500000Y-91100000D02*
X120600000Y-92000000D01*
D42*
X123750000Y-87750000D02*
X124750000Y-87750000D01*
X125425000Y-88425000D02*
X125425000Y-90150000D01*
X124750000Y-87750000D02*
X125425000Y-88425000D01*
D43*
X123750000Y-87750000D02*
X123500000Y-88000000D01*
D35*
X135750000Y-95800000D02*
X135750000Y-94700000D01*
X135950000Y-96000000D02*
X135750000Y-95800000D01*
X137250000Y-96000000D02*
X135950000Y-96000000D01*
X135750000Y-94700000D02*
X136000000Y-94450000D01*
X134450000Y-93700000D02*
X135650000Y-93700000D01*
X136000000Y-94450000D02*
X135850000Y-94300000D01*
X136000000Y-94450000D02*
X137250000Y-94450000D01*
X135850000Y-93850000D02*
X135850000Y-94300000D01*
X135700000Y-93700000D02*
X135850000Y-93850000D01*
X135650000Y-93700000D02*
X135700000Y-93700000D01*
X135750000Y-91000000D02*
X135700000Y-91050000D01*
X135700000Y-91050000D02*
X134450000Y-91050000D01*
X137250000Y-91000000D02*
X135750000Y-91000000D01*
X140450000Y-83000000D02*
X141100000Y-83000000D01*
D36*
X126725000Y-90150000D02*
X126725000Y-92225000D01*
D42*
X130100000Y-93900000D02*
X129200000Y-93000000D01*
X129000000Y-92200000D02*
X129000000Y-93000000D01*
X129000000Y-93800000D02*
X129000000Y-93000000D01*
X128200000Y-93000000D02*
X129000000Y-93000000D01*
X129800000Y-93000000D02*
X129000000Y-93000000D01*
X127900000Y-92100000D02*
X128100000Y-92100000D01*
X127900000Y-93900000D02*
X128100000Y-93900000D01*
X130100000Y-92100000D02*
X129200000Y-93000000D01*
X129200000Y-93000000D02*
X129000000Y-93000000D01*
X129500000Y-93000000D02*
X129000000Y-93000000D01*
X134150000Y-88750000D02*
X133500000Y-88750000D01*
X133250000Y-88750000D02*
X132500000Y-88750000D01*
X133250000Y-88750000D02*
X133500000Y-88750000D01*
X134150000Y-88750000D02*
X134450000Y-89050000D01*
X132575000Y-90150000D02*
X132575000Y-88750000D01*
D43*
X132575000Y-88750000D02*
X132500000Y-88750000D01*
D42*
X131925000Y-90150000D02*
X131925000Y-88750000D01*
X131925000Y-88750000D02*
X132000000Y-88750000D01*
X131275000Y-90150000D02*
X131275000Y-89225000D01*
X131750000Y-88750000D02*
X132000000Y-88750000D01*
X132000000Y-88750000D02*
X132500000Y-88750000D01*
X131275000Y-89225000D02*
X131750000Y-88750000D01*
D35*
X144900000Y-94150000D02*
X144925000Y-94175000D01*
X144925000Y-94175000D02*
X144900000Y-94150000D01*
X144900000Y-94150000D02*
X144900000Y-94200000D01*
D36*
X144350000Y-94450000D02*
X144650000Y-94450000D01*
X145350000Y-93500000D02*
X145350000Y-92550000D01*
X145350000Y-93750000D02*
X145350000Y-93500000D01*
X144650000Y-94450000D02*
X144900000Y-94200000D01*
X144900000Y-94200000D02*
X145350000Y-93750000D01*
X141550000Y-94450000D02*
X142550000Y-94450000D01*
X142550000Y-94450000D02*
X144350000Y-94450000D01*
X144350000Y-94450000D02*
X144400000Y-94450000D01*
X139400000Y-94450000D02*
X141550000Y-94450000D01*
D40*
X150000000Y-107790000D02*
X146460000Y-107790000D01*
X146460000Y-107790000D02*
X146450000Y-107800000D01*
X149999020Y-110200000D02*
X149999020Y-107790980D01*
X149999020Y-107790980D02*
X150000000Y-107790000D01*
D44*
X129000000Y-126200000D02*
X129000000Y-121000000D01*
D37*
X124500000Y-116000000D02*
X124500000Y-118000000D01*
X124500000Y-118000000D02*
X127600000Y-118000000D01*
X127600000Y-118000000D02*
X129000000Y-119400000D01*
D43*
X127600000Y-118000000D02*
X129000000Y-119400000D01*
X149960000Y-107750000D02*
X150000000Y-107790000D01*
D36*
X139400000Y-92550000D02*
X138400000Y-93400000D01*
D42*
X128675000Y-87925000D02*
X128675000Y-87875000D01*
X128675000Y-87925000D02*
X128675000Y-90150000D01*
X128675000Y-87875000D02*
X127900000Y-87100000D01*
D36*
X138350000Y-93400000D02*
X138400000Y-93400000D01*
X141550000Y-92550000D02*
X143350000Y-92550000D01*
X139400000Y-92550000D02*
X141550000Y-92550000D01*
X137250000Y-92550000D02*
X138500000Y-92550000D01*
X138500000Y-92550000D02*
X139400000Y-92550000D01*
D43*
X128675000Y-90150000D02*
X128650000Y-90125000D01*
D36*
X141550000Y-97900000D02*
X144700000Y-97900000D01*
X145350000Y-97250000D02*
X145350000Y-96000000D01*
X144700000Y-97900000D02*
X145350000Y-97250000D01*
X139450000Y-97900000D02*
X141550000Y-97900000D01*
D40*
X150000000Y-116290000D02*
X145290000Y-116290000D01*
X145290000Y-116290000D02*
X145250000Y-116250000D01*
X150049020Y-118700000D02*
X150049020Y-116339020D01*
X150049020Y-116339020D02*
X150000000Y-116290000D01*
D37*
X115000000Y-116000000D02*
X115000000Y-118000000D01*
X115000000Y-118000000D02*
X118100000Y-118000000D01*
X118100000Y-118000000D02*
X119500000Y-119400000D01*
D44*
X118840000Y-126250000D02*
X118840000Y-120060000D01*
D45*
X118840000Y-120060000D02*
X119500000Y-119400000D01*
D43*
X118840000Y-120060000D02*
X119500000Y-119400000D01*
X118100000Y-118000000D02*
X119500000Y-119400000D01*
D36*
X138350000Y-96900000D02*
X139250000Y-96000000D01*
D35*
X139250000Y-96000000D02*
X139450000Y-96000000D01*
D36*
X137250000Y-97900000D02*
X138250000Y-96900000D01*
D35*
X138250000Y-96900000D02*
X138350000Y-96900000D01*
D36*
X141550000Y-96000000D02*
X143350000Y-96000000D01*
X139450000Y-96000000D02*
X141550000Y-96000000D01*
D42*
X127650000Y-88100000D02*
X127850000Y-88300000D01*
X128025000Y-88475000D02*
X128025000Y-90150000D01*
X128025000Y-88475000D02*
X127850000Y-88300000D01*
X127650000Y-88100000D02*
X127600000Y-88100000D01*
D40*
X144900000Y-90750000D02*
X144950000Y-90700000D01*
D36*
X143050000Y-91000000D02*
X144650000Y-91000000D01*
X141550000Y-91000000D02*
X143050000Y-91000000D01*
X144650000Y-91000000D02*
X144950000Y-90700000D01*
X145350000Y-90300000D02*
X145350000Y-89100000D01*
X144950000Y-90700000D02*
X145350000Y-90300000D01*
X139400000Y-91000000D02*
X141550000Y-91000000D01*
D40*
X150049020Y-101750000D02*
X150049020Y-99389020D01*
X150049020Y-99389020D02*
X150000000Y-99340000D01*
X143100000Y-119750000D02*
X138850000Y-119750000D01*
X138850000Y-119750000D02*
X138500000Y-119400000D01*
D37*
X134000000Y-118000000D02*
X137100000Y-118000000D01*
X137100000Y-118000000D02*
X138500000Y-119400000D01*
D44*
X139160000Y-126250000D02*
X139160000Y-120060000D01*
D37*
X134000000Y-116000000D02*
X134000000Y-118000000D01*
D43*
X139160000Y-120060000D02*
X138500000Y-119400000D01*
X149960000Y-99300000D02*
X150000000Y-99340000D01*
X139000000Y-126090000D02*
X139160000Y-126250000D01*
D36*
X138350000Y-88200000D02*
X138350000Y-89100000D01*
D42*
X138350000Y-88200000D02*
X138400000Y-88250000D01*
D36*
X141550000Y-89100000D02*
X143550000Y-89100000D01*
X143550000Y-89100000D02*
X143600000Y-89050000D01*
X139400000Y-89100000D02*
X141550000Y-89100000D01*
X137250000Y-89100000D02*
X138350000Y-89100000D01*
X138350000Y-89100000D02*
X139400000Y-89100000D01*
D42*
X129100000Y-87100000D02*
X129250000Y-87250000D01*
X129325000Y-90150000D02*
X129325000Y-87325000D01*
D43*
X129325000Y-90150000D02*
X129350000Y-90125000D01*
D36*
X132000000Y-84800000D02*
X132000000Y-83250000D01*
D35*
X132000000Y-84800000D02*
X132100000Y-84900000D01*
D40*
X110450000Y-92000000D02*
X113400000Y-92000000D01*
D39*
X108410000Y-116340000D02*
X114750000Y-110000000D01*
X114750000Y-110000000D02*
X114750000Y-101049860D01*
X108410000Y-116340000D02*
X107800000Y-116340000D01*
X114750000Y-101049860D02*
X114200140Y-100500000D01*
X114200140Y-100500000D02*
X113400000Y-99699860D01*
D46*
X113400000Y-99699860D02*
X113400000Y-92000000D01*
D35*
X116950980Y-82600000D02*
X116950980Y-84880980D01*
X116950980Y-84880980D02*
X117160000Y-85090000D01*
D36*
X116600980Y-82250000D02*
X116950980Y-82600000D01*
D42*
X126750000Y-88350000D02*
X126750000Y-88600000D01*
X126750000Y-83100000D02*
X126050000Y-82400000D01*
X119249020Y-82400000D02*
X126050000Y-82400000D01*
X126750000Y-87450000D02*
X126750000Y-84000000D01*
X126750000Y-88350000D02*
X126750000Y-88200000D01*
X126750000Y-88200000D02*
X126750000Y-87450000D01*
X126750000Y-84000000D02*
X126750000Y-83100000D01*
X126750000Y-88600000D02*
X127375000Y-89225000D01*
X127375000Y-90150000D02*
X127375000Y-89225000D01*
X119249020Y-82400000D02*
X119049020Y-82600000D01*
D41*
X128675000Y-95850000D02*
X128675000Y-98325000D01*
X128675000Y-98325000D02*
X128200000Y-98800000D01*
D37*
X128200000Y-98800000D02*
X126000000Y-101000000D01*
X126000000Y-101000000D02*
X126000000Y-108100000D01*
X126000000Y-108100000D02*
X129000000Y-111100000D01*
D45*
X129000000Y-114600000D02*
X129000000Y-111100000D01*
D38*
X129325000Y-95850000D02*
X129325000Y-99000000D01*
D37*
X129325000Y-99000000D02*
X129325000Y-103575000D01*
D35*
X129325000Y-103575000D02*
X129000000Y-103900000D01*
D40*
X147900980Y-110200000D02*
X146000000Y-110200000D01*
D38*
X128025000Y-96850000D02*
X128025000Y-97275000D01*
X128025000Y-95850000D02*
X128025000Y-96800000D01*
X128025000Y-96850000D02*
X128025000Y-96800000D01*
X127600000Y-97700000D02*
X127600000Y-97500000D01*
X128025000Y-97275000D02*
X127600000Y-97700000D01*
D37*
X127050000Y-98050000D02*
X127600000Y-97500000D01*
X127600000Y-97500000D02*
X127700000Y-97400000D01*
X119500000Y-111100000D02*
X123000000Y-107600000D01*
X123000000Y-102900000D02*
X123000000Y-107600000D01*
X123000000Y-102900000D02*
X123000000Y-102100000D01*
X123000000Y-102100000D02*
X127050000Y-98050000D01*
D38*
X127375000Y-95850000D02*
X127375000Y-97400000D01*
D45*
X119500000Y-114600000D02*
X119500000Y-111100000D01*
D37*
X125250000Y-98150000D02*
X119500000Y-103900000D01*
D38*
X126725000Y-96675000D02*
X126200000Y-97200000D01*
D37*
X126200000Y-97200000D02*
X125250000Y-98150000D01*
D38*
X126725000Y-95850000D02*
X126725000Y-96675000D01*
D40*
X147950980Y-118700000D02*
X146000000Y-118700000D01*
D38*
X130625000Y-95850000D02*
X130625000Y-96875000D01*
X130625000Y-96875000D02*
X131125000Y-97375000D01*
D37*
X131125000Y-97375000D02*
X137150000Y-103400000D01*
D40*
X146550000Y-101750000D02*
X147950980Y-101750000D01*
D36*
X126075000Y-90150000D02*
X126075000Y-87825000D01*
X126075000Y-87825000D02*
X124900000Y-86550000D01*
X124900000Y-86550000D02*
X124900000Y-84950000D01*
X135525000Y-86800000D02*
X141275000Y-86800000D01*
X141275000Y-86800000D02*
X143350000Y-86800000D01*
X143350000Y-86800000D02*
X143700000Y-86450000D01*
X143700000Y-86450000D02*
X143700000Y-85800000D01*
X132100000Y-86800000D02*
X135525000Y-86800000D01*
D42*
X130625000Y-88900000D02*
X130625000Y-88275000D01*
X130625000Y-88275000D02*
X132100000Y-86800000D01*
X130625000Y-90150000D02*
X130625000Y-88900000D01*
X130625000Y-88900000D02*
X130625000Y-88875000D01*
X129950000Y-85300000D02*
X129950000Y-83100000D01*
X129975000Y-90150000D02*
X129975000Y-85325000D01*
D43*
X129975000Y-85325000D02*
X129950000Y-85300000D01*
X129975000Y-85325000D02*
X129950000Y-85300000D01*
D40*
X143100000Y-117850000D02*
X143100000Y-116300000D01*
D37*
X143100000Y-114300000D02*
X138800000Y-114300000D01*
X138800000Y-114300000D02*
X138500000Y-114600000D01*
X138500000Y-112700000D02*
X138600000Y-112600000D01*
D38*
X129975000Y-95850000D02*
X129975000Y-98225000D01*
D37*
X134750000Y-107350000D02*
X138500000Y-111100000D01*
D41*
X129975000Y-98225000D02*
X130525000Y-98775000D01*
D37*
X130525000Y-98775000D02*
X134750000Y-103000000D01*
X134750000Y-103000000D02*
X134750000Y-106350000D01*
X134750000Y-106350000D02*
X134750000Y-107350000D01*
D45*
X138500000Y-114600000D02*
X138500000Y-112600000D01*
X138500000Y-112600000D02*
X138500000Y-111100000D01*
D47*
G36*
X150698037Y-80900574D02*
X152137563Y-81862435D01*
X153099426Y-83301963D01*
X153448000Y-85054365D01*
X153448000Y-124945635D01*
X153099426Y-126698037D01*
X152137563Y-128137565D01*
X150698037Y-129099426D01*
X148945635Y-129448000D01*
X109054365Y-129448000D01*
X107301963Y-129099426D01*
X105862435Y-128137563D01*
X104900574Y-126698037D01*
X104552000Y-124945635D01*
X104552000Y-120285750D01*
X113740000Y-120285750D01*
X113740000Y-120626309D01*
X113836673Y-120859698D01*
X114015301Y-121038327D01*
X114248690Y-121135000D01*
X114714250Y-121135000D01*
X114873000Y-120976250D01*
X114873000Y-120127000D01*
X113898750Y-120127000D01*
X113740000Y-120285750D01*
X104552000Y-120285750D01*
X104552000Y-116685975D01*
X106052697Y-116685975D01*
X106318102Y-117328303D01*
X106809112Y-117820171D01*
X107450976Y-118086696D01*
X108145975Y-118087303D01*
X108788303Y-117821898D01*
X109280171Y-117330888D01*
X109546696Y-116689024D01*
X109546787Y-116584899D01*
X111845936Y-114285750D01*
X113740000Y-114285750D01*
X113740000Y-114626309D01*
X113836673Y-114859698D01*
X114015301Y-115038327D01*
X114134716Y-115087790D01*
X114035887Y-115151385D01*
X113926973Y-115310785D01*
X113888656Y-115500000D01*
X113888656Y-116500000D01*
X113921917Y-116676765D01*
X114026385Y-116839113D01*
X114123000Y-116905128D01*
X114123000Y-117095329D01*
X114035887Y-117151385D01*
X113926973Y-117310785D01*
X113888656Y-117500000D01*
X113888656Y-118500000D01*
X113921917Y-118676765D01*
X114026385Y-118839113D01*
X114133875Y-118912558D01*
X114015301Y-118961673D01*
X113836673Y-119140302D01*
X113740000Y-119373691D01*
X113740000Y-119714250D01*
X113898750Y-119873000D01*
X114873000Y-119873000D01*
X114873000Y-119853000D01*
X115127000Y-119853000D01*
X115127000Y-119873000D01*
X115147000Y-119873000D01*
X115147000Y-120127000D01*
X115127000Y-120127000D01*
X115127000Y-120976250D01*
X115285750Y-121135000D01*
X115751310Y-121135000D01*
X115984699Y-121038327D01*
X116030976Y-120992049D01*
X116046917Y-121076765D01*
X116151385Y-121239113D01*
X116310785Y-121348027D01*
X116500000Y-121386344D01*
X116613000Y-121386344D01*
X116613000Y-123935373D01*
X116595887Y-123946385D01*
X116486973Y-124105785D01*
X116448656Y-124295000D01*
X116448656Y-128105000D01*
X116481917Y-128281765D01*
X116586385Y-128444113D01*
X116745785Y-128553027D01*
X116935000Y-128591344D01*
X120745000Y-128591344D01*
X120921765Y-128558083D01*
X121084113Y-128453615D01*
X121193027Y-128294215D01*
X121231344Y-128105000D01*
X121231344Y-128006440D01*
X122293165Y-128006440D01*
X122502353Y-128367289D01*
X123439650Y-128744824D01*
X124450077Y-128734933D01*
X125337647Y-128367289D01*
X125546835Y-128006440D01*
X123920000Y-126379605D01*
X122293165Y-128006440D01*
X121231344Y-128006440D01*
X121231344Y-125719650D01*
X121375176Y-125719650D01*
X121385067Y-126730077D01*
X121752711Y-127617647D01*
X122113560Y-127826835D01*
X123740395Y-126200000D01*
X124099605Y-126200000D01*
X125726440Y-127826835D01*
X126087289Y-127617647D01*
X126464824Y-126680350D01*
X126454933Y-125669923D01*
X126087289Y-124782353D01*
X125726440Y-124573165D01*
X124099605Y-126200000D01*
X123740395Y-126200000D01*
X122113560Y-124573165D01*
X121752711Y-124782353D01*
X121375176Y-125719650D01*
X121231344Y-125719650D01*
X121231344Y-124393560D01*
X122293165Y-124393560D01*
X123920000Y-126020395D01*
X125546835Y-124393560D01*
X125337647Y-124032711D01*
X124400350Y-123655176D01*
X123389923Y-123665067D01*
X122502353Y-124032711D01*
X122293165Y-124393560D01*
X121231344Y-124393560D01*
X121231344Y-124295000D01*
X121198083Y-124118235D01*
X121093615Y-123955887D01*
X121067000Y-123937702D01*
X121067000Y-121386344D01*
X122500000Y-121386344D01*
X122676765Y-121353083D01*
X122839113Y-121248615D01*
X122948027Y-121089215D01*
X122986344Y-120900000D01*
X122986344Y-120285750D01*
X123240000Y-120285750D01*
X123240000Y-120626309D01*
X123336673Y-120859698D01*
X123515301Y-121038327D01*
X123748690Y-121135000D01*
X124214250Y-121135000D01*
X124373000Y-120976250D01*
X124373000Y-120127000D01*
X123398750Y-120127000D01*
X123240000Y-120285750D01*
X122986344Y-120285750D01*
X122986344Y-117900000D01*
X122953083Y-117723235D01*
X122848615Y-117560887D01*
X122827000Y-117546118D01*
X122827000Y-116456409D01*
X122839113Y-116448615D01*
X122948027Y-116289215D01*
X122986344Y-116100000D01*
X122986344Y-113373691D01*
X123240000Y-113373691D01*
X123240000Y-113714250D01*
X123398750Y-113873000D01*
X124373000Y-113873000D01*
X124373000Y-113023750D01*
X124214250Y-112865000D01*
X123748690Y-112865000D01*
X123515301Y-112961673D01*
X123336673Y-113140302D01*
X123240000Y-113373691D01*
X122986344Y-113373691D01*
X122986344Y-113100000D01*
X122953083Y-112923235D01*
X122848615Y-112760887D01*
X122689215Y-112651973D01*
X122500000Y-112613656D01*
X121531327Y-112613656D01*
X121548027Y-112589215D01*
X121586344Y-112400000D01*
X121586344Y-110253922D01*
X123620130Y-108220135D01*
X123620133Y-108220133D01*
X123770434Y-107995190D01*
X123810242Y-107935614D01*
X123877000Y-107600000D01*
X123877000Y-102463266D01*
X125123000Y-101217266D01*
X125123000Y-108100000D01*
X125189758Y-108435613D01*
X125379867Y-108720133D01*
X126913656Y-110253921D01*
X126913656Y-112400000D01*
X126946917Y-112576765D01*
X126970656Y-112613656D01*
X126000000Y-112613656D01*
X125823235Y-112646917D01*
X125660887Y-112751385D01*
X125551973Y-112910785D01*
X125532074Y-113009048D01*
X125484699Y-112961673D01*
X125251310Y-112865000D01*
X124785750Y-112865000D01*
X124627000Y-113023750D01*
X124627000Y-113873000D01*
X124647000Y-113873000D01*
X124647000Y-114127000D01*
X124627000Y-114127000D01*
X124627000Y-114147000D01*
X124373000Y-114147000D01*
X124373000Y-114127000D01*
X123398750Y-114127000D01*
X123240000Y-114285750D01*
X123240000Y-114626309D01*
X123336673Y-114859698D01*
X123515301Y-115038327D01*
X123634716Y-115087790D01*
X123535887Y-115151385D01*
X123426973Y-115310785D01*
X123388656Y-115500000D01*
X123388656Y-116500000D01*
X123421917Y-116676765D01*
X123526385Y-116839113D01*
X123623000Y-116905128D01*
X123623000Y-117095329D01*
X123535887Y-117151385D01*
X123426973Y-117310785D01*
X123388656Y-117500000D01*
X123388656Y-118500000D01*
X123421917Y-118676765D01*
X123526385Y-118839113D01*
X123633875Y-118912558D01*
X123515301Y-118961673D01*
X123336673Y-119140302D01*
X123240000Y-119373691D01*
X123240000Y-119714250D01*
X123398750Y-119873000D01*
X124373000Y-119873000D01*
X124373000Y-119853000D01*
X124627000Y-119853000D01*
X124627000Y-119873000D01*
X124647000Y-119873000D01*
X124647000Y-120127000D01*
X124627000Y-120127000D01*
X124627000Y-120976250D01*
X124785750Y-121135000D01*
X125251310Y-121135000D01*
X125484699Y-121038327D01*
X125530976Y-120992049D01*
X125546917Y-121076765D01*
X125651385Y-121239113D01*
X125810785Y-121348027D01*
X126000000Y-121386344D01*
X126773000Y-121386344D01*
X126773000Y-125351829D01*
X126618415Y-125724112D01*
X126617588Y-126671730D01*
X126979461Y-127547532D01*
X127648944Y-128218184D01*
X128524112Y-128581585D01*
X129471730Y-128582412D01*
X130347532Y-128220539D01*
X130562004Y-128006440D01*
X132453165Y-128006440D01*
X132662353Y-128367289D01*
X133599650Y-128744824D01*
X134610077Y-128734933D01*
X135497647Y-128367289D01*
X135706835Y-128006440D01*
X134080000Y-126379605D01*
X132453165Y-128006440D01*
X130562004Y-128006440D01*
X131018184Y-127551056D01*
X131381585Y-126675888D01*
X131382412Y-125728270D01*
X131378851Y-125719650D01*
X131535176Y-125719650D01*
X131545067Y-126730077D01*
X131912711Y-127617647D01*
X132273560Y-127826835D01*
X133900395Y-126200000D01*
X134259605Y-126200000D01*
X135886440Y-127826835D01*
X136247289Y-127617647D01*
X136624824Y-126680350D01*
X136614933Y-125669923D01*
X136247289Y-124782353D01*
X135886440Y-124573165D01*
X134259605Y-126200000D01*
X133900395Y-126200000D01*
X132273560Y-124573165D01*
X131912711Y-124782353D01*
X131535176Y-125719650D01*
X131378851Y-125719650D01*
X131227000Y-125352143D01*
X131227000Y-124393560D01*
X132453165Y-124393560D01*
X134080000Y-126020395D01*
X135706835Y-124393560D01*
X135497647Y-124032711D01*
X134560350Y-123655176D01*
X133549923Y-123665067D01*
X132662353Y-124032711D01*
X132453165Y-124393560D01*
X131227000Y-124393560D01*
X131227000Y-121386344D01*
X132000000Y-121386344D01*
X132176765Y-121353083D01*
X132339113Y-121248615D01*
X132448027Y-121089215D01*
X132486344Y-120900000D01*
X132486344Y-120285750D01*
X132740000Y-120285750D01*
X132740000Y-120626309D01*
X132836673Y-120859698D01*
X133015301Y-121038327D01*
X133248690Y-121135000D01*
X133714250Y-121135000D01*
X133873000Y-120976250D01*
X133873000Y-120127000D01*
X132898750Y-120127000D01*
X132740000Y-120285750D01*
X132486344Y-120285750D01*
X132486344Y-117900000D01*
X132453083Y-117723235D01*
X132348615Y-117560887D01*
X132327000Y-117546118D01*
X132327000Y-116456409D01*
X132339113Y-116448615D01*
X132448027Y-116289215D01*
X132486344Y-116100000D01*
X132486344Y-113373691D01*
X132740000Y-113373691D01*
X132740000Y-113714250D01*
X132898750Y-113873000D01*
X133873000Y-113873000D01*
X133873000Y-113023750D01*
X133714250Y-112865000D01*
X133248690Y-112865000D01*
X133015301Y-112961673D01*
X132836673Y-113140302D01*
X132740000Y-113373691D01*
X132486344Y-113373691D01*
X132486344Y-113100000D01*
X132453083Y-112923235D01*
X132348615Y-112760887D01*
X132189215Y-112651973D01*
X132000000Y-112613656D01*
X131031327Y-112613656D01*
X131048027Y-112589215D01*
X131086344Y-112400000D01*
X131086344Y-109800000D01*
X131053083Y-109623235D01*
X130948615Y-109460887D01*
X130789215Y-109351973D01*
X130600000Y-109313656D01*
X128453921Y-109313656D01*
X126877000Y-107736734D01*
X126877000Y-101363266D01*
X128448000Y-99792266D01*
X128448000Y-102113656D01*
X127400000Y-102113656D01*
X127223235Y-102146917D01*
X127060887Y-102251385D01*
X126951973Y-102410785D01*
X126913656Y-102600000D01*
X126913656Y-105200000D01*
X126946917Y-105376765D01*
X127051385Y-105539113D01*
X127210785Y-105648027D01*
X127400000Y-105686344D01*
X130600000Y-105686344D01*
X130776765Y-105653083D01*
X130939113Y-105548615D01*
X131048027Y-105389215D01*
X131086344Y-105200000D01*
X131086344Y-102600000D01*
X131053083Y-102423235D01*
X130948615Y-102260887D01*
X130789215Y-102151973D01*
X130600000Y-102113656D01*
X130202000Y-102113656D01*
X130202000Y-99692266D01*
X133873000Y-103363265D01*
X133873000Y-107350000D01*
X133939758Y-107685613D01*
X134129867Y-107970133D01*
X136413656Y-110253922D01*
X136413656Y-112400000D01*
X136446917Y-112576765D01*
X136470656Y-112613656D01*
X135500000Y-112613656D01*
X135323235Y-112646917D01*
X135160887Y-112751385D01*
X135051973Y-112910785D01*
X135032074Y-113009048D01*
X134984699Y-112961673D01*
X134751310Y-112865000D01*
X134285750Y-112865000D01*
X134127000Y-113023750D01*
X134127000Y-113873000D01*
X134147000Y-113873000D01*
X134147000Y-114127000D01*
X134127000Y-114127000D01*
X134127000Y-114147000D01*
X133873000Y-114147000D01*
X133873000Y-114127000D01*
X132898750Y-114127000D01*
X132740000Y-114285750D01*
X132740000Y-114626309D01*
X132836673Y-114859698D01*
X133015301Y-115038327D01*
X133134716Y-115087790D01*
X133035887Y-115151385D01*
X132926973Y-115310785D01*
X132888656Y-115500000D01*
X132888656Y-116500000D01*
X132921917Y-116676765D01*
X133026385Y-116839113D01*
X133123000Y-116905128D01*
X133123000Y-117095329D01*
X133035887Y-117151385D01*
X132926973Y-117310785D01*
X132888656Y-117500000D01*
X132888656Y-118500000D01*
X132921917Y-118676765D01*
X133026385Y-118839113D01*
X133133875Y-118912558D01*
X133015301Y-118961673D01*
X132836673Y-119140302D01*
X132740000Y-119373691D01*
X132740000Y-119714250D01*
X132898750Y-119873000D01*
X133873000Y-119873000D01*
X133873000Y-119853000D01*
X134127000Y-119853000D01*
X134127000Y-119873000D01*
X134147000Y-119873000D01*
X134147000Y-120127000D01*
X134127000Y-120127000D01*
X134127000Y-120976250D01*
X134285750Y-121135000D01*
X134751310Y-121135000D01*
X134984699Y-121038327D01*
X135030976Y-120992049D01*
X135046917Y-121076765D01*
X135151385Y-121239113D01*
X135310785Y-121348027D01*
X135500000Y-121386344D01*
X136933000Y-121386344D01*
X136933000Y-125351829D01*
X136778415Y-125724112D01*
X136777588Y-126671730D01*
X137139461Y-127547532D01*
X137808944Y-128218184D01*
X138684112Y-128581585D01*
X139631730Y-128582412D01*
X140507532Y-128220539D01*
X141178184Y-127551056D01*
X141541585Y-126675888D01*
X141542412Y-125728270D01*
X141387000Y-125352143D01*
X141387000Y-121386344D01*
X141500000Y-121386344D01*
X141676765Y-121353083D01*
X141839113Y-121248615D01*
X141948027Y-121089215D01*
X141986344Y-120900000D01*
X141986344Y-120885750D01*
X144715000Y-120885750D01*
X144715000Y-121076309D01*
X144811673Y-121309698D01*
X144990301Y-121488327D01*
X145223690Y-121585000D01*
X145714250Y-121585000D01*
X145873000Y-121426250D01*
X145873000Y-120727000D01*
X146127000Y-120727000D01*
X146127000Y-121426250D01*
X146285750Y-121585000D01*
X146776310Y-121585000D01*
X147009699Y-121488327D01*
X147188327Y-121309698D01*
X147285000Y-121076309D01*
X147285000Y-120885750D01*
X147126250Y-120727000D01*
X146127000Y-120727000D01*
X145873000Y-120727000D01*
X144873750Y-120727000D01*
X144715000Y-120885750D01*
X141986344Y-120885750D01*
X141986344Y-120527000D01*
X142230011Y-120527000D01*
X142260785Y-120548027D01*
X142450000Y-120586344D01*
X143750000Y-120586344D01*
X143926765Y-120553083D01*
X144089113Y-120448615D01*
X144198027Y-120289215D01*
X144231546Y-120123691D01*
X144715000Y-120123691D01*
X144715000Y-120314250D01*
X144873750Y-120473000D01*
X145873000Y-120473000D01*
X145873000Y-119773750D01*
X146127000Y-119773750D01*
X146127000Y-120473000D01*
X147126250Y-120473000D01*
X147285000Y-120314250D01*
X147285000Y-120123691D01*
X147188327Y-119890302D01*
X147009699Y-119711673D01*
X146776310Y-119615000D01*
X146285750Y-119615000D01*
X146127000Y-119773750D01*
X145873000Y-119773750D01*
X145714250Y-119615000D01*
X145223690Y-119615000D01*
X144990301Y-119711673D01*
X144811673Y-119890302D01*
X144715000Y-120123691D01*
X144231546Y-120123691D01*
X144236344Y-120100000D01*
X144236344Y-119400000D01*
X144203083Y-119223235D01*
X144127000Y-119104999D01*
X144127000Y-118493166D01*
X144198027Y-118389215D01*
X144236344Y-118200000D01*
X144236344Y-117500000D01*
X144203083Y-117323235D01*
X144127000Y-117204999D01*
X144127000Y-117056578D01*
X144173027Y-116989215D01*
X144211344Y-116800000D01*
X144211344Y-116443485D01*
X144272830Y-116443485D01*
X144421256Y-116802703D01*
X144695851Y-117077778D01*
X145054810Y-117226830D01*
X145443485Y-117227170D01*
X145802703Y-117078744D01*
X145814468Y-117067000D01*
X148728812Y-117067000D01*
X148915040Y-117345710D01*
X149272020Y-117584237D01*
X149272020Y-117647989D01*
X149110467Y-117751945D01*
X149001553Y-117911345D01*
X149000102Y-117918510D01*
X148899035Y-117761447D01*
X148739635Y-117652533D01*
X148550420Y-117614216D01*
X147351540Y-117614216D01*
X147174775Y-117647477D01*
X147012427Y-117751945D01*
X146903513Y-117911345D01*
X146901153Y-117923000D01*
X146869989Y-117923000D01*
X146839215Y-117901973D01*
X146650000Y-117863656D01*
X145350000Y-117863656D01*
X145173235Y-117896917D01*
X145010887Y-118001385D01*
X144901973Y-118160785D01*
X144863656Y-118350000D01*
X144863656Y-119050000D01*
X144896917Y-119226765D01*
X145001385Y-119389113D01*
X145160785Y-119498027D01*
X145350000Y-119536344D01*
X146650000Y-119536344D01*
X146826765Y-119503083D01*
X146867299Y-119477000D01*
X146898969Y-119477000D01*
X147002925Y-119638553D01*
X147162325Y-119747467D01*
X147351540Y-119785784D01*
X148550420Y-119785784D01*
X148727185Y-119752523D01*
X148889533Y-119648055D01*
X148998447Y-119488655D01*
X148999898Y-119481490D01*
X149100965Y-119638553D01*
X149260365Y-119747467D01*
X149449580Y-119785784D01*
X150648460Y-119785784D01*
X150825225Y-119752523D01*
X150987573Y-119648055D01*
X151096487Y-119488655D01*
X151134804Y-119299440D01*
X151134804Y-118100560D01*
X151101543Y-117923795D01*
X150997075Y-117761447D01*
X150837675Y-117652533D01*
X150826020Y-117650173D01*
X150826020Y-117518728D01*
X151084960Y-117345710D01*
X151408602Y-116861346D01*
X151522250Y-116290000D01*
X151408602Y-115718654D01*
X151184637Y-115383467D01*
X151375698Y-115304327D01*
X151554327Y-115125699D01*
X151651000Y-114892310D01*
X151651000Y-114035750D01*
X151492250Y-113877000D01*
X150127000Y-113877000D01*
X150127000Y-113897000D01*
X149873000Y-113897000D01*
X149873000Y-113877000D01*
X148507750Y-113877000D01*
X148349000Y-114035750D01*
X148349000Y-114892310D01*
X148445673Y-115125699D01*
X148624302Y-115304327D01*
X148815363Y-115383467D01*
X148728812Y-115513000D01*
X145894769Y-115513000D01*
X145804149Y-115422222D01*
X145445190Y-115273170D01*
X145056515Y-115272830D01*
X144697297Y-115421256D01*
X144422222Y-115695851D01*
X144273170Y-116054810D01*
X144272830Y-116443485D01*
X144211344Y-116443485D01*
X144211344Y-115800000D01*
X144178083Y-115623235D01*
X144127000Y-115543850D01*
X144127000Y-115056577D01*
X144173027Y-114989215D01*
X144211344Y-114800000D01*
X144211344Y-113800000D01*
X144178083Y-113623235D01*
X144073615Y-113460887D01*
X143914215Y-113351973D01*
X143725000Y-113313656D01*
X142475000Y-113313656D01*
X142298235Y-113346917D01*
X142179999Y-113423000D01*
X141986344Y-113423000D01*
X141986344Y-113100000D01*
X141953083Y-112923235D01*
X141848615Y-112760887D01*
X141689215Y-112651973D01*
X141500000Y-112613656D01*
X140531327Y-112613656D01*
X140548027Y-112589215D01*
X140586344Y-112400000D01*
X140586344Y-112385750D01*
X144715000Y-112385750D01*
X144715000Y-112576309D01*
X144811673Y-112809698D01*
X144990301Y-112988327D01*
X145223690Y-113085000D01*
X145714250Y-113085000D01*
X145873000Y-112926250D01*
X145873000Y-112227000D01*
X146127000Y-112227000D01*
X146127000Y-112926250D01*
X146285750Y-113085000D01*
X146776310Y-113085000D01*
X147009699Y-112988327D01*
X147188327Y-112809698D01*
X147272001Y-112607690D01*
X148349000Y-112607690D01*
X148349000Y-113464250D01*
X148507750Y-113623000D01*
X149873000Y-113623000D01*
X149873000Y-112257750D01*
X150127000Y-112257750D01*
X150127000Y-113623000D01*
X151492250Y-113623000D01*
X151651000Y-113464250D01*
X151651000Y-112607690D01*
X151554327Y-112374301D01*
X151375698Y-112195673D01*
X151142309Y-112099000D01*
X150285750Y-112099000D01*
X150127000Y-112257750D01*
X149873000Y-112257750D01*
X149714250Y-112099000D01*
X148857691Y-112099000D01*
X148624302Y-112195673D01*
X148445673Y-112374301D01*
X148349000Y-112607690D01*
X147272001Y-112607690D01*
X147285000Y-112576309D01*
X147285000Y-112385750D01*
X147126250Y-112227000D01*
X146127000Y-112227000D01*
X145873000Y-112227000D01*
X144873750Y-112227000D01*
X144715000Y-112385750D01*
X140586344Y-112385750D01*
X140586344Y-111623691D01*
X144715000Y-111623691D01*
X144715000Y-111814250D01*
X144873750Y-111973000D01*
X145873000Y-111973000D01*
X145873000Y-111273750D01*
X146127000Y-111273750D01*
X146127000Y-111973000D01*
X147126250Y-111973000D01*
X147285000Y-111814250D01*
X147285000Y-111623691D01*
X147188327Y-111390302D01*
X147009699Y-111211673D01*
X146776310Y-111115000D01*
X146285750Y-111115000D01*
X146127000Y-111273750D01*
X145873000Y-111273750D01*
X145714250Y-111115000D01*
X145223690Y-111115000D01*
X144990301Y-111211673D01*
X144811673Y-111390302D01*
X144715000Y-111623691D01*
X140586344Y-111623691D01*
X140586344Y-109850000D01*
X144863656Y-109850000D01*
X144863656Y-110550000D01*
X144896917Y-110726765D01*
X145001385Y-110889113D01*
X145160785Y-110998027D01*
X145350000Y-111036344D01*
X146650000Y-111036344D01*
X146826765Y-111003083D01*
X146854336Y-110985341D01*
X146952925Y-111138553D01*
X147112325Y-111247467D01*
X147301540Y-111285784D01*
X148500420Y-111285784D01*
X148677185Y-111252523D01*
X148839533Y-111148055D01*
X148948447Y-110988655D01*
X148949898Y-110981490D01*
X149050965Y-111138553D01*
X149210365Y-111247467D01*
X149399580Y-111285784D01*
X150598460Y-111285784D01*
X150775225Y-111252523D01*
X150937573Y-111148055D01*
X151046487Y-110988655D01*
X151084804Y-110799440D01*
X151084804Y-109600560D01*
X151051543Y-109423795D01*
X150947075Y-109261447D01*
X150787675Y-109152533D01*
X150776020Y-109150173D01*
X150776020Y-109052137D01*
X151084960Y-108845710D01*
X151408602Y-108361346D01*
X151522250Y-107790000D01*
X151408602Y-107218654D01*
X151184637Y-106883467D01*
X151375698Y-106804327D01*
X151554327Y-106625699D01*
X151651000Y-106392310D01*
X151651000Y-105535750D01*
X151492250Y-105377000D01*
X150127000Y-105377000D01*
X150127000Y-105397000D01*
X149873000Y-105397000D01*
X149873000Y-105377000D01*
X148507750Y-105377000D01*
X148349000Y-105535750D01*
X148349000Y-106392310D01*
X148445673Y-106625699D01*
X148624302Y-106804327D01*
X148815363Y-106883467D01*
X148728812Y-107013000D01*
X147044856Y-107013000D01*
X147004149Y-106972222D01*
X146645190Y-106823170D01*
X146256515Y-106822830D01*
X145897297Y-106971256D01*
X145622222Y-107245851D01*
X145473170Y-107604810D01*
X145472830Y-107993485D01*
X145621256Y-108352703D01*
X145895851Y-108627778D01*
X146254810Y-108776830D01*
X146643485Y-108777170D01*
X147002703Y-108628744D01*
X147064555Y-108567000D01*
X148728812Y-108567000D01*
X148915040Y-108845710D01*
X149222020Y-109050828D01*
X149222020Y-109147989D01*
X149060467Y-109251945D01*
X148951553Y-109411345D01*
X148950102Y-109418510D01*
X148849035Y-109261447D01*
X148689635Y-109152533D01*
X148500420Y-109114216D01*
X147301540Y-109114216D01*
X147124775Y-109147477D01*
X146962427Y-109251945D01*
X146853513Y-109411345D01*
X146853442Y-109411694D01*
X146839215Y-109401973D01*
X146650000Y-109363656D01*
X145350000Y-109363656D01*
X145173235Y-109396917D01*
X145010887Y-109501385D01*
X144901973Y-109660785D01*
X144863656Y-109850000D01*
X140586344Y-109850000D01*
X140586344Y-109800000D01*
X140553083Y-109623235D01*
X140448615Y-109460887D01*
X140289215Y-109351973D01*
X140100000Y-109313656D01*
X137953922Y-109313656D01*
X135627000Y-106986734D01*
X135627000Y-103117265D01*
X136413656Y-103903921D01*
X136413656Y-105200000D01*
X136446917Y-105376765D01*
X136551385Y-105539113D01*
X136710785Y-105648027D01*
X136900000Y-105686344D01*
X140100000Y-105686344D01*
X140276765Y-105653083D01*
X140439113Y-105548615D01*
X140548027Y-105389215D01*
X140586344Y-105200000D01*
X140586344Y-103935750D01*
X144715000Y-103935750D01*
X144715000Y-104126309D01*
X144811673Y-104359698D01*
X144990301Y-104538327D01*
X145223690Y-104635000D01*
X145714250Y-104635000D01*
X145873000Y-104476250D01*
X145873000Y-103777000D01*
X146127000Y-103777000D01*
X146127000Y-104476250D01*
X146285750Y-104635000D01*
X146776310Y-104635000D01*
X147009699Y-104538327D01*
X147188327Y-104359698D01*
X147285000Y-104126309D01*
X147285000Y-104107690D01*
X148349000Y-104107690D01*
X148349000Y-104964250D01*
X148507750Y-105123000D01*
X149873000Y-105123000D01*
X149873000Y-103757750D01*
X150127000Y-103757750D01*
X150127000Y-105123000D01*
X151492250Y-105123000D01*
X151651000Y-104964250D01*
X151651000Y-104107690D01*
X151554327Y-103874301D01*
X151375698Y-103695673D01*
X151142309Y-103599000D01*
X150285750Y-103599000D01*
X150127000Y-103757750D01*
X149873000Y-103757750D01*
X149714250Y-103599000D01*
X148857691Y-103599000D01*
X148624302Y-103695673D01*
X148445673Y-103874301D01*
X148349000Y-104107690D01*
X147285000Y-104107690D01*
X147285000Y-103935750D01*
X147126250Y-103777000D01*
X146127000Y-103777000D01*
X145873000Y-103777000D01*
X144873750Y-103777000D01*
X144715000Y-103935750D01*
X140586344Y-103935750D01*
X140586344Y-103173691D01*
X144715000Y-103173691D01*
X144715000Y-103364250D01*
X144873750Y-103523000D01*
X145873000Y-103523000D01*
X145873000Y-102823750D01*
X146127000Y-102823750D01*
X146127000Y-103523000D01*
X147126250Y-103523000D01*
X147285000Y-103364250D01*
X147285000Y-103173691D01*
X147188327Y-102940302D01*
X147009699Y-102761673D01*
X146776310Y-102665000D01*
X146285750Y-102665000D01*
X146127000Y-102823750D01*
X145873000Y-102823750D01*
X145714250Y-102665000D01*
X145223690Y-102665000D01*
X144990301Y-102761673D01*
X144811673Y-102940302D01*
X144715000Y-103173691D01*
X140586344Y-103173691D01*
X140586344Y-102600000D01*
X140553083Y-102423235D01*
X140448615Y-102260887D01*
X140289215Y-102151973D01*
X140100000Y-102113656D01*
X137103921Y-102113656D01*
X136390266Y-101400000D01*
X144863656Y-101400000D01*
X144863656Y-102100000D01*
X144896917Y-102276765D01*
X145001385Y-102439113D01*
X145160785Y-102548027D01*
X145350000Y-102586344D01*
X146650000Y-102586344D01*
X146826765Y-102553083D01*
X146867299Y-102527000D01*
X146898969Y-102527000D01*
X147002925Y-102688553D01*
X147162325Y-102797467D01*
X147351540Y-102835784D01*
X148550420Y-102835784D01*
X148727185Y-102802523D01*
X148889533Y-102698055D01*
X148998447Y-102538655D01*
X148999898Y-102531490D01*
X149100965Y-102688553D01*
X149260365Y-102797467D01*
X149449580Y-102835784D01*
X150648460Y-102835784D01*
X150825225Y-102802523D01*
X150987573Y-102698055D01*
X151096487Y-102538655D01*
X151134804Y-102349440D01*
X151134804Y-101150560D01*
X151101543Y-100973795D01*
X150997075Y-100811447D01*
X150837675Y-100702533D01*
X150826020Y-100700173D01*
X150826020Y-100568728D01*
X151084960Y-100395710D01*
X151408602Y-99911346D01*
X151522250Y-99340000D01*
X151408602Y-98768654D01*
X151184637Y-98433467D01*
X151375698Y-98354327D01*
X151554327Y-98175699D01*
X151651000Y-97942310D01*
X151651000Y-97085750D01*
X151492250Y-96927000D01*
X150127000Y-96927000D01*
X150127000Y-96947000D01*
X149873000Y-96947000D01*
X149873000Y-96927000D01*
X148507750Y-96927000D01*
X148349000Y-97085750D01*
X148349000Y-97942310D01*
X148445673Y-98175699D01*
X148624302Y-98354327D01*
X148815363Y-98433467D01*
X148591398Y-98768654D01*
X148477750Y-99340000D01*
X148591398Y-99911346D01*
X148915040Y-100395710D01*
X149272020Y-100634237D01*
X149272020Y-100697989D01*
X149110467Y-100801945D01*
X149001553Y-100961345D01*
X149000102Y-100968510D01*
X148899035Y-100811447D01*
X148739635Y-100702533D01*
X148550420Y-100664216D01*
X147351540Y-100664216D01*
X147174775Y-100697477D01*
X147012427Y-100801945D01*
X146903513Y-100961345D01*
X146901153Y-100973000D01*
X146869989Y-100973000D01*
X146839215Y-100951973D01*
X146650000Y-100913656D01*
X145350000Y-100913656D01*
X145173235Y-100946917D01*
X145010887Y-101051385D01*
X144901973Y-101210785D01*
X144863656Y-101400000D01*
X136390266Y-101400000D01*
X134167194Y-99176928D01*
X134483093Y-99177204D01*
X134915846Y-98998394D01*
X134987365Y-98927000D01*
X146200000Y-98927000D01*
X146249410Y-98916994D01*
X146291035Y-98888553D01*
X146318315Y-98846159D01*
X146327000Y-98800000D01*
X146327000Y-96671142D01*
X146336344Y-96625000D01*
X146336344Y-95657690D01*
X148349000Y-95657690D01*
X148349000Y-96514250D01*
X148507750Y-96673000D01*
X149873000Y-96673000D01*
X149873000Y-95307750D01*
X150127000Y-95307750D01*
X150127000Y-96673000D01*
X151492250Y-96673000D01*
X151651000Y-96514250D01*
X151651000Y-95657690D01*
X151554327Y-95424301D01*
X151375698Y-95245673D01*
X151142309Y-95149000D01*
X150285750Y-95149000D01*
X150127000Y-95307750D01*
X149873000Y-95307750D01*
X149714250Y-95149000D01*
X148857691Y-95149000D01*
X148624302Y-95245673D01*
X148445673Y-95424301D01*
X148349000Y-95657690D01*
X146336344Y-95657690D01*
X146336344Y-95375000D01*
X146327000Y-95325341D01*
X146327000Y-93221142D01*
X146336344Y-93175000D01*
X146336344Y-91925000D01*
X146327000Y-91875341D01*
X146327000Y-89771142D01*
X146336344Y-89725000D01*
X146336344Y-88475000D01*
X146303083Y-88298235D01*
X146198615Y-88135887D01*
X146039215Y-88026973D01*
X145850000Y-87988656D01*
X144850000Y-87988656D01*
X144673235Y-88021917D01*
X144510887Y-88126385D01*
X144401973Y-88285785D01*
X144374186Y-88423000D01*
X144326559Y-88423000D01*
X144303083Y-88298235D01*
X144198615Y-88135887D01*
X144039215Y-88026973D01*
X143850000Y-87988656D01*
X142850000Y-87988656D01*
X142673235Y-88021917D01*
X142510887Y-88126385D01*
X142401973Y-88285785D01*
X142397543Y-88307663D01*
X142389215Y-88301973D01*
X142200000Y-88263656D01*
X140900000Y-88263656D01*
X140723235Y-88296917D01*
X140560887Y-88401385D01*
X140546118Y-88423000D01*
X140406409Y-88423000D01*
X140398615Y-88410887D01*
X140239215Y-88301973D01*
X140050000Y-88263656D01*
X139226944Y-88263656D01*
X139227151Y-88026319D01*
X139093918Y-87703869D01*
X138867445Y-87477000D01*
X139447068Y-87477000D01*
X139551385Y-87639113D01*
X139710785Y-87748027D01*
X139900000Y-87786344D01*
X142650000Y-87786344D01*
X142826765Y-87753083D01*
X142989113Y-87648615D01*
X143098027Y-87489215D01*
X143100501Y-87477000D01*
X143350000Y-87477000D01*
X143609077Y-87425466D01*
X143828711Y-87278711D01*
X144178711Y-86928711D01*
X144325467Y-86709076D01*
X144339934Y-86636344D01*
X144350000Y-86636344D01*
X144526765Y-86603083D01*
X144689113Y-86498615D01*
X144798027Y-86339215D01*
X144836344Y-86150000D01*
X144836344Y-85450000D01*
X144803083Y-85273235D01*
X144698615Y-85110887D01*
X144539215Y-85001973D01*
X144350000Y-84963656D01*
X143050000Y-84963656D01*
X142873235Y-84996917D01*
X142710887Y-85101385D01*
X142601973Y-85260785D01*
X142563656Y-85450000D01*
X142563656Y-85813656D01*
X139900000Y-85813656D01*
X139723235Y-85846917D01*
X139560887Y-85951385D01*
X139451973Y-86110785D01*
X139449499Y-86123000D01*
X137352932Y-86123000D01*
X137248615Y-85960887D01*
X137089215Y-85851973D01*
X136900000Y-85813656D01*
X134150000Y-85813656D01*
X133973235Y-85846917D01*
X133810887Y-85951385D01*
X133701973Y-86110785D01*
X133699499Y-86123000D01*
X133106409Y-86123000D01*
X133098615Y-86110887D01*
X132939215Y-86001973D01*
X132750000Y-85963656D01*
X131450000Y-85963656D01*
X131273235Y-85996917D01*
X131110887Y-86101385D01*
X131001973Y-86260785D01*
X130963656Y-86450000D01*
X130963656Y-87014276D01*
X130627000Y-87350932D01*
X130627000Y-86306409D01*
X130639113Y-86298615D01*
X130748027Y-86139215D01*
X130786344Y-85950000D01*
X130786344Y-84650000D01*
X130767528Y-84550000D01*
X130963656Y-84550000D01*
X130963656Y-85250000D01*
X130996917Y-85426765D01*
X131101385Y-85589113D01*
X131260785Y-85698027D01*
X131450000Y-85736344D01*
X132750000Y-85736344D01*
X132926765Y-85703083D01*
X133089113Y-85598615D01*
X133198027Y-85439215D01*
X133236344Y-85250000D01*
X133236344Y-84550000D01*
X133203083Y-84373235D01*
X133098615Y-84210887D01*
X132939215Y-84101973D01*
X132750000Y-84063656D01*
X132677000Y-84063656D01*
X132677000Y-83813365D01*
X132743051Y-83747429D01*
X132876847Y-83425211D01*
X132877142Y-83085750D01*
X133515000Y-83085750D01*
X133515000Y-83426310D01*
X133611673Y-83659699D01*
X133790302Y-83838327D01*
X134023691Y-83935000D01*
X135239250Y-83935000D01*
X135398000Y-83776250D01*
X135398000Y-82927000D01*
X135652000Y-82927000D01*
X135652000Y-83776250D01*
X135810750Y-83935000D01*
X137026309Y-83935000D01*
X137259698Y-83838327D01*
X137438327Y-83659699D01*
X137535000Y-83426310D01*
X137535000Y-83085750D01*
X139265000Y-83085750D01*
X139265000Y-83426310D01*
X139361673Y-83659699D01*
X139540302Y-83838327D01*
X139773691Y-83935000D01*
X140989250Y-83935000D01*
X141148000Y-83776250D01*
X141148000Y-82927000D01*
X141402000Y-82927000D01*
X141402000Y-83776250D01*
X141560750Y-83935000D01*
X142415000Y-83935000D01*
X142415000Y-84027002D01*
X142573748Y-84027002D01*
X142415000Y-84185750D01*
X142415000Y-84376309D01*
X142511673Y-84609698D01*
X142690301Y-84788327D01*
X142923690Y-84885000D01*
X143414250Y-84885000D01*
X143573000Y-84726250D01*
X143573000Y-84027000D01*
X143827000Y-84027000D01*
X143827000Y-84726250D01*
X143985750Y-84885000D01*
X144476310Y-84885000D01*
X144709699Y-84788327D01*
X144888327Y-84609698D01*
X144985000Y-84376309D01*
X144985000Y-84185750D01*
X144826250Y-84027000D01*
X143827000Y-84027000D01*
X143573000Y-84027000D01*
X143553000Y-84027000D01*
X143553000Y-83773000D01*
X143573000Y-83773000D01*
X143573000Y-83073750D01*
X143827000Y-83073750D01*
X143827000Y-83773000D01*
X144826250Y-83773000D01*
X144985000Y-83614250D01*
X144985000Y-83423691D01*
X144888327Y-83190302D01*
X144709699Y-83011673D01*
X144476310Y-82915000D01*
X143985750Y-82915000D01*
X143827000Y-83073750D01*
X143573000Y-83073750D01*
X143414250Y-82915000D01*
X142923690Y-82915000D01*
X142894719Y-82927000D01*
X141402000Y-82927000D01*
X141148000Y-82927000D01*
X139423750Y-82927000D01*
X139265000Y-83085750D01*
X137535000Y-83085750D01*
X137376250Y-82927000D01*
X135652000Y-82927000D01*
X135398000Y-82927000D01*
X133673750Y-82927000D01*
X133515000Y-83085750D01*
X132877142Y-83085750D01*
X132877151Y-83076319D01*
X132743918Y-82753869D01*
X132497429Y-82506949D01*
X132175211Y-82373153D01*
X131826319Y-82372849D01*
X131503869Y-82506082D01*
X131256949Y-82752571D01*
X131123153Y-83074789D01*
X131122849Y-83423681D01*
X131256082Y-83746131D01*
X131323000Y-83813166D01*
X131323000Y-84087553D01*
X131273235Y-84096917D01*
X131110887Y-84201385D01*
X131001973Y-84360785D01*
X130963656Y-84550000D01*
X130767528Y-84550000D01*
X130753083Y-84473235D01*
X130648615Y-84310887D01*
X130602000Y-84279036D01*
X130602000Y-84222497D01*
X130639113Y-84198615D01*
X130748027Y-84039215D01*
X130786344Y-83850000D01*
X130786344Y-82550000D01*
X130753083Y-82373235D01*
X130648615Y-82210887D01*
X130594176Y-82173690D01*
X133515000Y-82173690D01*
X133515000Y-82514250D01*
X133673750Y-82673000D01*
X135398000Y-82673000D01*
X135398000Y-81823750D01*
X135652000Y-81823750D01*
X135652000Y-82673000D01*
X137376250Y-82673000D01*
X137535000Y-82514250D01*
X137535000Y-82173690D01*
X139265000Y-82173690D01*
X139265000Y-82514250D01*
X139423750Y-82673000D01*
X141148000Y-82673000D01*
X141148000Y-81823750D01*
X141402000Y-81823750D01*
X141402000Y-82673000D01*
X143126250Y-82673000D01*
X143285000Y-82514250D01*
X143285000Y-82173690D01*
X143188327Y-81940301D01*
X143009698Y-81761673D01*
X142776309Y-81665000D01*
X141560750Y-81665000D01*
X141402000Y-81823750D01*
X141148000Y-81823750D01*
X140989250Y-81665000D01*
X139773691Y-81665000D01*
X139540302Y-81761673D01*
X139361673Y-81940301D01*
X139265000Y-82173690D01*
X137535000Y-82173690D01*
X137438327Y-81940301D01*
X137259698Y-81761673D01*
X137026309Y-81665000D01*
X135810750Y-81665000D01*
X135652000Y-81823750D01*
X135398000Y-81823750D01*
X135239250Y-81665000D01*
X134023691Y-81665000D01*
X133790302Y-81761673D01*
X133611673Y-81940301D01*
X133515000Y-82173690D01*
X130594176Y-82173690D01*
X130489215Y-82101973D01*
X130300000Y-82063656D01*
X129600000Y-82063656D01*
X129423235Y-82096917D01*
X129260887Y-82201385D01*
X129151973Y-82360785D01*
X129113656Y-82550000D01*
X129113656Y-83850000D01*
X129146917Y-84026765D01*
X129251385Y-84189113D01*
X129298000Y-84220964D01*
X129298000Y-84277503D01*
X129260887Y-84301385D01*
X129151973Y-84460785D01*
X129113656Y-84650000D01*
X129113656Y-85950000D01*
X129146917Y-86126765D01*
X129208904Y-86223095D01*
X128974284Y-86222891D01*
X129035000Y-86076310D01*
X129035000Y-85585750D01*
X128876250Y-85427000D01*
X128177000Y-85427000D01*
X128177000Y-85447000D01*
X127923000Y-85447000D01*
X127923000Y-85427000D01*
X127903000Y-85427000D01*
X127903000Y-85173000D01*
X127923000Y-85173000D01*
X127923000Y-83327000D01*
X128177000Y-83327000D01*
X128177000Y-85173000D01*
X128876250Y-85173000D01*
X129035000Y-85014250D01*
X129035000Y-84523690D01*
X128938327Y-84290301D01*
X128898026Y-84250000D01*
X128938327Y-84209699D01*
X129035000Y-83976310D01*
X129035000Y-83485750D01*
X128876250Y-83327000D01*
X128177000Y-83327000D01*
X127923000Y-83327000D01*
X127903000Y-83327000D01*
X127903000Y-83073000D01*
X127923000Y-83073000D01*
X127923000Y-82073750D01*
X128177000Y-82073750D01*
X128177000Y-83073000D01*
X128876250Y-83073000D01*
X129035000Y-82914250D01*
X129035000Y-82423690D01*
X128938327Y-82190301D01*
X128759698Y-82011673D01*
X128526309Y-81915000D01*
X128335750Y-81915000D01*
X128177000Y-82073750D01*
X127923000Y-82073750D01*
X127764250Y-81915000D01*
X127573691Y-81915000D01*
X127340302Y-82011673D01*
X127161673Y-82190301D01*
X127065000Y-82423690D01*
X127065000Y-82492933D01*
X126511034Y-81938966D01*
X126495131Y-81928340D01*
X126299510Y-81797631D01*
X126258113Y-81789396D01*
X126050000Y-81747999D01*
X126049995Y-81748000D01*
X120052770Y-81748000D01*
X119997075Y-81661447D01*
X119837675Y-81552533D01*
X119648460Y-81514216D01*
X118449580Y-81514216D01*
X118272815Y-81547477D01*
X118110467Y-81651945D01*
X118001553Y-81811345D01*
X118000102Y-81818510D01*
X117899035Y-81661447D01*
X117739635Y-81552533D01*
X117550420Y-81514216D01*
X116351540Y-81514216D01*
X116174775Y-81547477D01*
X116012427Y-81651945D01*
X115903513Y-81811345D01*
X115865196Y-82000560D01*
X115865196Y-83199440D01*
X115898457Y-83376205D01*
X116002925Y-83538553D01*
X116162325Y-83647467D01*
X116223980Y-83659952D01*
X116223980Y-84880975D01*
X116223979Y-84880980D01*
X116248047Y-85001973D01*
X116279320Y-85159191D01*
X116323656Y-85225545D01*
X116323656Y-85740000D01*
X116356917Y-85916765D01*
X116461385Y-86079113D01*
X116620785Y-86188027D01*
X116810000Y-86226344D01*
X117510000Y-86226344D01*
X117686765Y-86193083D01*
X117849113Y-86088615D01*
X117958027Y-85929215D01*
X117996344Y-85740000D01*
X117996344Y-84440000D01*
X117963083Y-84263235D01*
X117858615Y-84100887D01*
X117699215Y-83991973D01*
X117677980Y-83987673D01*
X117677980Y-83661782D01*
X117727185Y-83652523D01*
X117889533Y-83548055D01*
X117998447Y-83388655D01*
X117999898Y-83381490D01*
X118100965Y-83538553D01*
X118260365Y-83647467D01*
X118449580Y-83685784D01*
X119648460Y-83685784D01*
X119825225Y-83652523D01*
X119987573Y-83548055D01*
X120096487Y-83388655D01*
X120134804Y-83199440D01*
X120134804Y-83052000D01*
X120526303Y-83052000D01*
X120451973Y-83160785D01*
X120413656Y-83350000D01*
X120413656Y-84363000D01*
X119881855Y-84363000D01*
X119863083Y-84263235D01*
X119758615Y-84100887D01*
X119599215Y-83991973D01*
X119410000Y-83953656D01*
X118710000Y-83953656D01*
X118533235Y-83986917D01*
X118370887Y-84091385D01*
X118261973Y-84250785D01*
X118223656Y-84440000D01*
X118223656Y-85740000D01*
X118256917Y-85916765D01*
X118361385Y-86079113D01*
X118520785Y-86188027D01*
X118710000Y-86226344D01*
X119410000Y-86226344D01*
X119586765Y-86193083D01*
X119749113Y-86088615D01*
X119858027Y-85929215D01*
X119880751Y-85817000D01*
X120413656Y-85817000D01*
X120413656Y-86550000D01*
X120446917Y-86726765D01*
X120473000Y-86767299D01*
X120473000Y-89913656D01*
X119300000Y-89913656D01*
X119123235Y-89946917D01*
X118960887Y-90051385D01*
X118851973Y-90210785D01*
X118813656Y-90400000D01*
X118813656Y-93600000D01*
X118846917Y-93776765D01*
X118951385Y-93939113D01*
X119110785Y-94048027D01*
X119300000Y-94086344D01*
X119623000Y-94086344D01*
X119623000Y-97350000D01*
X119697370Y-97723882D01*
X119881867Y-98000000D01*
X119909157Y-98040843D01*
X120072821Y-98204507D01*
X120072796Y-98233093D01*
X120251606Y-98665846D01*
X120582412Y-98997230D01*
X121014853Y-99176795D01*
X121483093Y-99177204D01*
X121915846Y-98998394D01*
X122247230Y-98667588D01*
X122426795Y-98235147D01*
X122427204Y-97766907D01*
X122248394Y-97334154D01*
X121917588Y-97002770D01*
X121577000Y-96861346D01*
X121577000Y-96777000D01*
X122828858Y-96777000D01*
X122875000Y-96786344D01*
X124125000Y-96786344D01*
X124273000Y-96758496D01*
X124273000Y-97886734D01*
X120046078Y-102113656D01*
X117900000Y-102113656D01*
X117723235Y-102146917D01*
X117560887Y-102251385D01*
X117451973Y-102410785D01*
X117413656Y-102600000D01*
X117413656Y-105200000D01*
X117446917Y-105376765D01*
X117551385Y-105539113D01*
X117710785Y-105648027D01*
X117900000Y-105686344D01*
X121100000Y-105686344D01*
X121276765Y-105653083D01*
X121439113Y-105548615D01*
X121548027Y-105389215D01*
X121586344Y-105200000D01*
X121586344Y-103053922D01*
X122123000Y-102517266D01*
X122123000Y-107236735D01*
X120046078Y-109313656D01*
X117900000Y-109313656D01*
X117723235Y-109346917D01*
X117560887Y-109451385D01*
X117451973Y-109610785D01*
X117413656Y-109800000D01*
X117413656Y-112400000D01*
X117446917Y-112576765D01*
X117470656Y-112613656D01*
X116500000Y-112613656D01*
X116323235Y-112646917D01*
X116160887Y-112751385D01*
X116051973Y-112910785D01*
X116032074Y-113009048D01*
X115984699Y-112961673D01*
X115751310Y-112865000D01*
X115285750Y-112865000D01*
X115127000Y-113023750D01*
X115127000Y-113873000D01*
X115147000Y-113873000D01*
X115147000Y-114127000D01*
X115127000Y-114127000D01*
X115127000Y-114147000D01*
X114873000Y-114147000D01*
X114873000Y-114127000D01*
X113898750Y-114127000D01*
X113740000Y-114285750D01*
X111845936Y-114285750D01*
X112757995Y-113373691D01*
X113740000Y-113373691D01*
X113740000Y-113714250D01*
X113898750Y-113873000D01*
X114873000Y-113873000D01*
X114873000Y-113023750D01*
X114714250Y-112865000D01*
X114248690Y-112865000D01*
X114015301Y-112961673D01*
X113836673Y-113140302D01*
X113740000Y-113373691D01*
X112757995Y-113373691D01*
X115440843Y-110690843D01*
X115581812Y-110479868D01*
X115652630Y-110373882D01*
X115727000Y-110000000D01*
X115727000Y-102736404D01*
X115950200Y-102736404D01*
X116126965Y-102703143D01*
X116289313Y-102598675D01*
X116398227Y-102439275D01*
X116436544Y-102250060D01*
X116436544Y-98749940D01*
X116403283Y-98573175D01*
X116298815Y-98410827D01*
X116139415Y-98301913D01*
X115950200Y-98263596D01*
X114627000Y-98263596D01*
X114627000Y-94086344D01*
X114700000Y-94086344D01*
X114876765Y-94053083D01*
X115039113Y-93948615D01*
X115148027Y-93789215D01*
X115186344Y-93600000D01*
X115186344Y-90400000D01*
X115153083Y-90223235D01*
X115048615Y-90060887D01*
X114889215Y-89951973D01*
X114700000Y-89913656D01*
X112100000Y-89913656D01*
X111923235Y-89946917D01*
X111760887Y-90051385D01*
X111651973Y-90210785D01*
X111613656Y-90400000D01*
X111613656Y-91223000D01*
X111262447Y-91223000D01*
X111253083Y-91173235D01*
X111148615Y-91010887D01*
X110989215Y-90901973D01*
X110800000Y-90863656D01*
X110100000Y-90863656D01*
X109923235Y-90896917D01*
X109760887Y-91001385D01*
X109651973Y-91160785D01*
X109613656Y-91350000D01*
X109613656Y-92650000D01*
X109646917Y-92826765D01*
X109751385Y-92989113D01*
X109910785Y-93098027D01*
X110100000Y-93136344D01*
X110800000Y-93136344D01*
X110976765Y-93103083D01*
X111139113Y-92998615D01*
X111248027Y-92839215D01*
X111260626Y-92777000D01*
X111613656Y-92777000D01*
X111613656Y-93600000D01*
X111646917Y-93776765D01*
X111751385Y-93939113D01*
X111910785Y-94048027D01*
X112100000Y-94086344D01*
X112173000Y-94086344D01*
X112173000Y-98361408D01*
X112110967Y-98401325D01*
X112002053Y-98560725D01*
X111963736Y-98749940D01*
X111963736Y-102250060D01*
X111996997Y-102426825D01*
X112101465Y-102589173D01*
X112260865Y-102698087D01*
X112450080Y-102736404D01*
X113773000Y-102736404D01*
X113773000Y-109595314D01*
X108591343Y-114776971D01*
X108149024Y-114593304D01*
X107454025Y-114592697D01*
X106811697Y-114858102D01*
X106319829Y-115349112D01*
X106053304Y-115990976D01*
X106052697Y-116685975D01*
X104552000Y-116685975D01*
X104552000Y-111545750D01*
X105895000Y-111545750D01*
X105895000Y-112656309D01*
X105991673Y-112889698D01*
X106170301Y-113068327D01*
X106403690Y-113165000D01*
X107514250Y-113165000D01*
X107673000Y-113006250D01*
X107673000Y-111387000D01*
X107927000Y-111387000D01*
X107927000Y-113006250D01*
X108085750Y-113165000D01*
X109196310Y-113165000D01*
X109429699Y-113068327D01*
X109608327Y-112889698D01*
X109705000Y-112656309D01*
X109705000Y-111545750D01*
X109546250Y-111387000D01*
X107927000Y-111387000D01*
X107673000Y-111387000D01*
X106053750Y-111387000D01*
X105895000Y-111545750D01*
X104552000Y-111545750D01*
X104552000Y-109863691D01*
X105895000Y-109863691D01*
X105895000Y-110974250D01*
X106053750Y-111133000D01*
X107673000Y-111133000D01*
X107673000Y-109513750D01*
X107927000Y-109513750D01*
X107927000Y-111133000D01*
X109546250Y-111133000D01*
X109705000Y-110974250D01*
X109705000Y-109863691D01*
X109608327Y-109630302D01*
X109429699Y-109451673D01*
X109196310Y-109355000D01*
X108085750Y-109355000D01*
X107927000Y-109513750D01*
X107673000Y-109513750D01*
X107514250Y-109355000D01*
X106403690Y-109355000D01*
X106170301Y-109451673D01*
X105991673Y-109630302D01*
X105895000Y-109863691D01*
X104552000Y-109863691D01*
X104552000Y-105484750D01*
X108815340Y-105484750D01*
X108815340Y-107075370D01*
X108912013Y-107308759D01*
X109090642Y-107487387D01*
X109324031Y-107584060D01*
X110914650Y-107584060D01*
X111073400Y-107425310D01*
X111073400Y-105326000D01*
X111327400Y-105326000D01*
X111327400Y-107425310D01*
X111486150Y-107584060D01*
X113076769Y-107584060D01*
X113310158Y-107487387D01*
X113488787Y-107308759D01*
X113585460Y-107075370D01*
X113585460Y-105484750D01*
X113426710Y-105326000D01*
X111327400Y-105326000D01*
X111073400Y-105326000D01*
X108974090Y-105326000D01*
X108815340Y-105484750D01*
X104552000Y-105484750D01*
X104552000Y-100785750D01*
X105815600Y-100785750D01*
X105815600Y-102376370D01*
X105912273Y-102609759D01*
X106090902Y-102788387D01*
X106324291Y-102885060D01*
X107914910Y-102885060D01*
X108073660Y-102726310D01*
X108073660Y-100627000D01*
X108327660Y-100627000D01*
X108327660Y-102726310D01*
X108486410Y-102885060D01*
X109152332Y-102885060D01*
X109090642Y-102910613D01*
X108912013Y-103089241D01*
X108815340Y-103322630D01*
X108815340Y-104913250D01*
X108974090Y-105072000D01*
X111073400Y-105072000D01*
X111073400Y-102972690D01*
X111327400Y-102972690D01*
X111327400Y-105072000D01*
X113426710Y-105072000D01*
X113585460Y-104913250D01*
X113585460Y-103322630D01*
X113488787Y-103089241D01*
X113310158Y-102910613D01*
X113076769Y-102813940D01*
X111486150Y-102813940D01*
X111327400Y-102972690D01*
X111073400Y-102972690D01*
X110914650Y-102813940D01*
X110248728Y-102813940D01*
X110310418Y-102788387D01*
X110489047Y-102609759D01*
X110585720Y-102376370D01*
X110585720Y-100785750D01*
X110426970Y-100627000D01*
X108327660Y-100627000D01*
X108073660Y-100627000D01*
X105974350Y-100627000D01*
X105815600Y-100785750D01*
X104552000Y-100785750D01*
X104552000Y-98623630D01*
X105815600Y-98623630D01*
X105815600Y-100214250D01*
X105974350Y-100373000D01*
X108073660Y-100373000D01*
X108073660Y-98273690D01*
X108327660Y-98273690D01*
X108327660Y-100373000D01*
X110426970Y-100373000D01*
X110585720Y-100214250D01*
X110585720Y-98623630D01*
X110489047Y-98390241D01*
X110310418Y-98211613D01*
X110077029Y-98114940D01*
X108486410Y-98114940D01*
X108327660Y-98273690D01*
X108073660Y-98273690D01*
X107914910Y-98114940D01*
X106324291Y-98114940D01*
X106090902Y-98211613D01*
X105912273Y-98390241D01*
X105815600Y-98623630D01*
X104552000Y-98623630D01*
X104552000Y-92285750D01*
X107565000Y-92285750D01*
X107565000Y-92776310D01*
X107661673Y-93009699D01*
X107840302Y-93188327D01*
X108073691Y-93285000D01*
X108264250Y-93285000D01*
X108423000Y-93126250D01*
X108423000Y-92127000D01*
X108677000Y-92127000D01*
X108677000Y-93126250D01*
X108835750Y-93285000D01*
X109026309Y-93285000D01*
X109259698Y-93188327D01*
X109438327Y-93009699D01*
X109535000Y-92776310D01*
X109535000Y-92285750D01*
X109376250Y-92127000D01*
X108677000Y-92127000D01*
X108423000Y-92127000D01*
X107723750Y-92127000D01*
X107565000Y-92285750D01*
X104552000Y-92285750D01*
X104552000Y-91223690D01*
X107565000Y-91223690D01*
X107565000Y-91714250D01*
X107723750Y-91873000D01*
X108423000Y-91873000D01*
X108423000Y-90873750D01*
X108677000Y-90873750D01*
X108677000Y-91873000D01*
X109376250Y-91873000D01*
X109535000Y-91714250D01*
X109535000Y-91223690D01*
X109438327Y-90990301D01*
X109259698Y-90811673D01*
X109026309Y-90715000D01*
X108835750Y-90715000D01*
X108677000Y-90873750D01*
X108423000Y-90873750D01*
X108264250Y-90715000D01*
X108073691Y-90715000D01*
X107840302Y-90811673D01*
X107661673Y-90990301D01*
X107565000Y-91223690D01*
X104552000Y-91223690D01*
X104552000Y-85054365D01*
X104900574Y-83301963D01*
X105862435Y-81862437D01*
X107301963Y-80900574D01*
X109054365Y-80552000D01*
X148945635Y-80552000D01*
X150698037Y-80900574D01*
X150698037Y-80900574D01*
G37*
X150698037Y-80900574D02*
X152137563Y-81862435D01*
X153099426Y-83301963D01*
X153448000Y-85054365D01*
X153448000Y-124945635D01*
X153099426Y-126698037D01*
X152137563Y-128137565D01*
X150698037Y-129099426D01*
X148945635Y-129448000D01*
X109054365Y-129448000D01*
X107301963Y-129099426D01*
X105862435Y-128137563D01*
X104900574Y-126698037D01*
X104552000Y-124945635D01*
X104552000Y-120285750D01*
X113740000Y-120285750D01*
X113740000Y-120626309D01*
X113836673Y-120859698D01*
X114015301Y-121038327D01*
X114248690Y-121135000D01*
X114714250Y-121135000D01*
X114873000Y-120976250D01*
X114873000Y-120127000D01*
X113898750Y-120127000D01*
X113740000Y-120285750D01*
X104552000Y-120285750D01*
X104552000Y-116685975D01*
X106052697Y-116685975D01*
X106318102Y-117328303D01*
X106809112Y-117820171D01*
X107450976Y-118086696D01*
X108145975Y-118087303D01*
X108788303Y-117821898D01*
X109280171Y-117330888D01*
X109546696Y-116689024D01*
X109546787Y-116584899D01*
X111845936Y-114285750D01*
X113740000Y-114285750D01*
X113740000Y-114626309D01*
X113836673Y-114859698D01*
X114015301Y-115038327D01*
X114134716Y-115087790D01*
X114035887Y-115151385D01*
X113926973Y-115310785D01*
X113888656Y-115500000D01*
X113888656Y-116500000D01*
X113921917Y-116676765D01*
X114026385Y-116839113D01*
X114123000Y-116905128D01*
X114123000Y-117095329D01*
X114035887Y-117151385D01*
X113926973Y-117310785D01*
X113888656Y-117500000D01*
X113888656Y-118500000D01*
X113921917Y-118676765D01*
X114026385Y-118839113D01*
X114133875Y-118912558D01*
X114015301Y-118961673D01*
X113836673Y-119140302D01*
X113740000Y-119373691D01*
X113740000Y-119714250D01*
X113898750Y-119873000D01*
X114873000Y-119873000D01*
X114873000Y-119853000D01*
X115127000Y-119853000D01*
X115127000Y-119873000D01*
X115147000Y-119873000D01*
X115147000Y-120127000D01*
X115127000Y-120127000D01*
X115127000Y-120976250D01*
X115285750Y-121135000D01*
X115751310Y-121135000D01*
X115984699Y-121038327D01*
X116030976Y-120992049D01*
X116046917Y-121076765D01*
X116151385Y-121239113D01*
X116310785Y-121348027D01*
X116500000Y-121386344D01*
X116613000Y-121386344D01*
X116613000Y-123935373D01*
X116595887Y-123946385D01*
X116486973Y-124105785D01*
X116448656Y-124295000D01*
X116448656Y-128105000D01*
X116481917Y-128281765D01*
X116586385Y-128444113D01*
X116745785Y-128553027D01*
X116935000Y-128591344D01*
X120745000Y-128591344D01*
X120921765Y-128558083D01*
X121084113Y-128453615D01*
X121193027Y-128294215D01*
X121231344Y-128105000D01*
X121231344Y-128006440D01*
X122293165Y-128006440D01*
X122502353Y-128367289D01*
X123439650Y-128744824D01*
X124450077Y-128734933D01*
X125337647Y-128367289D01*
X125546835Y-128006440D01*
X123920000Y-126379605D01*
X122293165Y-128006440D01*
X121231344Y-128006440D01*
X121231344Y-125719650D01*
X121375176Y-125719650D01*
X121385067Y-126730077D01*
X121752711Y-127617647D01*
X122113560Y-127826835D01*
X123740395Y-126200000D01*
X124099605Y-126200000D01*
X125726440Y-127826835D01*
X126087289Y-127617647D01*
X126464824Y-126680350D01*
X126454933Y-125669923D01*
X126087289Y-124782353D01*
X125726440Y-124573165D01*
X124099605Y-126200000D01*
X123740395Y-126200000D01*
X122113560Y-124573165D01*
X121752711Y-124782353D01*
X121375176Y-125719650D01*
X121231344Y-125719650D01*
X121231344Y-124393560D01*
X122293165Y-124393560D01*
X123920000Y-126020395D01*
X125546835Y-124393560D01*
X125337647Y-124032711D01*
X124400350Y-123655176D01*
X123389923Y-123665067D01*
X122502353Y-124032711D01*
X122293165Y-124393560D01*
X121231344Y-124393560D01*
X121231344Y-124295000D01*
X121198083Y-124118235D01*
X121093615Y-123955887D01*
X121067000Y-123937702D01*
X121067000Y-121386344D01*
X122500000Y-121386344D01*
X122676765Y-121353083D01*
X122839113Y-121248615D01*
X122948027Y-121089215D01*
X122986344Y-120900000D01*
X122986344Y-120285750D01*
X123240000Y-120285750D01*
X123240000Y-120626309D01*
X123336673Y-120859698D01*
X123515301Y-121038327D01*
X123748690Y-121135000D01*
X124214250Y-121135000D01*
X124373000Y-120976250D01*
X124373000Y-120127000D01*
X123398750Y-120127000D01*
X123240000Y-120285750D01*
X122986344Y-120285750D01*
X122986344Y-117900000D01*
X122953083Y-117723235D01*
X122848615Y-117560887D01*
X122827000Y-117546118D01*
X122827000Y-116456409D01*
X122839113Y-116448615D01*
X122948027Y-116289215D01*
X122986344Y-116100000D01*
X122986344Y-113373691D01*
X123240000Y-113373691D01*
X123240000Y-113714250D01*
X123398750Y-113873000D01*
X124373000Y-113873000D01*
X124373000Y-113023750D01*
X124214250Y-112865000D01*
X123748690Y-112865000D01*
X123515301Y-112961673D01*
X123336673Y-113140302D01*
X123240000Y-113373691D01*
X122986344Y-113373691D01*
X122986344Y-113100000D01*
X122953083Y-112923235D01*
X122848615Y-112760887D01*
X122689215Y-112651973D01*
X122500000Y-112613656D01*
X121531327Y-112613656D01*
X121548027Y-112589215D01*
X121586344Y-112400000D01*
X121586344Y-110253922D01*
X123620130Y-108220135D01*
X123620133Y-108220133D01*
X123770434Y-107995190D01*
X123810242Y-107935614D01*
X123877000Y-107600000D01*
X123877000Y-102463266D01*
X125123000Y-101217266D01*
X125123000Y-108100000D01*
X125189758Y-108435613D01*
X125379867Y-108720133D01*
X126913656Y-110253921D01*
X126913656Y-112400000D01*
X126946917Y-112576765D01*
X126970656Y-112613656D01*
X126000000Y-112613656D01*
X125823235Y-112646917D01*
X125660887Y-112751385D01*
X125551973Y-112910785D01*
X125532074Y-113009048D01*
X125484699Y-112961673D01*
X125251310Y-112865000D01*
X124785750Y-112865000D01*
X124627000Y-113023750D01*
X124627000Y-113873000D01*
X124647000Y-113873000D01*
X124647000Y-114127000D01*
X124627000Y-114127000D01*
X124627000Y-114147000D01*
X124373000Y-114147000D01*
X124373000Y-114127000D01*
X123398750Y-114127000D01*
X123240000Y-114285750D01*
X123240000Y-114626309D01*
X123336673Y-114859698D01*
X123515301Y-115038327D01*
X123634716Y-115087790D01*
X123535887Y-115151385D01*
X123426973Y-115310785D01*
X123388656Y-115500000D01*
X123388656Y-116500000D01*
X123421917Y-116676765D01*
X123526385Y-116839113D01*
X123623000Y-116905128D01*
X123623000Y-117095329D01*
X123535887Y-117151385D01*
X123426973Y-117310785D01*
X123388656Y-117500000D01*
X123388656Y-118500000D01*
X123421917Y-118676765D01*
X123526385Y-118839113D01*
X123633875Y-118912558D01*
X123515301Y-118961673D01*
X123336673Y-119140302D01*
X123240000Y-119373691D01*
X123240000Y-119714250D01*
X123398750Y-119873000D01*
X124373000Y-119873000D01*
X124373000Y-119853000D01*
X124627000Y-119853000D01*
X124627000Y-119873000D01*
X124647000Y-119873000D01*
X124647000Y-120127000D01*
X124627000Y-120127000D01*
X124627000Y-120976250D01*
X124785750Y-121135000D01*
X125251310Y-121135000D01*
X125484699Y-121038327D01*
X125530976Y-120992049D01*
X125546917Y-121076765D01*
X125651385Y-121239113D01*
X125810785Y-121348027D01*
X126000000Y-121386344D01*
X126773000Y-121386344D01*
X126773000Y-125351829D01*
X126618415Y-125724112D01*
X126617588Y-126671730D01*
X126979461Y-127547532D01*
X127648944Y-128218184D01*
X128524112Y-128581585D01*
X129471730Y-128582412D01*
X130347532Y-128220539D01*
X130562004Y-128006440D01*
X132453165Y-128006440D01*
X132662353Y-128367289D01*
X133599650Y-128744824D01*
X134610077Y-128734933D01*
X135497647Y-128367289D01*
X135706835Y-128006440D01*
X134080000Y-126379605D01*
X132453165Y-128006440D01*
X130562004Y-128006440D01*
X131018184Y-127551056D01*
X131381585Y-126675888D01*
X131382412Y-125728270D01*
X131378851Y-125719650D01*
X131535176Y-125719650D01*
X131545067Y-126730077D01*
X131912711Y-127617647D01*
X132273560Y-127826835D01*
X133900395Y-126200000D01*
X134259605Y-126200000D01*
X135886440Y-127826835D01*
X136247289Y-127617647D01*
X136624824Y-126680350D01*
X136614933Y-125669923D01*
X136247289Y-124782353D01*
X135886440Y-124573165D01*
X134259605Y-126200000D01*
X133900395Y-126200000D01*
X132273560Y-124573165D01*
X131912711Y-124782353D01*
X131535176Y-125719650D01*
X131378851Y-125719650D01*
X131227000Y-125352143D01*
X131227000Y-124393560D01*
X132453165Y-124393560D01*
X134080000Y-126020395D01*
X135706835Y-124393560D01*
X135497647Y-124032711D01*
X134560350Y-123655176D01*
X133549923Y-123665067D01*
X132662353Y-124032711D01*
X132453165Y-124393560D01*
X131227000Y-124393560D01*
X131227000Y-121386344D01*
X132000000Y-121386344D01*
X132176765Y-121353083D01*
X132339113Y-121248615D01*
X132448027Y-121089215D01*
X132486344Y-120900000D01*
X132486344Y-120285750D01*
X132740000Y-120285750D01*
X132740000Y-120626309D01*
X132836673Y-120859698D01*
X133015301Y-121038327D01*
X133248690Y-121135000D01*
X133714250Y-121135000D01*
X133873000Y-120976250D01*
X133873000Y-120127000D01*
X132898750Y-120127000D01*
X132740000Y-120285750D01*
X132486344Y-120285750D01*
X132486344Y-117900000D01*
X132453083Y-117723235D01*
X132348615Y-117560887D01*
X132327000Y-117546118D01*
X132327000Y-116456409D01*
X132339113Y-116448615D01*
X132448027Y-116289215D01*
X132486344Y-116100000D01*
X132486344Y-113373691D01*
X132740000Y-113373691D01*
X132740000Y-113714250D01*
X132898750Y-113873000D01*
X133873000Y-113873000D01*
X133873000Y-113023750D01*
X133714250Y-112865000D01*
X133248690Y-112865000D01*
X133015301Y-112961673D01*
X132836673Y-113140302D01*
X132740000Y-113373691D01*
X132486344Y-113373691D01*
X132486344Y-113100000D01*
X132453083Y-112923235D01*
X132348615Y-112760887D01*
X132189215Y-112651973D01*
X132000000Y-112613656D01*
X131031327Y-112613656D01*
X131048027Y-112589215D01*
X131086344Y-112400000D01*
X131086344Y-109800000D01*
X131053083Y-109623235D01*
X130948615Y-109460887D01*
X130789215Y-109351973D01*
X130600000Y-109313656D01*
X128453921Y-109313656D01*
X126877000Y-107736734D01*
X126877000Y-101363266D01*
X128448000Y-99792266D01*
X128448000Y-102113656D01*
X127400000Y-102113656D01*
X127223235Y-102146917D01*
X127060887Y-102251385D01*
X126951973Y-102410785D01*
X126913656Y-102600000D01*
X126913656Y-105200000D01*
X126946917Y-105376765D01*
X127051385Y-105539113D01*
X127210785Y-105648027D01*
X127400000Y-105686344D01*
X130600000Y-105686344D01*
X130776765Y-105653083D01*
X130939113Y-105548615D01*
X131048027Y-105389215D01*
X131086344Y-105200000D01*
X131086344Y-102600000D01*
X131053083Y-102423235D01*
X130948615Y-102260887D01*
X130789215Y-102151973D01*
X130600000Y-102113656D01*
X130202000Y-102113656D01*
X130202000Y-99692266D01*
X133873000Y-103363265D01*
X133873000Y-107350000D01*
X133939758Y-107685613D01*
X134129867Y-107970133D01*
X136413656Y-110253922D01*
X136413656Y-112400000D01*
X136446917Y-112576765D01*
X136470656Y-112613656D01*
X135500000Y-112613656D01*
X135323235Y-112646917D01*
X135160887Y-112751385D01*
X135051973Y-112910785D01*
X135032074Y-113009048D01*
X134984699Y-112961673D01*
X134751310Y-112865000D01*
X134285750Y-112865000D01*
X134127000Y-113023750D01*
X134127000Y-113873000D01*
X134147000Y-113873000D01*
X134147000Y-114127000D01*
X134127000Y-114127000D01*
X134127000Y-114147000D01*
X133873000Y-114147000D01*
X133873000Y-114127000D01*
X132898750Y-114127000D01*
X132740000Y-114285750D01*
X132740000Y-114626309D01*
X132836673Y-114859698D01*
X133015301Y-115038327D01*
X133134716Y-115087790D01*
X133035887Y-115151385D01*
X132926973Y-115310785D01*
X132888656Y-115500000D01*
X132888656Y-116500000D01*
X132921917Y-116676765D01*
X133026385Y-116839113D01*
X133123000Y-116905128D01*
X133123000Y-117095329D01*
X133035887Y-117151385D01*
X132926973Y-117310785D01*
X132888656Y-117500000D01*
X132888656Y-118500000D01*
X132921917Y-118676765D01*
X133026385Y-118839113D01*
X133133875Y-118912558D01*
X133015301Y-118961673D01*
X132836673Y-119140302D01*
X132740000Y-119373691D01*
X132740000Y-119714250D01*
X132898750Y-119873000D01*
X133873000Y-119873000D01*
X133873000Y-119853000D01*
X134127000Y-119853000D01*
X134127000Y-119873000D01*
X134147000Y-119873000D01*
X134147000Y-120127000D01*
X134127000Y-120127000D01*
X134127000Y-120976250D01*
X134285750Y-121135000D01*
X134751310Y-121135000D01*
X134984699Y-121038327D01*
X135030976Y-120992049D01*
X135046917Y-121076765D01*
X135151385Y-121239113D01*
X135310785Y-121348027D01*
X135500000Y-121386344D01*
X136933000Y-121386344D01*
X136933000Y-125351829D01*
X136778415Y-125724112D01*
X136777588Y-126671730D01*
X137139461Y-127547532D01*
X137808944Y-128218184D01*
X138684112Y-128581585D01*
X139631730Y-128582412D01*
X140507532Y-128220539D01*
X141178184Y-127551056D01*
X141541585Y-126675888D01*
X141542412Y-125728270D01*
X141387000Y-125352143D01*
X141387000Y-121386344D01*
X141500000Y-121386344D01*
X141676765Y-121353083D01*
X141839113Y-121248615D01*
X141948027Y-121089215D01*
X141986344Y-120900000D01*
X141986344Y-120885750D01*
X144715000Y-120885750D01*
X144715000Y-121076309D01*
X144811673Y-121309698D01*
X144990301Y-121488327D01*
X145223690Y-121585000D01*
X145714250Y-121585000D01*
X145873000Y-121426250D01*
X145873000Y-120727000D01*
X146127000Y-120727000D01*
X146127000Y-121426250D01*
X146285750Y-121585000D01*
X146776310Y-121585000D01*
X147009699Y-121488327D01*
X147188327Y-121309698D01*
X147285000Y-121076309D01*
X147285000Y-120885750D01*
X147126250Y-120727000D01*
X146127000Y-120727000D01*
X145873000Y-120727000D01*
X144873750Y-120727000D01*
X144715000Y-120885750D01*
X141986344Y-120885750D01*
X141986344Y-120527000D01*
X142230011Y-120527000D01*
X142260785Y-120548027D01*
X142450000Y-120586344D01*
X143750000Y-120586344D01*
X143926765Y-120553083D01*
X144089113Y-120448615D01*
X144198027Y-120289215D01*
X144231546Y-120123691D01*
X144715000Y-120123691D01*
X144715000Y-120314250D01*
X144873750Y-120473000D01*
X145873000Y-120473000D01*
X145873000Y-119773750D01*
X146127000Y-119773750D01*
X146127000Y-120473000D01*
X147126250Y-120473000D01*
X147285000Y-120314250D01*
X147285000Y-120123691D01*
X147188327Y-119890302D01*
X147009699Y-119711673D01*
X146776310Y-119615000D01*
X146285750Y-119615000D01*
X146127000Y-119773750D01*
X145873000Y-119773750D01*
X145714250Y-119615000D01*
X145223690Y-119615000D01*
X144990301Y-119711673D01*
X144811673Y-119890302D01*
X144715000Y-120123691D01*
X144231546Y-120123691D01*
X144236344Y-120100000D01*
X144236344Y-119400000D01*
X144203083Y-119223235D01*
X144127000Y-119104999D01*
X144127000Y-118493166D01*
X144198027Y-118389215D01*
X144236344Y-118200000D01*
X144236344Y-117500000D01*
X144203083Y-117323235D01*
X144127000Y-117204999D01*
X144127000Y-117056578D01*
X144173027Y-116989215D01*
X144211344Y-116800000D01*
X144211344Y-116443485D01*
X144272830Y-116443485D01*
X144421256Y-116802703D01*
X144695851Y-117077778D01*
X145054810Y-117226830D01*
X145443485Y-117227170D01*
X145802703Y-117078744D01*
X145814468Y-117067000D01*
X148728812Y-117067000D01*
X148915040Y-117345710D01*
X149272020Y-117584237D01*
X149272020Y-117647989D01*
X149110467Y-117751945D01*
X149001553Y-117911345D01*
X149000102Y-117918510D01*
X148899035Y-117761447D01*
X148739635Y-117652533D01*
X148550420Y-117614216D01*
X147351540Y-117614216D01*
X147174775Y-117647477D01*
X147012427Y-117751945D01*
X146903513Y-117911345D01*
X146901153Y-117923000D01*
X146869989Y-117923000D01*
X146839215Y-117901973D01*
X146650000Y-117863656D01*
X145350000Y-117863656D01*
X145173235Y-117896917D01*
X145010887Y-118001385D01*
X144901973Y-118160785D01*
X144863656Y-118350000D01*
X144863656Y-119050000D01*
X144896917Y-119226765D01*
X145001385Y-119389113D01*
X145160785Y-119498027D01*
X145350000Y-119536344D01*
X146650000Y-119536344D01*
X146826765Y-119503083D01*
X146867299Y-119477000D01*
X146898969Y-119477000D01*
X147002925Y-119638553D01*
X147162325Y-119747467D01*
X147351540Y-119785784D01*
X148550420Y-119785784D01*
X148727185Y-119752523D01*
X148889533Y-119648055D01*
X148998447Y-119488655D01*
X148999898Y-119481490D01*
X149100965Y-119638553D01*
X149260365Y-119747467D01*
X149449580Y-119785784D01*
X150648460Y-119785784D01*
X150825225Y-119752523D01*
X150987573Y-119648055D01*
X151096487Y-119488655D01*
X151134804Y-119299440D01*
X151134804Y-118100560D01*
X151101543Y-117923795D01*
X150997075Y-117761447D01*
X150837675Y-117652533D01*
X150826020Y-117650173D01*
X150826020Y-117518728D01*
X151084960Y-117345710D01*
X151408602Y-116861346D01*
X151522250Y-116290000D01*
X151408602Y-115718654D01*
X151184637Y-115383467D01*
X151375698Y-115304327D01*
X151554327Y-115125699D01*
X151651000Y-114892310D01*
X151651000Y-114035750D01*
X151492250Y-113877000D01*
X150127000Y-113877000D01*
X150127000Y-113897000D01*
X149873000Y-113897000D01*
X149873000Y-113877000D01*
X148507750Y-113877000D01*
X148349000Y-114035750D01*
X148349000Y-114892310D01*
X148445673Y-115125699D01*
X148624302Y-115304327D01*
X148815363Y-115383467D01*
X148728812Y-115513000D01*
X145894769Y-115513000D01*
X145804149Y-115422222D01*
X145445190Y-115273170D01*
X145056515Y-115272830D01*
X144697297Y-115421256D01*
X144422222Y-115695851D01*
X144273170Y-116054810D01*
X144272830Y-116443485D01*
X144211344Y-116443485D01*
X144211344Y-115800000D01*
X144178083Y-115623235D01*
X144127000Y-115543850D01*
X144127000Y-115056577D01*
X144173027Y-114989215D01*
X144211344Y-114800000D01*
X144211344Y-113800000D01*
X144178083Y-113623235D01*
X144073615Y-113460887D01*
X143914215Y-113351973D01*
X143725000Y-113313656D01*
X142475000Y-113313656D01*
X142298235Y-113346917D01*
X142179999Y-113423000D01*
X141986344Y-113423000D01*
X141986344Y-113100000D01*
X141953083Y-112923235D01*
X141848615Y-112760887D01*
X141689215Y-112651973D01*
X141500000Y-112613656D01*
X140531327Y-112613656D01*
X140548027Y-112589215D01*
X140586344Y-112400000D01*
X140586344Y-112385750D01*
X144715000Y-112385750D01*
X144715000Y-112576309D01*
X144811673Y-112809698D01*
X144990301Y-112988327D01*
X145223690Y-113085000D01*
X145714250Y-113085000D01*
X145873000Y-112926250D01*
X145873000Y-112227000D01*
X146127000Y-112227000D01*
X146127000Y-112926250D01*
X146285750Y-113085000D01*
X146776310Y-113085000D01*
X147009699Y-112988327D01*
X147188327Y-112809698D01*
X147272001Y-112607690D01*
X148349000Y-112607690D01*
X148349000Y-113464250D01*
X148507750Y-113623000D01*
X149873000Y-113623000D01*
X149873000Y-112257750D01*
X150127000Y-112257750D01*
X150127000Y-113623000D01*
X151492250Y-113623000D01*
X151651000Y-113464250D01*
X151651000Y-112607690D01*
X151554327Y-112374301D01*
X151375698Y-112195673D01*
X151142309Y-112099000D01*
X150285750Y-112099000D01*
X150127000Y-112257750D01*
X149873000Y-112257750D01*
X149714250Y-112099000D01*
X148857691Y-112099000D01*
X148624302Y-112195673D01*
X148445673Y-112374301D01*
X148349000Y-112607690D01*
X147272001Y-112607690D01*
X147285000Y-112576309D01*
X147285000Y-112385750D01*
X147126250Y-112227000D01*
X146127000Y-112227000D01*
X145873000Y-112227000D01*
X144873750Y-112227000D01*
X144715000Y-112385750D01*
X140586344Y-112385750D01*
X140586344Y-111623691D01*
X144715000Y-111623691D01*
X144715000Y-111814250D01*
X144873750Y-111973000D01*
X145873000Y-111973000D01*
X145873000Y-111273750D01*
X146127000Y-111273750D01*
X146127000Y-111973000D01*
X147126250Y-111973000D01*
X147285000Y-111814250D01*
X147285000Y-111623691D01*
X147188327Y-111390302D01*
X147009699Y-111211673D01*
X146776310Y-111115000D01*
X146285750Y-111115000D01*
X146127000Y-111273750D01*
X145873000Y-111273750D01*
X145714250Y-111115000D01*
X145223690Y-111115000D01*
X144990301Y-111211673D01*
X144811673Y-111390302D01*
X144715000Y-111623691D01*
X140586344Y-111623691D01*
X140586344Y-109850000D01*
X144863656Y-109850000D01*
X144863656Y-110550000D01*
X144896917Y-110726765D01*
X145001385Y-110889113D01*
X145160785Y-110998027D01*
X145350000Y-111036344D01*
X146650000Y-111036344D01*
X146826765Y-111003083D01*
X146854336Y-110985341D01*
X146952925Y-111138553D01*
X147112325Y-111247467D01*
X147301540Y-111285784D01*
X148500420Y-111285784D01*
X148677185Y-111252523D01*
X148839533Y-111148055D01*
X148948447Y-110988655D01*
X148949898Y-110981490D01*
X149050965Y-111138553D01*
X149210365Y-111247467D01*
X149399580Y-111285784D01*
X150598460Y-111285784D01*
X150775225Y-111252523D01*
X150937573Y-111148055D01*
X151046487Y-110988655D01*
X151084804Y-110799440D01*
X151084804Y-109600560D01*
X151051543Y-109423795D01*
X150947075Y-109261447D01*
X150787675Y-109152533D01*
X150776020Y-109150173D01*
X150776020Y-109052137D01*
X151084960Y-108845710D01*
X151408602Y-108361346D01*
X151522250Y-107790000D01*
X151408602Y-107218654D01*
X151184637Y-106883467D01*
X151375698Y-106804327D01*
X151554327Y-106625699D01*
X151651000Y-106392310D01*
X151651000Y-105535750D01*
X151492250Y-105377000D01*
X150127000Y-105377000D01*
X150127000Y-105397000D01*
X149873000Y-105397000D01*
X149873000Y-105377000D01*
X148507750Y-105377000D01*
X148349000Y-105535750D01*
X148349000Y-106392310D01*
X148445673Y-106625699D01*
X148624302Y-106804327D01*
X148815363Y-106883467D01*
X148728812Y-107013000D01*
X147044856Y-107013000D01*
X147004149Y-106972222D01*
X146645190Y-106823170D01*
X146256515Y-106822830D01*
X145897297Y-106971256D01*
X145622222Y-107245851D01*
X145473170Y-107604810D01*
X145472830Y-107993485D01*
X145621256Y-108352703D01*
X145895851Y-108627778D01*
X146254810Y-108776830D01*
X146643485Y-108777170D01*
X147002703Y-108628744D01*
X147064555Y-108567000D01*
X148728812Y-108567000D01*
X148915040Y-108845710D01*
X149222020Y-109050828D01*
X149222020Y-109147989D01*
X149060467Y-109251945D01*
X148951553Y-109411345D01*
X148950102Y-109418510D01*
X148849035Y-109261447D01*
X148689635Y-109152533D01*
X148500420Y-109114216D01*
X147301540Y-109114216D01*
X147124775Y-109147477D01*
X146962427Y-109251945D01*
X146853513Y-109411345D01*
X146853442Y-109411694D01*
X146839215Y-109401973D01*
X146650000Y-109363656D01*
X145350000Y-109363656D01*
X145173235Y-109396917D01*
X145010887Y-109501385D01*
X144901973Y-109660785D01*
X144863656Y-109850000D01*
X140586344Y-109850000D01*
X140586344Y-109800000D01*
X140553083Y-109623235D01*
X140448615Y-109460887D01*
X140289215Y-109351973D01*
X140100000Y-109313656D01*
X137953922Y-109313656D01*
X135627000Y-106986734D01*
X135627000Y-103117265D01*
X136413656Y-103903921D01*
X136413656Y-105200000D01*
X136446917Y-105376765D01*
X136551385Y-105539113D01*
X136710785Y-105648027D01*
X136900000Y-105686344D01*
X140100000Y-105686344D01*
X140276765Y-105653083D01*
X140439113Y-105548615D01*
X140548027Y-105389215D01*
X140586344Y-105200000D01*
X140586344Y-103935750D01*
X144715000Y-103935750D01*
X144715000Y-104126309D01*
X144811673Y-104359698D01*
X144990301Y-104538327D01*
X145223690Y-104635000D01*
X145714250Y-104635000D01*
X145873000Y-104476250D01*
X145873000Y-103777000D01*
X146127000Y-103777000D01*
X146127000Y-104476250D01*
X146285750Y-104635000D01*
X146776310Y-104635000D01*
X147009699Y-104538327D01*
X147188327Y-104359698D01*
X147285000Y-104126309D01*
X147285000Y-104107690D01*
X148349000Y-104107690D01*
X148349000Y-104964250D01*
X148507750Y-105123000D01*
X149873000Y-105123000D01*
X149873000Y-103757750D01*
X150127000Y-103757750D01*
X150127000Y-105123000D01*
X151492250Y-105123000D01*
X151651000Y-104964250D01*
X151651000Y-104107690D01*
X151554327Y-103874301D01*
X151375698Y-103695673D01*
X151142309Y-103599000D01*
X150285750Y-103599000D01*
X150127000Y-103757750D01*
X149873000Y-103757750D01*
X149714250Y-103599000D01*
X148857691Y-103599000D01*
X148624302Y-103695673D01*
X148445673Y-103874301D01*
X148349000Y-104107690D01*
X147285000Y-104107690D01*
X147285000Y-103935750D01*
X147126250Y-103777000D01*
X146127000Y-103777000D01*
X145873000Y-103777000D01*
X144873750Y-103777000D01*
X144715000Y-103935750D01*
X140586344Y-103935750D01*
X140586344Y-103173691D01*
X144715000Y-103173691D01*
X144715000Y-103364250D01*
X144873750Y-103523000D01*
X145873000Y-103523000D01*
X145873000Y-102823750D01*
X146127000Y-102823750D01*
X146127000Y-103523000D01*
X147126250Y-103523000D01*
X147285000Y-103364250D01*
X147285000Y-103173691D01*
X147188327Y-102940302D01*
X147009699Y-102761673D01*
X146776310Y-102665000D01*
X146285750Y-102665000D01*
X146127000Y-102823750D01*
X145873000Y-102823750D01*
X145714250Y-102665000D01*
X145223690Y-102665000D01*
X144990301Y-102761673D01*
X144811673Y-102940302D01*
X144715000Y-103173691D01*
X140586344Y-103173691D01*
X140586344Y-102600000D01*
X140553083Y-102423235D01*
X140448615Y-102260887D01*
X140289215Y-102151973D01*
X140100000Y-102113656D01*
X137103921Y-102113656D01*
X136390266Y-101400000D01*
X144863656Y-101400000D01*
X144863656Y-102100000D01*
X144896917Y-102276765D01*
X145001385Y-102439113D01*
X145160785Y-102548027D01*
X145350000Y-102586344D01*
X146650000Y-102586344D01*
X146826765Y-102553083D01*
X146867299Y-102527000D01*
X146898969Y-102527000D01*
X147002925Y-102688553D01*
X147162325Y-102797467D01*
X147351540Y-102835784D01*
X148550420Y-102835784D01*
X148727185Y-102802523D01*
X148889533Y-102698055D01*
X148998447Y-102538655D01*
X148999898Y-102531490D01*
X149100965Y-102688553D01*
X149260365Y-102797467D01*
X149449580Y-102835784D01*
X150648460Y-102835784D01*
X150825225Y-102802523D01*
X150987573Y-102698055D01*
X151096487Y-102538655D01*
X151134804Y-102349440D01*
X151134804Y-101150560D01*
X151101543Y-100973795D01*
X150997075Y-100811447D01*
X150837675Y-100702533D01*
X150826020Y-100700173D01*
X150826020Y-100568728D01*
X151084960Y-100395710D01*
X151408602Y-99911346D01*
X151522250Y-99340000D01*
X151408602Y-98768654D01*
X151184637Y-98433467D01*
X151375698Y-98354327D01*
X151554327Y-98175699D01*
X151651000Y-97942310D01*
X151651000Y-97085750D01*
X151492250Y-96927000D01*
X150127000Y-96927000D01*
X150127000Y-96947000D01*
X149873000Y-96947000D01*
X149873000Y-96927000D01*
X148507750Y-96927000D01*
X148349000Y-97085750D01*
X148349000Y-97942310D01*
X148445673Y-98175699D01*
X148624302Y-98354327D01*
X148815363Y-98433467D01*
X148591398Y-98768654D01*
X148477750Y-99340000D01*
X148591398Y-99911346D01*
X148915040Y-100395710D01*
X149272020Y-100634237D01*
X149272020Y-100697989D01*
X149110467Y-100801945D01*
X149001553Y-100961345D01*
X149000102Y-100968510D01*
X148899035Y-100811447D01*
X148739635Y-100702533D01*
X148550420Y-100664216D01*
X147351540Y-100664216D01*
X147174775Y-100697477D01*
X147012427Y-100801945D01*
X146903513Y-100961345D01*
X146901153Y-100973000D01*
X146869989Y-100973000D01*
X146839215Y-100951973D01*
X146650000Y-100913656D01*
X145350000Y-100913656D01*
X145173235Y-100946917D01*
X145010887Y-101051385D01*
X144901973Y-101210785D01*
X144863656Y-101400000D01*
X136390266Y-101400000D01*
X134167194Y-99176928D01*
X134483093Y-99177204D01*
X134915846Y-98998394D01*
X134987365Y-98927000D01*
X146200000Y-98927000D01*
X146249410Y-98916994D01*
X146291035Y-98888553D01*
X146318315Y-98846159D01*
X146327000Y-98800000D01*
X146327000Y-96671142D01*
X146336344Y-96625000D01*
X146336344Y-95657690D01*
X148349000Y-95657690D01*
X148349000Y-96514250D01*
X148507750Y-96673000D01*
X149873000Y-96673000D01*
X149873000Y-95307750D01*
X150127000Y-95307750D01*
X150127000Y-96673000D01*
X151492250Y-96673000D01*
X151651000Y-96514250D01*
X151651000Y-95657690D01*
X151554327Y-95424301D01*
X151375698Y-95245673D01*
X151142309Y-95149000D01*
X150285750Y-95149000D01*
X150127000Y-95307750D01*
X149873000Y-95307750D01*
X149714250Y-95149000D01*
X148857691Y-95149000D01*
X148624302Y-95245673D01*
X148445673Y-95424301D01*
X148349000Y-95657690D01*
X146336344Y-95657690D01*
X146336344Y-95375000D01*
X146327000Y-95325341D01*
X146327000Y-93221142D01*
X146336344Y-93175000D01*
X146336344Y-91925000D01*
X146327000Y-91875341D01*
X146327000Y-89771142D01*
X146336344Y-89725000D01*
X146336344Y-88475000D01*
X146303083Y-88298235D01*
X146198615Y-88135887D01*
X146039215Y-88026973D01*
X145850000Y-87988656D01*
X144850000Y-87988656D01*
X144673235Y-88021917D01*
X144510887Y-88126385D01*
X144401973Y-88285785D01*
X144374186Y-88423000D01*
X144326559Y-88423000D01*
X144303083Y-88298235D01*
X144198615Y-88135887D01*
X144039215Y-88026973D01*
X143850000Y-87988656D01*
X142850000Y-87988656D01*
X142673235Y-88021917D01*
X142510887Y-88126385D01*
X142401973Y-88285785D01*
X142397543Y-88307663D01*
X142389215Y-88301973D01*
X142200000Y-88263656D01*
X140900000Y-88263656D01*
X140723235Y-88296917D01*
X140560887Y-88401385D01*
X140546118Y-88423000D01*
X140406409Y-88423000D01*
X140398615Y-88410887D01*
X140239215Y-88301973D01*
X140050000Y-88263656D01*
X139226944Y-88263656D01*
X139227151Y-88026319D01*
X139093918Y-87703869D01*
X138867445Y-87477000D01*
X139447068Y-87477000D01*
X139551385Y-87639113D01*
X139710785Y-87748027D01*
X139900000Y-87786344D01*
X142650000Y-87786344D01*
X142826765Y-87753083D01*
X142989113Y-87648615D01*
X143098027Y-87489215D01*
X143100501Y-87477000D01*
X143350000Y-87477000D01*
X143609077Y-87425466D01*
X143828711Y-87278711D01*
X144178711Y-86928711D01*
X144325467Y-86709076D01*
X144339934Y-86636344D01*
X144350000Y-86636344D01*
X144526765Y-86603083D01*
X144689113Y-86498615D01*
X144798027Y-86339215D01*
X144836344Y-86150000D01*
X144836344Y-85450000D01*
X144803083Y-85273235D01*
X144698615Y-85110887D01*
X144539215Y-85001973D01*
X144350000Y-84963656D01*
X143050000Y-84963656D01*
X142873235Y-84996917D01*
X142710887Y-85101385D01*
X142601973Y-85260785D01*
X142563656Y-85450000D01*
X142563656Y-85813656D01*
X139900000Y-85813656D01*
X139723235Y-85846917D01*
X139560887Y-85951385D01*
X139451973Y-86110785D01*
X139449499Y-86123000D01*
X137352932Y-86123000D01*
X137248615Y-85960887D01*
X137089215Y-85851973D01*
X136900000Y-85813656D01*
X134150000Y-85813656D01*
X133973235Y-85846917D01*
X133810887Y-85951385D01*
X133701973Y-86110785D01*
X133699499Y-86123000D01*
X133106409Y-86123000D01*
X133098615Y-86110887D01*
X132939215Y-86001973D01*
X132750000Y-85963656D01*
X131450000Y-85963656D01*
X131273235Y-85996917D01*
X131110887Y-86101385D01*
X131001973Y-86260785D01*
X130963656Y-86450000D01*
X130963656Y-87014276D01*
X130627000Y-87350932D01*
X130627000Y-86306409D01*
X130639113Y-86298615D01*
X130748027Y-86139215D01*
X130786344Y-85950000D01*
X130786344Y-84650000D01*
X130767528Y-84550000D01*
X130963656Y-84550000D01*
X130963656Y-85250000D01*
X130996917Y-85426765D01*
X131101385Y-85589113D01*
X131260785Y-85698027D01*
X131450000Y-85736344D01*
X132750000Y-85736344D01*
X132926765Y-85703083D01*
X133089113Y-85598615D01*
X133198027Y-85439215D01*
X133236344Y-85250000D01*
X133236344Y-84550000D01*
X133203083Y-84373235D01*
X133098615Y-84210887D01*
X132939215Y-84101973D01*
X132750000Y-84063656D01*
X132677000Y-84063656D01*
X132677000Y-83813365D01*
X132743051Y-83747429D01*
X132876847Y-83425211D01*
X132877142Y-83085750D01*
X133515000Y-83085750D01*
X133515000Y-83426310D01*
X133611673Y-83659699D01*
X133790302Y-83838327D01*
X134023691Y-83935000D01*
X135239250Y-83935000D01*
X135398000Y-83776250D01*
X135398000Y-82927000D01*
X135652000Y-82927000D01*
X135652000Y-83776250D01*
X135810750Y-83935000D01*
X137026309Y-83935000D01*
X137259698Y-83838327D01*
X137438327Y-83659699D01*
X137535000Y-83426310D01*
X137535000Y-83085750D01*
X139265000Y-83085750D01*
X139265000Y-83426310D01*
X139361673Y-83659699D01*
X139540302Y-83838327D01*
X139773691Y-83935000D01*
X140989250Y-83935000D01*
X141148000Y-83776250D01*
X141148000Y-82927000D01*
X141402000Y-82927000D01*
X141402000Y-83776250D01*
X141560750Y-83935000D01*
X142415000Y-83935000D01*
X142415000Y-84027002D01*
X142573748Y-84027002D01*
X142415000Y-84185750D01*
X142415000Y-84376309D01*
X142511673Y-84609698D01*
X142690301Y-84788327D01*
X142923690Y-84885000D01*
X143414250Y-84885000D01*
X143573000Y-84726250D01*
X143573000Y-84027000D01*
X143827000Y-84027000D01*
X143827000Y-84726250D01*
X143985750Y-84885000D01*
X144476310Y-84885000D01*
X144709699Y-84788327D01*
X144888327Y-84609698D01*
X144985000Y-84376309D01*
X144985000Y-84185750D01*
X144826250Y-84027000D01*
X143827000Y-84027000D01*
X143573000Y-84027000D01*
X143553000Y-84027000D01*
X143553000Y-83773000D01*
X143573000Y-83773000D01*
X143573000Y-83073750D01*
X143827000Y-83073750D01*
X143827000Y-83773000D01*
X144826250Y-83773000D01*
X144985000Y-83614250D01*
X144985000Y-83423691D01*
X144888327Y-83190302D01*
X144709699Y-83011673D01*
X144476310Y-82915000D01*
X143985750Y-82915000D01*
X143827000Y-83073750D01*
X143573000Y-83073750D01*
X143414250Y-82915000D01*
X142923690Y-82915000D01*
X142894719Y-82927000D01*
X141402000Y-82927000D01*
X141148000Y-82927000D01*
X139423750Y-82927000D01*
X139265000Y-83085750D01*
X137535000Y-83085750D01*
X137376250Y-82927000D01*
X135652000Y-82927000D01*
X135398000Y-82927000D01*
X133673750Y-82927000D01*
X133515000Y-83085750D01*
X132877142Y-83085750D01*
X132877151Y-83076319D01*
X132743918Y-82753869D01*
X132497429Y-82506949D01*
X132175211Y-82373153D01*
X131826319Y-82372849D01*
X131503869Y-82506082D01*
X131256949Y-82752571D01*
X131123153Y-83074789D01*
X131122849Y-83423681D01*
X131256082Y-83746131D01*
X131323000Y-83813166D01*
X131323000Y-84087553D01*
X131273235Y-84096917D01*
X131110887Y-84201385D01*
X131001973Y-84360785D01*
X130963656Y-84550000D01*
X130767528Y-84550000D01*
X130753083Y-84473235D01*
X130648615Y-84310887D01*
X130602000Y-84279036D01*
X130602000Y-84222497D01*
X130639113Y-84198615D01*
X130748027Y-84039215D01*
X130786344Y-83850000D01*
X130786344Y-82550000D01*
X130753083Y-82373235D01*
X130648615Y-82210887D01*
X130594176Y-82173690D01*
X133515000Y-82173690D01*
X133515000Y-82514250D01*
X133673750Y-82673000D01*
X135398000Y-82673000D01*
X135398000Y-81823750D01*
X135652000Y-81823750D01*
X135652000Y-82673000D01*
X137376250Y-82673000D01*
X137535000Y-82514250D01*
X137535000Y-82173690D01*
X139265000Y-82173690D01*
X139265000Y-82514250D01*
X139423750Y-82673000D01*
X141148000Y-82673000D01*
X141148000Y-81823750D01*
X141402000Y-81823750D01*
X141402000Y-82673000D01*
X143126250Y-82673000D01*
X143285000Y-82514250D01*
X143285000Y-82173690D01*
X143188327Y-81940301D01*
X143009698Y-81761673D01*
X142776309Y-81665000D01*
X141560750Y-81665000D01*
X141402000Y-81823750D01*
X141148000Y-81823750D01*
X140989250Y-81665000D01*
X139773691Y-81665000D01*
X139540302Y-81761673D01*
X139361673Y-81940301D01*
X139265000Y-82173690D01*
X137535000Y-82173690D01*
X137438327Y-81940301D01*
X137259698Y-81761673D01*
X137026309Y-81665000D01*
X135810750Y-81665000D01*
X135652000Y-81823750D01*
X135398000Y-81823750D01*
X135239250Y-81665000D01*
X134023691Y-81665000D01*
X133790302Y-81761673D01*
X133611673Y-81940301D01*
X133515000Y-82173690D01*
X130594176Y-82173690D01*
X130489215Y-82101973D01*
X130300000Y-82063656D01*
X129600000Y-82063656D01*
X129423235Y-82096917D01*
X129260887Y-82201385D01*
X129151973Y-82360785D01*
X129113656Y-82550000D01*
X129113656Y-83850000D01*
X129146917Y-84026765D01*
X129251385Y-84189113D01*
X129298000Y-84220964D01*
X129298000Y-84277503D01*
X129260887Y-84301385D01*
X129151973Y-84460785D01*
X129113656Y-84650000D01*
X129113656Y-85950000D01*
X129146917Y-86126765D01*
X129208904Y-86223095D01*
X128974284Y-86222891D01*
X129035000Y-86076310D01*
X129035000Y-85585750D01*
X128876250Y-85427000D01*
X128177000Y-85427000D01*
X128177000Y-85447000D01*
X127923000Y-85447000D01*
X127923000Y-85427000D01*
X127903000Y-85427000D01*
X127903000Y-85173000D01*
X127923000Y-85173000D01*
X127923000Y-83327000D01*
X128177000Y-83327000D01*
X128177000Y-85173000D01*
X128876250Y-85173000D01*
X129035000Y-85014250D01*
X129035000Y-84523690D01*
X128938327Y-84290301D01*
X128898026Y-84250000D01*
X128938327Y-84209699D01*
X129035000Y-83976310D01*
X129035000Y-83485750D01*
X128876250Y-83327000D01*
X128177000Y-83327000D01*
X127923000Y-83327000D01*
X127903000Y-83327000D01*
X127903000Y-83073000D01*
X127923000Y-83073000D01*
X127923000Y-82073750D01*
X128177000Y-82073750D01*
X128177000Y-83073000D01*
X128876250Y-83073000D01*
X129035000Y-82914250D01*
X129035000Y-82423690D01*
X128938327Y-82190301D01*
X128759698Y-82011673D01*
X128526309Y-81915000D01*
X128335750Y-81915000D01*
X128177000Y-82073750D01*
X127923000Y-82073750D01*
X127764250Y-81915000D01*
X127573691Y-81915000D01*
X127340302Y-82011673D01*
X127161673Y-82190301D01*
X127065000Y-82423690D01*
X127065000Y-82492933D01*
X126511034Y-81938966D01*
X126495131Y-81928340D01*
X126299510Y-81797631D01*
X126258113Y-81789396D01*
X126050000Y-81747999D01*
X126049995Y-81748000D01*
X120052770Y-81748000D01*
X119997075Y-81661447D01*
X119837675Y-81552533D01*
X119648460Y-81514216D01*
X118449580Y-81514216D01*
X118272815Y-81547477D01*
X118110467Y-81651945D01*
X118001553Y-81811345D01*
X118000102Y-81818510D01*
X117899035Y-81661447D01*
X117739635Y-81552533D01*
X117550420Y-81514216D01*
X116351540Y-81514216D01*
X116174775Y-81547477D01*
X116012427Y-81651945D01*
X115903513Y-81811345D01*
X115865196Y-82000560D01*
X115865196Y-83199440D01*
X115898457Y-83376205D01*
X116002925Y-83538553D01*
X116162325Y-83647467D01*
X116223980Y-83659952D01*
X116223980Y-84880975D01*
X116223979Y-84880980D01*
X116248047Y-85001973D01*
X116279320Y-85159191D01*
X116323656Y-85225545D01*
X116323656Y-85740000D01*
X116356917Y-85916765D01*
X116461385Y-86079113D01*
X116620785Y-86188027D01*
X116810000Y-86226344D01*
X117510000Y-86226344D01*
X117686765Y-86193083D01*
X117849113Y-86088615D01*
X117958027Y-85929215D01*
X117996344Y-85740000D01*
X117996344Y-84440000D01*
X117963083Y-84263235D01*
X117858615Y-84100887D01*
X117699215Y-83991973D01*
X117677980Y-83987673D01*
X117677980Y-83661782D01*
X117727185Y-83652523D01*
X117889533Y-83548055D01*
X117998447Y-83388655D01*
X117999898Y-83381490D01*
X118100965Y-83538553D01*
X118260365Y-83647467D01*
X118449580Y-83685784D01*
X119648460Y-83685784D01*
X119825225Y-83652523D01*
X119987573Y-83548055D01*
X120096487Y-83388655D01*
X120134804Y-83199440D01*
X120134804Y-83052000D01*
X120526303Y-83052000D01*
X120451973Y-83160785D01*
X120413656Y-83350000D01*
X120413656Y-84363000D01*
X119881855Y-84363000D01*
X119863083Y-84263235D01*
X119758615Y-84100887D01*
X119599215Y-83991973D01*
X119410000Y-83953656D01*
X118710000Y-83953656D01*
X118533235Y-83986917D01*
X118370887Y-84091385D01*
X118261973Y-84250785D01*
X118223656Y-84440000D01*
X118223656Y-85740000D01*
X118256917Y-85916765D01*
X118361385Y-86079113D01*
X118520785Y-86188027D01*
X118710000Y-86226344D01*
X119410000Y-86226344D01*
X119586765Y-86193083D01*
X119749113Y-86088615D01*
X119858027Y-85929215D01*
X119880751Y-85817000D01*
X120413656Y-85817000D01*
X120413656Y-86550000D01*
X120446917Y-86726765D01*
X120473000Y-86767299D01*
X120473000Y-89913656D01*
X119300000Y-89913656D01*
X119123235Y-89946917D01*
X118960887Y-90051385D01*
X118851973Y-90210785D01*
X118813656Y-90400000D01*
X118813656Y-93600000D01*
X118846917Y-93776765D01*
X118951385Y-93939113D01*
X119110785Y-94048027D01*
X119300000Y-94086344D01*
X119623000Y-94086344D01*
X119623000Y-97350000D01*
X119697370Y-97723882D01*
X119881867Y-98000000D01*
X119909157Y-98040843D01*
X120072821Y-98204507D01*
X120072796Y-98233093D01*
X120251606Y-98665846D01*
X120582412Y-98997230D01*
X121014853Y-99176795D01*
X121483093Y-99177204D01*
X121915846Y-98998394D01*
X122247230Y-98667588D01*
X122426795Y-98235147D01*
X122427204Y-97766907D01*
X122248394Y-97334154D01*
X121917588Y-97002770D01*
X121577000Y-96861346D01*
X121577000Y-96777000D01*
X122828858Y-96777000D01*
X122875000Y-96786344D01*
X124125000Y-96786344D01*
X124273000Y-96758496D01*
X124273000Y-97886734D01*
X120046078Y-102113656D01*
X117900000Y-102113656D01*
X117723235Y-102146917D01*
X117560887Y-102251385D01*
X117451973Y-102410785D01*
X117413656Y-102600000D01*
X117413656Y-105200000D01*
X117446917Y-105376765D01*
X117551385Y-105539113D01*
X117710785Y-105648027D01*
X117900000Y-105686344D01*
X121100000Y-105686344D01*
X121276765Y-105653083D01*
X121439113Y-105548615D01*
X121548027Y-105389215D01*
X121586344Y-105200000D01*
X121586344Y-103053922D01*
X122123000Y-102517266D01*
X122123000Y-107236735D01*
X120046078Y-109313656D01*
X117900000Y-109313656D01*
X117723235Y-109346917D01*
X117560887Y-109451385D01*
X117451973Y-109610785D01*
X117413656Y-109800000D01*
X117413656Y-112400000D01*
X117446917Y-112576765D01*
X117470656Y-112613656D01*
X116500000Y-112613656D01*
X116323235Y-112646917D01*
X116160887Y-112751385D01*
X116051973Y-112910785D01*
X116032074Y-113009048D01*
X115984699Y-112961673D01*
X115751310Y-112865000D01*
X115285750Y-112865000D01*
X115127000Y-113023750D01*
X115127000Y-113873000D01*
X115147000Y-113873000D01*
X115147000Y-114127000D01*
X115127000Y-114127000D01*
X115127000Y-114147000D01*
X114873000Y-114147000D01*
X114873000Y-114127000D01*
X113898750Y-114127000D01*
X113740000Y-114285750D01*
X111845936Y-114285750D01*
X112757995Y-113373691D01*
X113740000Y-113373691D01*
X113740000Y-113714250D01*
X113898750Y-113873000D01*
X114873000Y-113873000D01*
X114873000Y-113023750D01*
X114714250Y-112865000D01*
X114248690Y-112865000D01*
X114015301Y-112961673D01*
X113836673Y-113140302D01*
X113740000Y-113373691D01*
X112757995Y-113373691D01*
X115440843Y-110690843D01*
X115581812Y-110479868D01*
X115652630Y-110373882D01*
X115727000Y-110000000D01*
X115727000Y-102736404D01*
X115950200Y-102736404D01*
X116126965Y-102703143D01*
X116289313Y-102598675D01*
X116398227Y-102439275D01*
X116436544Y-102250060D01*
X116436544Y-98749940D01*
X116403283Y-98573175D01*
X116298815Y-98410827D01*
X116139415Y-98301913D01*
X115950200Y-98263596D01*
X114627000Y-98263596D01*
X114627000Y-94086344D01*
X114700000Y-94086344D01*
X114876765Y-94053083D01*
X115039113Y-93948615D01*
X115148027Y-93789215D01*
X115186344Y-93600000D01*
X115186344Y-90400000D01*
X115153083Y-90223235D01*
X115048615Y-90060887D01*
X114889215Y-89951973D01*
X114700000Y-89913656D01*
X112100000Y-89913656D01*
X111923235Y-89946917D01*
X111760887Y-90051385D01*
X111651973Y-90210785D01*
X111613656Y-90400000D01*
X111613656Y-91223000D01*
X111262447Y-91223000D01*
X111253083Y-91173235D01*
X111148615Y-91010887D01*
X110989215Y-90901973D01*
X110800000Y-90863656D01*
X110100000Y-90863656D01*
X109923235Y-90896917D01*
X109760887Y-91001385D01*
X109651973Y-91160785D01*
X109613656Y-91350000D01*
X109613656Y-92650000D01*
X109646917Y-92826765D01*
X109751385Y-92989113D01*
X109910785Y-93098027D01*
X110100000Y-93136344D01*
X110800000Y-93136344D01*
X110976765Y-93103083D01*
X111139113Y-92998615D01*
X111248027Y-92839215D01*
X111260626Y-92777000D01*
X111613656Y-92777000D01*
X111613656Y-93600000D01*
X111646917Y-93776765D01*
X111751385Y-93939113D01*
X111910785Y-94048027D01*
X112100000Y-94086344D01*
X112173000Y-94086344D01*
X112173000Y-98361408D01*
X112110967Y-98401325D01*
X112002053Y-98560725D01*
X111963736Y-98749940D01*
X111963736Y-102250060D01*
X111996997Y-102426825D01*
X112101465Y-102589173D01*
X112260865Y-102698087D01*
X112450080Y-102736404D01*
X113773000Y-102736404D01*
X113773000Y-109595314D01*
X108591343Y-114776971D01*
X108149024Y-114593304D01*
X107454025Y-114592697D01*
X106811697Y-114858102D01*
X106319829Y-115349112D01*
X106053304Y-115990976D01*
X106052697Y-116685975D01*
X104552000Y-116685975D01*
X104552000Y-111545750D01*
X105895000Y-111545750D01*
X105895000Y-112656309D01*
X105991673Y-112889698D01*
X106170301Y-113068327D01*
X106403690Y-113165000D01*
X107514250Y-113165000D01*
X107673000Y-113006250D01*
X107673000Y-111387000D01*
X107927000Y-111387000D01*
X107927000Y-113006250D01*
X108085750Y-113165000D01*
X109196310Y-113165000D01*
X109429699Y-113068327D01*
X109608327Y-112889698D01*
X109705000Y-112656309D01*
X109705000Y-111545750D01*
X109546250Y-111387000D01*
X107927000Y-111387000D01*
X107673000Y-111387000D01*
X106053750Y-111387000D01*
X105895000Y-111545750D01*
X104552000Y-111545750D01*
X104552000Y-109863691D01*
X105895000Y-109863691D01*
X105895000Y-110974250D01*
X106053750Y-111133000D01*
X107673000Y-111133000D01*
X107673000Y-109513750D01*
X107927000Y-109513750D01*
X107927000Y-111133000D01*
X109546250Y-111133000D01*
X109705000Y-110974250D01*
X109705000Y-109863691D01*
X109608327Y-109630302D01*
X109429699Y-109451673D01*
X109196310Y-109355000D01*
X108085750Y-109355000D01*
X107927000Y-109513750D01*
X107673000Y-109513750D01*
X107514250Y-109355000D01*
X106403690Y-109355000D01*
X106170301Y-109451673D01*
X105991673Y-109630302D01*
X105895000Y-109863691D01*
X104552000Y-109863691D01*
X104552000Y-105484750D01*
X108815340Y-105484750D01*
X108815340Y-107075370D01*
X108912013Y-107308759D01*
X109090642Y-107487387D01*
X109324031Y-107584060D01*
X110914650Y-107584060D01*
X111073400Y-107425310D01*
X111073400Y-105326000D01*
X111327400Y-105326000D01*
X111327400Y-107425310D01*
X111486150Y-107584060D01*
X113076769Y-107584060D01*
X113310158Y-107487387D01*
X113488787Y-107308759D01*
X113585460Y-107075370D01*
X113585460Y-105484750D01*
X113426710Y-105326000D01*
X111327400Y-105326000D01*
X111073400Y-105326000D01*
X108974090Y-105326000D01*
X108815340Y-105484750D01*
X104552000Y-105484750D01*
X104552000Y-100785750D01*
X105815600Y-100785750D01*
X105815600Y-102376370D01*
X105912273Y-102609759D01*
X106090902Y-102788387D01*
X106324291Y-102885060D01*
X107914910Y-102885060D01*
X108073660Y-102726310D01*
X108073660Y-100627000D01*
X108327660Y-100627000D01*
X108327660Y-102726310D01*
X108486410Y-102885060D01*
X109152332Y-102885060D01*
X109090642Y-102910613D01*
X108912013Y-103089241D01*
X108815340Y-103322630D01*
X108815340Y-104913250D01*
X108974090Y-105072000D01*
X111073400Y-105072000D01*
X111073400Y-102972690D01*
X111327400Y-102972690D01*
X111327400Y-105072000D01*
X113426710Y-105072000D01*
X113585460Y-104913250D01*
X113585460Y-103322630D01*
X113488787Y-103089241D01*
X113310158Y-102910613D01*
X113076769Y-102813940D01*
X111486150Y-102813940D01*
X111327400Y-102972690D01*
X111073400Y-102972690D01*
X110914650Y-102813940D01*
X110248728Y-102813940D01*
X110310418Y-102788387D01*
X110489047Y-102609759D01*
X110585720Y-102376370D01*
X110585720Y-100785750D01*
X110426970Y-100627000D01*
X108327660Y-100627000D01*
X108073660Y-100627000D01*
X105974350Y-100627000D01*
X105815600Y-100785750D01*
X104552000Y-100785750D01*
X104552000Y-98623630D01*
X105815600Y-98623630D01*
X105815600Y-100214250D01*
X105974350Y-100373000D01*
X108073660Y-100373000D01*
X108073660Y-98273690D01*
X108327660Y-98273690D01*
X108327660Y-100373000D01*
X110426970Y-100373000D01*
X110585720Y-100214250D01*
X110585720Y-98623630D01*
X110489047Y-98390241D01*
X110310418Y-98211613D01*
X110077029Y-98114940D01*
X108486410Y-98114940D01*
X108327660Y-98273690D01*
X108073660Y-98273690D01*
X107914910Y-98114940D01*
X106324291Y-98114940D01*
X106090902Y-98211613D01*
X105912273Y-98390241D01*
X105815600Y-98623630D01*
X104552000Y-98623630D01*
X104552000Y-92285750D01*
X107565000Y-92285750D01*
X107565000Y-92776310D01*
X107661673Y-93009699D01*
X107840302Y-93188327D01*
X108073691Y-93285000D01*
X108264250Y-93285000D01*
X108423000Y-93126250D01*
X108423000Y-92127000D01*
X108677000Y-92127000D01*
X108677000Y-93126250D01*
X108835750Y-93285000D01*
X109026309Y-93285000D01*
X109259698Y-93188327D01*
X109438327Y-93009699D01*
X109535000Y-92776310D01*
X109535000Y-92285750D01*
X109376250Y-92127000D01*
X108677000Y-92127000D01*
X108423000Y-92127000D01*
X107723750Y-92127000D01*
X107565000Y-92285750D01*
X104552000Y-92285750D01*
X104552000Y-91223690D01*
X107565000Y-91223690D01*
X107565000Y-91714250D01*
X107723750Y-91873000D01*
X108423000Y-91873000D01*
X108423000Y-90873750D01*
X108677000Y-90873750D01*
X108677000Y-91873000D01*
X109376250Y-91873000D01*
X109535000Y-91714250D01*
X109535000Y-91223690D01*
X109438327Y-90990301D01*
X109259698Y-90811673D01*
X109026309Y-90715000D01*
X108835750Y-90715000D01*
X108677000Y-90873750D01*
X108423000Y-90873750D01*
X108264250Y-90715000D01*
X108073691Y-90715000D01*
X107840302Y-90811673D01*
X107661673Y-90990301D01*
X107565000Y-91223690D01*
X104552000Y-91223690D01*
X104552000Y-85054365D01*
X104900574Y-83301963D01*
X105862435Y-81862437D01*
X107301963Y-80900574D01*
X109054365Y-80552000D01*
X148945635Y-80552000D01*
X150698037Y-80900574D01*
G36*
X122698235Y-87046917D02*
X122535887Y-87151385D01*
X122426973Y-87310785D01*
X122388656Y-87500000D01*
X122388656Y-88500000D01*
X122421917Y-88676765D01*
X122526385Y-88839113D01*
X122685785Y-88948027D01*
X122875000Y-88986344D01*
X124125000Y-88986344D01*
X124301765Y-88953083D01*
X124464113Y-88848615D01*
X124573027Y-88689215D01*
X124605717Y-88527785D01*
X124773000Y-88695068D01*
X124773000Y-89430404D01*
X124738656Y-89600000D01*
X124738656Y-90700000D01*
X124771917Y-90876765D01*
X124876385Y-91039113D01*
X125035785Y-91148027D01*
X125225000Y-91186344D01*
X125625000Y-91186344D01*
X125754588Y-91161960D01*
X125875000Y-91186344D01*
X126113318Y-91186344D01*
X126165301Y-91238327D01*
X126398690Y-91335000D01*
X126466250Y-91335000D01*
X126625000Y-91176250D01*
X126625000Y-91032681D01*
X126723027Y-90889215D01*
X126724679Y-90881057D01*
X126825000Y-91036961D01*
X126825000Y-91176250D01*
X126983750Y-91335000D01*
X127051310Y-91335000D01*
X127284699Y-91238327D01*
X127336682Y-91186344D01*
X127575000Y-91186344D01*
X127704588Y-91161960D01*
X127825000Y-91186344D01*
X128225000Y-91186344D01*
X128354588Y-91161960D01*
X128475000Y-91186344D01*
X128875000Y-91186344D01*
X129004588Y-91161960D01*
X129125000Y-91186344D01*
X129525000Y-91186344D01*
X129654588Y-91161960D01*
X129775000Y-91186344D01*
X130175000Y-91186344D01*
X130304588Y-91161960D01*
X130425000Y-91186344D01*
X130825000Y-91186344D01*
X130954588Y-91161960D01*
X131075000Y-91186344D01*
X131475000Y-91186344D01*
X131604588Y-91161960D01*
X131725000Y-91186344D01*
X132125000Y-91186344D01*
X132254588Y-91161960D01*
X132375000Y-91186344D01*
X132775000Y-91186344D01*
X132951765Y-91153083D01*
X133114113Y-91048615D01*
X133223027Y-90889215D01*
X133238510Y-90812760D01*
X133348750Y-90923000D01*
X134323000Y-90923000D01*
X134323000Y-90903000D01*
X134577000Y-90903000D01*
X134577000Y-90923000D01*
X135551250Y-90923000D01*
X135710000Y-90764250D01*
X135710000Y-90423691D01*
X135613327Y-90190302D01*
X135434699Y-90011673D01*
X135315284Y-89962210D01*
X135414113Y-89898615D01*
X135523027Y-89739215D01*
X135561344Y-89550000D01*
X135561344Y-88550000D01*
X135528083Y-88373235D01*
X135423615Y-88210887D01*
X135264215Y-88101973D01*
X135075000Y-88063656D01*
X133825000Y-88063656D01*
X133648235Y-88096917D01*
X133646552Y-88098000D01*
X131750000Y-88098000D01*
X131717629Y-88104439D01*
X132185724Y-87636344D01*
X132750000Y-87636344D01*
X132926765Y-87603083D01*
X133089113Y-87498615D01*
X133103882Y-87477000D01*
X133697068Y-87477000D01*
X133801385Y-87639113D01*
X133960785Y-87748027D01*
X134150000Y-87786344D01*
X136900000Y-87786344D01*
X137076765Y-87753083D01*
X137239113Y-87648615D01*
X137348027Y-87489215D01*
X137350501Y-87477000D01*
X137832914Y-87477000D01*
X137606949Y-87702571D01*
X137473153Y-88024789D01*
X137472945Y-88263656D01*
X136600000Y-88263656D01*
X136423235Y-88296917D01*
X136260887Y-88401385D01*
X136151973Y-88560785D01*
X136113656Y-88750000D01*
X136113656Y-89450000D01*
X136146917Y-89626765D01*
X136251385Y-89789113D01*
X136273000Y-89803882D01*
X136273000Y-90098129D01*
X136240301Y-90111673D01*
X136061673Y-90290302D01*
X135965000Y-90523691D01*
X135965000Y-90714250D01*
X136123750Y-90873000D01*
X136273000Y-90873000D01*
X136273000Y-91127000D01*
X136123750Y-91127000D01*
X135965000Y-91285750D01*
X135965000Y-91476309D01*
X136061673Y-91709698D01*
X136237535Y-91885561D01*
X136151973Y-92010785D01*
X136113656Y-92200000D01*
X136113656Y-92900000D01*
X136146917Y-93076765D01*
X136251385Y-93239113D01*
X136273000Y-93253882D01*
X136273000Y-93548129D01*
X136240301Y-93561673D01*
X136061673Y-93740302D01*
X135965000Y-93973691D01*
X135965000Y-94164250D01*
X136123750Y-94323000D01*
X136273000Y-94323000D01*
X136273000Y-94577000D01*
X136123750Y-94577000D01*
X135965000Y-94735750D01*
X135965000Y-94926309D01*
X136061673Y-95159698D01*
X136126975Y-95225000D01*
X136061673Y-95290302D01*
X135965000Y-95523691D01*
X135965000Y-95714250D01*
X136123750Y-95873000D01*
X136273000Y-95873000D01*
X136273000Y-96127000D01*
X136123750Y-96127000D01*
X135965000Y-96285750D01*
X135965000Y-96423000D01*
X135499943Y-96423000D01*
X135523027Y-96389215D01*
X135561344Y-96200000D01*
X135561344Y-95200000D01*
X135528083Y-95023235D01*
X135423615Y-94860887D01*
X135316125Y-94787442D01*
X135434699Y-94738327D01*
X135613327Y-94559698D01*
X135710000Y-94326309D01*
X135710000Y-93985750D01*
X135551250Y-93827000D01*
X134577000Y-93827000D01*
X134577000Y-93847000D01*
X134323000Y-93847000D01*
X134323000Y-93827000D01*
X133348750Y-93827000D01*
X133190000Y-93985750D01*
X133190000Y-94326309D01*
X133286673Y-94559698D01*
X133465301Y-94738327D01*
X133584716Y-94787790D01*
X133485887Y-94851385D01*
X133376973Y-95010785D01*
X133344124Y-95173000D01*
X133237447Y-95173000D01*
X133228083Y-95123235D01*
X133123615Y-94960887D01*
X132964215Y-94851973D01*
X132775000Y-94813656D01*
X132375000Y-94813656D01*
X132245412Y-94838040D01*
X132125000Y-94813656D01*
X131725000Y-94813656D01*
X131595412Y-94838040D01*
X131475000Y-94813656D01*
X131075000Y-94813656D01*
X130945412Y-94838040D01*
X130825000Y-94813656D01*
X130425000Y-94813656D01*
X130295412Y-94838040D01*
X130175000Y-94813656D01*
X129775000Y-94813656D01*
X129645412Y-94838040D01*
X129525000Y-94813656D01*
X129125000Y-94813656D01*
X128995412Y-94838040D01*
X128875000Y-94813656D01*
X128475000Y-94813656D01*
X128345412Y-94838040D01*
X128225000Y-94813656D01*
X127825000Y-94813656D01*
X127695412Y-94838040D01*
X127575000Y-94813656D01*
X127175000Y-94813656D01*
X127045412Y-94838040D01*
X126925000Y-94813656D01*
X126525000Y-94813656D01*
X126395412Y-94838040D01*
X126275000Y-94813656D01*
X125875000Y-94813656D01*
X125745412Y-94838040D01*
X125625000Y-94813656D01*
X125225000Y-94813656D01*
X125048235Y-94846917D01*
X124885887Y-94951385D01*
X124776973Y-95110785D01*
X124776524Y-95113000D01*
X124571497Y-95113000D01*
X124473615Y-94960887D01*
X124366125Y-94887442D01*
X124484699Y-94838327D01*
X124663327Y-94659698D01*
X124760000Y-94426309D01*
X124760000Y-94085750D01*
X124601250Y-93927000D01*
X123627000Y-93927000D01*
X123627000Y-93947000D01*
X123373000Y-93947000D01*
X123373000Y-93927000D01*
X123353000Y-93927000D01*
X123353000Y-93673000D01*
X123373000Y-93673000D01*
X123373000Y-92823750D01*
X123627000Y-92823750D01*
X123627000Y-93673000D01*
X124601250Y-93673000D01*
X124760000Y-93514250D01*
X124760000Y-93173691D01*
X124718579Y-93073691D01*
X133190000Y-93073691D01*
X133190000Y-93414250D01*
X133348750Y-93573000D01*
X134323000Y-93573000D01*
X134323000Y-92723750D01*
X134577000Y-92723750D01*
X134577000Y-93573000D01*
X135551250Y-93573000D01*
X135710000Y-93414250D01*
X135710000Y-93073691D01*
X135613327Y-92840302D01*
X135434699Y-92661673D01*
X135201310Y-92565000D01*
X134735750Y-92565000D01*
X134577000Y-92723750D01*
X134323000Y-92723750D01*
X134164250Y-92565000D01*
X133698690Y-92565000D01*
X133465301Y-92661673D01*
X133286673Y-92840302D01*
X133190000Y-93073691D01*
X124718579Y-93073691D01*
X124663327Y-92940302D01*
X124484699Y-92761673D01*
X124251310Y-92665000D01*
X123785750Y-92665000D01*
X123627000Y-92823750D01*
X123373000Y-92823750D01*
X123249792Y-92700542D01*
X123370133Y-92620133D01*
X124120133Y-91870133D01*
X124310242Y-91585614D01*
X124359943Y-91335750D01*
X133190000Y-91335750D01*
X133190000Y-91676309D01*
X133286673Y-91909698D01*
X133465301Y-92088327D01*
X133698690Y-92185000D01*
X134164250Y-92185000D01*
X134323000Y-92026250D01*
X134323000Y-91177000D01*
X134577000Y-91177000D01*
X134577000Y-92026250D01*
X134735750Y-92185000D01*
X135201310Y-92185000D01*
X135434699Y-92088327D01*
X135613327Y-91909698D01*
X135710000Y-91676309D01*
X135710000Y-91335750D01*
X135551250Y-91177000D01*
X134577000Y-91177000D01*
X134323000Y-91177000D01*
X133348750Y-91177000D01*
X133190000Y-91335750D01*
X124359943Y-91335750D01*
X124377000Y-91250000D01*
X124377000Y-90904671D01*
X124464113Y-90848615D01*
X124573027Y-90689215D01*
X124611344Y-90500000D01*
X124611344Y-89500000D01*
X124578083Y-89323235D01*
X124473615Y-89160887D01*
X124314215Y-89051973D01*
X124125000Y-89013656D01*
X122875000Y-89013656D01*
X122698235Y-89046917D01*
X122535887Y-89151385D01*
X122426973Y-89310785D01*
X122388656Y-89500000D01*
X122388656Y-90500000D01*
X122421917Y-90676765D01*
X122526385Y-90839113D01*
X122612073Y-90897661D01*
X122386734Y-91123000D01*
X122386344Y-91123000D01*
X122386344Y-90400000D01*
X122353083Y-90223235D01*
X122248615Y-90060887D01*
X122227000Y-90046118D01*
X122227000Y-87036344D01*
X122754425Y-87036344D01*
X122698235Y-87046917D01*
X122698235Y-87046917D01*
G37*
X122698235Y-87046917D02*
X122535887Y-87151385D01*
X122426973Y-87310785D01*
X122388656Y-87500000D01*
X122388656Y-88500000D01*
X122421917Y-88676765D01*
X122526385Y-88839113D01*
X122685785Y-88948027D01*
X122875000Y-88986344D01*
X124125000Y-88986344D01*
X124301765Y-88953083D01*
X124464113Y-88848615D01*
X124573027Y-88689215D01*
X124605717Y-88527785D01*
X124773000Y-88695068D01*
X124773000Y-89430404D01*
X124738656Y-89600000D01*
X124738656Y-90700000D01*
X124771917Y-90876765D01*
X124876385Y-91039113D01*
X125035785Y-91148027D01*
X125225000Y-91186344D01*
X125625000Y-91186344D01*
X125754588Y-91161960D01*
X125875000Y-91186344D01*
X126113318Y-91186344D01*
X126165301Y-91238327D01*
X126398690Y-91335000D01*
X126466250Y-91335000D01*
X126625000Y-91176250D01*
X126625000Y-91032681D01*
X126723027Y-90889215D01*
X126724679Y-90881057D01*
X126825000Y-91036961D01*
X126825000Y-91176250D01*
X126983750Y-91335000D01*
X127051310Y-91335000D01*
X127284699Y-91238327D01*
X127336682Y-91186344D01*
X127575000Y-91186344D01*
X127704588Y-91161960D01*
X127825000Y-91186344D01*
X128225000Y-91186344D01*
X128354588Y-91161960D01*
X128475000Y-91186344D01*
X128875000Y-91186344D01*
X129004588Y-91161960D01*
X129125000Y-91186344D01*
X129525000Y-91186344D01*
X129654588Y-91161960D01*
X129775000Y-91186344D01*
X130175000Y-91186344D01*
X130304588Y-91161960D01*
X130425000Y-91186344D01*
X130825000Y-91186344D01*
X130954588Y-91161960D01*
X131075000Y-91186344D01*
X131475000Y-91186344D01*
X131604588Y-91161960D01*
X131725000Y-91186344D01*
X132125000Y-91186344D01*
X132254588Y-91161960D01*
X132375000Y-91186344D01*
X132775000Y-91186344D01*
X132951765Y-91153083D01*
X133114113Y-91048615D01*
X133223027Y-90889215D01*
X133238510Y-90812760D01*
X133348750Y-90923000D01*
X134323000Y-90923000D01*
X134323000Y-90903000D01*
X134577000Y-90903000D01*
X134577000Y-90923000D01*
X135551250Y-90923000D01*
X135710000Y-90764250D01*
X135710000Y-90423691D01*
X135613327Y-90190302D01*
X135434699Y-90011673D01*
X135315284Y-89962210D01*
X135414113Y-89898615D01*
X135523027Y-89739215D01*
X135561344Y-89550000D01*
X135561344Y-88550000D01*
X135528083Y-88373235D01*
X135423615Y-88210887D01*
X135264215Y-88101973D01*
X135075000Y-88063656D01*
X133825000Y-88063656D01*
X133648235Y-88096917D01*
X133646552Y-88098000D01*
X131750000Y-88098000D01*
X131717629Y-88104439D01*
X132185724Y-87636344D01*
X132750000Y-87636344D01*
X132926765Y-87603083D01*
X133089113Y-87498615D01*
X133103882Y-87477000D01*
X133697068Y-87477000D01*
X133801385Y-87639113D01*
X133960785Y-87748027D01*
X134150000Y-87786344D01*
X136900000Y-87786344D01*
X137076765Y-87753083D01*
X137239113Y-87648615D01*
X137348027Y-87489215D01*
X137350501Y-87477000D01*
X137832914Y-87477000D01*
X137606949Y-87702571D01*
X137473153Y-88024789D01*
X137472945Y-88263656D01*
X136600000Y-88263656D01*
X136423235Y-88296917D01*
X136260887Y-88401385D01*
X136151973Y-88560785D01*
X136113656Y-88750000D01*
X136113656Y-89450000D01*
X136146917Y-89626765D01*
X136251385Y-89789113D01*
X136273000Y-89803882D01*
X136273000Y-90098129D01*
X136240301Y-90111673D01*
X136061673Y-90290302D01*
X135965000Y-90523691D01*
X135965000Y-90714250D01*
X136123750Y-90873000D01*
X136273000Y-90873000D01*
X136273000Y-91127000D01*
X136123750Y-91127000D01*
X135965000Y-91285750D01*
X135965000Y-91476309D01*
X136061673Y-91709698D01*
X136237535Y-91885561D01*
X136151973Y-92010785D01*
X136113656Y-92200000D01*
X136113656Y-92900000D01*
X136146917Y-93076765D01*
X136251385Y-93239113D01*
X136273000Y-93253882D01*
X136273000Y-93548129D01*
X136240301Y-93561673D01*
X136061673Y-93740302D01*
X135965000Y-93973691D01*
X135965000Y-94164250D01*
X136123750Y-94323000D01*
X136273000Y-94323000D01*
X136273000Y-94577000D01*
X136123750Y-94577000D01*
X135965000Y-94735750D01*
X135965000Y-94926309D01*
X136061673Y-95159698D01*
X136126975Y-95225000D01*
X136061673Y-95290302D01*
X135965000Y-95523691D01*
X135965000Y-95714250D01*
X136123750Y-95873000D01*
X136273000Y-95873000D01*
X136273000Y-96127000D01*
X136123750Y-96127000D01*
X135965000Y-96285750D01*
X135965000Y-96423000D01*
X135499943Y-96423000D01*
X135523027Y-96389215D01*
X135561344Y-96200000D01*
X135561344Y-95200000D01*
X135528083Y-95023235D01*
X135423615Y-94860887D01*
X135316125Y-94787442D01*
X135434699Y-94738327D01*
X135613327Y-94559698D01*
X135710000Y-94326309D01*
X135710000Y-93985750D01*
X135551250Y-93827000D01*
X134577000Y-93827000D01*
X134577000Y-93847000D01*
X134323000Y-93847000D01*
X134323000Y-93827000D01*
X133348750Y-93827000D01*
X133190000Y-93985750D01*
X133190000Y-94326309D01*
X133286673Y-94559698D01*
X133465301Y-94738327D01*
X133584716Y-94787790D01*
X133485887Y-94851385D01*
X133376973Y-95010785D01*
X133344124Y-95173000D01*
X133237447Y-95173000D01*
X133228083Y-95123235D01*
X133123615Y-94960887D01*
X132964215Y-94851973D01*
X132775000Y-94813656D01*
X132375000Y-94813656D01*
X132245412Y-94838040D01*
X132125000Y-94813656D01*
X131725000Y-94813656D01*
X131595412Y-94838040D01*
X131475000Y-94813656D01*
X131075000Y-94813656D01*
X130945412Y-94838040D01*
X130825000Y-94813656D01*
X130425000Y-94813656D01*
X130295412Y-94838040D01*
X130175000Y-94813656D01*
X129775000Y-94813656D01*
X129645412Y-94838040D01*
X129525000Y-94813656D01*
X129125000Y-94813656D01*
X128995412Y-94838040D01*
X128875000Y-94813656D01*
X128475000Y-94813656D01*
X128345412Y-94838040D01*
X128225000Y-94813656D01*
X127825000Y-94813656D01*
X127695412Y-94838040D01*
X127575000Y-94813656D01*
X127175000Y-94813656D01*
X127045412Y-94838040D01*
X126925000Y-94813656D01*
X126525000Y-94813656D01*
X126395412Y-94838040D01*
X126275000Y-94813656D01*
X125875000Y-94813656D01*
X125745412Y-94838040D01*
X125625000Y-94813656D01*
X125225000Y-94813656D01*
X125048235Y-94846917D01*
X124885887Y-94951385D01*
X124776973Y-95110785D01*
X124776524Y-95113000D01*
X124571497Y-95113000D01*
X124473615Y-94960887D01*
X124366125Y-94887442D01*
X124484699Y-94838327D01*
X124663327Y-94659698D01*
X124760000Y-94426309D01*
X124760000Y-94085750D01*
X124601250Y-93927000D01*
X123627000Y-93927000D01*
X123627000Y-93947000D01*
X123373000Y-93947000D01*
X123373000Y-93927000D01*
X123353000Y-93927000D01*
X123353000Y-93673000D01*
X123373000Y-93673000D01*
X123373000Y-92823750D01*
X123627000Y-92823750D01*
X123627000Y-93673000D01*
X124601250Y-93673000D01*
X124760000Y-93514250D01*
X124760000Y-93173691D01*
X124718579Y-93073691D01*
X133190000Y-93073691D01*
X133190000Y-93414250D01*
X133348750Y-93573000D01*
X134323000Y-93573000D01*
X134323000Y-92723750D01*
X134577000Y-92723750D01*
X134577000Y-93573000D01*
X135551250Y-93573000D01*
X135710000Y-93414250D01*
X135710000Y-93073691D01*
X135613327Y-92840302D01*
X135434699Y-92661673D01*
X135201310Y-92565000D01*
X134735750Y-92565000D01*
X134577000Y-92723750D01*
X134323000Y-92723750D01*
X134164250Y-92565000D01*
X133698690Y-92565000D01*
X133465301Y-92661673D01*
X133286673Y-92840302D01*
X133190000Y-93073691D01*
X124718579Y-93073691D01*
X124663327Y-92940302D01*
X124484699Y-92761673D01*
X124251310Y-92665000D01*
X123785750Y-92665000D01*
X123627000Y-92823750D01*
X123373000Y-92823750D01*
X123249792Y-92700542D01*
X123370133Y-92620133D01*
X124120133Y-91870133D01*
X124310242Y-91585614D01*
X124359943Y-91335750D01*
X133190000Y-91335750D01*
X133190000Y-91676309D01*
X133286673Y-91909698D01*
X133465301Y-92088327D01*
X133698690Y-92185000D01*
X134164250Y-92185000D01*
X134323000Y-92026250D01*
X134323000Y-91177000D01*
X134577000Y-91177000D01*
X134577000Y-92026250D01*
X134735750Y-92185000D01*
X135201310Y-92185000D01*
X135434699Y-92088327D01*
X135613327Y-91909698D01*
X135710000Y-91676309D01*
X135710000Y-91335750D01*
X135551250Y-91177000D01*
X134577000Y-91177000D01*
X134323000Y-91177000D01*
X133348750Y-91177000D01*
X133190000Y-91335750D01*
X124359943Y-91335750D01*
X124377000Y-91250000D01*
X124377000Y-90904671D01*
X124464113Y-90848615D01*
X124573027Y-90689215D01*
X124611344Y-90500000D01*
X124611344Y-89500000D01*
X124578083Y-89323235D01*
X124473615Y-89160887D01*
X124314215Y-89051973D01*
X124125000Y-89013656D01*
X122875000Y-89013656D01*
X122698235Y-89046917D01*
X122535887Y-89151385D01*
X122426973Y-89310785D01*
X122388656Y-89500000D01*
X122388656Y-90500000D01*
X122421917Y-90676765D01*
X122526385Y-90839113D01*
X122612073Y-90897661D01*
X122386734Y-91123000D01*
X122386344Y-91123000D01*
X122386344Y-90400000D01*
X122353083Y-90223235D01*
X122248615Y-90060887D01*
X122227000Y-90046118D01*
X122227000Y-87036344D01*
X122754425Y-87036344D01*
X122698235Y-87046917D01*
M02*
